<svg width="670" height="340" viewBox="0 0 670 340" fill="none" xmlns="http://www.w3.org/2000/svg">
<mask id="mask0_1_365" style="mask-type:alpha" maskUnits="userSpaceOnUse" x="0" y="0" width="670" height="340">
<rect width="670" height="340" rx="30" fill="url(#paint0_linear_1_365)"/>
</mask>
<g mask="url(#mask0_1_365)">
<path fill-rule="evenodd" clip-rule="evenodd" d="M518.931 -10.8032C576.209 0.385522 592.802 68.5259 627.552 115.498C659.541 158.737 719.657 192.992 708.679 245.678C697.636 298.675 631.826 312.526 582.089 333.686C536.793 352.956 489.531 376.861 443.938 358.309C395.517 338.607 369.813 289.766 352.624 240.317C331.738 180.231 304.901 112.347 340.012 59.3299C377.264 3.07944 452.798 -23.7215 518.931 -10.8032Z" fill="url(#paint1_linear_1_365)"/>
<g filter="url(#filter0_d_1_365)">
<path fill-rule="evenodd" clip-rule="evenodd" d="M611.379 13.3464C628.152 42.4214 649.189 77.3392 632.798 106.631C616.59 135.598 575.408 129.743 542.794 135.916C510.63 142.003 472.139 165.046 449.606 141.3C427.199 117.685 456.141 81.3767 460.422 49.1052C463.751 24.0087 453.193 -4.56886 471.304 -22.2583C491.295 -41.7846 522.364 -44.7339 549.448 -37.8497C576.759 -30.9077 597.297 -11.0625 611.379 13.3464Z" fill="#05C66E"/>
</g>
<g filter="url(#filter1_d_1_365)">
<path fill-rule="evenodd" clip-rule="evenodd" d="M315.413 98.4113C315.399 83.9635 315.05 66.4204 327.454 59.0131C339.721 51.6882 353.826 62.7155 367.318 67.4167C380.623 72.053 399.93 71.7224 403.236 85.4192C406.524 99.0402 387.931 106.369 379.404 117.488C372.773 126.135 370.575 139.063 360.02 141.773C348.369 144.764 336.146 139.192 327.521 130.808C318.824 122.354 315.424 110.541 315.413 98.4113Z" fill="#05C66E"/>
</g>
<g filter="url(#filter2_d_1_365)">
<path fill-rule="evenodd" clip-rule="evenodd" d="M539.717 358.866C530.572 347.571 519.076 334.126 529.032 318.261C538.878 302.572 562.489 299.752 581.379 292.48C600.009 285.307 622.581 269.377 635.137 277.412C647.623 285.402 630.314 306.229 627.279 321.852C624.918 334.001 630.492 345.901 619.75 356.589C607.893 368.387 589.95 373.948 574.475 374.388C558.871 374.832 547.395 368.348 539.717 358.866Z" fill="#07D175"/>
</g>
<path d="M394.352 86.0389C394.646 85.7446 394.646 85.2675 394.352 84.9732C394.058 84.6789 393.581 84.6789 393.286 84.9732C392.992 85.2675 392.992 85.7446 393.286 86.0389C393.581 86.3333 394.058 86.3333 394.352 86.0389Z" fill="white"/>
<path d="M417.544 109.231C417.851 108.924 417.851 108.426 417.544 108.119C417.237 107.812 416.739 107.812 416.432 108.119C416.125 108.426 416.125 108.924 416.432 109.231C416.739 109.538 417.237 109.538 417.544 109.231Z" fill="white"/>
<path d="M440.736 132.423C441.056 132.103 441.056 131.584 440.736 131.264C440.416 130.944 439.897 130.944 439.577 131.264C439.257 131.584 439.257 132.103 439.577 132.423C439.897 132.743 440.416 132.743 440.736 132.423Z" fill="white"/>
<path d="M463.881 155.568C464.188 155.261 464.188 154.763 463.881 154.456C463.574 154.149 463.076 154.149 462.769 154.456C462.462 154.763 462.462 155.261 462.769 155.568C463.076 155.875 463.574 155.875 463.881 155.568Z" fill="white"/>
<path d="M487.027 178.714C487.321 178.419 487.321 177.942 487.027 177.648C486.732 177.354 486.255 177.354 485.961 177.648C485.667 177.942 485.667 178.419 485.961 178.714C486.255 179.008 486.732 179.008 487.027 178.714Z" fill="white"/>
<path d="M394.398 39.7479C394.718 39.428 394.718 38.9094 394.398 38.5895C394.078 38.2696 393.56 38.2696 393.24 38.5895C392.92 38.9094 392.92 39.428 393.24 39.7479C393.56 40.0678 394.078 40.0678 394.398 39.7479Z" fill="white"/>
<path d="M417.602 62.9513C417.941 62.6123 417.941 62.0625 417.602 61.7234C417.263 61.3843 416.713 61.3843 416.374 61.7234C416.035 62.0625 416.035 62.6123 416.374 62.9513C416.713 63.2904 417.263 63.2904 417.602 62.9513Z" fill="white"/>
<path d="M440.805 86.1548C441.164 85.7965 441.164 85.2156 440.805 84.8574C440.447 84.4991 439.866 84.4991 439.508 84.8574C439.15 85.2156 439.15 85.7965 439.508 86.1548C439.866 86.5131 440.447 86.5131 440.805 86.1548Z" fill="white"/>
<path d="M464.009 109.358C464.386 108.981 464.386 108.369 464.009 107.991C463.631 107.614 463.019 107.614 462.642 107.991C462.264 108.369 462.264 108.981 462.642 109.358C463.019 109.736 463.631 109.736 464.009 109.358Z" fill="white"/>
<path d="M487.143 132.492C487.501 132.134 487.501 131.553 487.143 131.195C486.784 130.836 486.203 130.836 485.845 131.195C485.487 131.553 485.487 132.134 485.845 132.492C486.203 132.85 486.784 132.85 487.143 132.492Z" fill="white"/>
<path d="M510.277 155.626C510.616 155.287 510.616 154.737 510.277 154.398C509.937 154.059 509.388 154.059 509.049 154.398C508.71 154.737 508.71 155.287 509.049 155.626C509.388 155.965 509.937 155.965 510.277 155.626Z" fill="white"/>
<path d="M533.411 178.76C533.73 178.44 533.73 177.922 533.411 177.602C533.091 177.282 532.572 177.282 532.252 177.602C531.932 177.922 531.932 178.44 532.252 178.76C532.572 179.08 533.091 179.08 533.411 178.76Z" fill="white"/>
<path d="M394.398 -6.58948C394.718 -6.90938 394.718 -7.42802 394.398 -7.74791C394.078 -8.06781 393.56 -8.06781 393.24 -7.74791C392.92 -7.42802 392.92 -6.90938 393.24 -6.58948C393.56 -6.26959 394.078 -6.26959 394.398 -6.58948Z" fill="white"/>
<path d="M417.613 16.6255C417.959 16.2801 417.959 15.7199 417.613 15.3745C417.268 15.029 416.708 15.029 416.362 15.3745C416.017 15.7199 416.017 16.2801 416.362 16.6255C416.708 16.971 417.268 16.971 417.613 16.6255Z" fill="white"/>
<path d="M440.84 39.8522C441.217 39.4747 441.217 38.8627 440.84 38.4852C440.463 38.1077 439.851 38.1077 439.473 38.4852C439.096 38.8627 439.096 39.4747 439.473 39.8522C439.851 40.2296 440.463 40.2296 440.84 39.8522Z" fill="white"/>
<path d="M464.067 63.0788C464.476 62.6693 464.476 62.0054 464.067 61.596C463.657 61.1865 462.993 61.1865 462.584 61.596C462.174 62.0054 462.174 62.6693 462.584 63.0788C462.993 63.4883 463.657 63.4883 464.067 63.0788Z" fill="white"/>
<path d="M487.293 86.3054C487.735 85.864 487.735 85.1482 487.293 84.7067C486.852 84.2653 486.136 84.2653 485.695 84.7067C485.253 85.1482 485.253 85.864 485.695 86.3054C486.136 86.7469 486.852 86.7469 487.293 86.3054Z" fill="white"/>
<path d="M510.404 109.416C510.813 109.007 510.813 108.343 510.404 107.933C509.995 107.524 509.331 107.524 508.921 107.933C508.512 108.343 508.512 109.007 508.921 109.416C509.331 109.826 509.995 109.826 510.404 109.416Z" fill="white"/>
<path d="M533.515 132.527C533.892 132.149 533.892 131.537 533.515 131.16C533.137 130.783 532.525 130.783 532.148 131.16C531.77 131.537 531.77 132.149 532.148 132.527C532.525 132.904 533.137 132.904 533.515 132.527Z" fill="white"/>
<path d="M556.626 155.638C556.971 155.292 556.971 154.732 556.626 154.387C556.28 154.041 555.72 154.041 555.374 154.387C555.029 154.732 555.029 155.292 555.374 155.638C555.72 155.983 556.28 155.983 556.626 155.638Z" fill="white"/>
<path d="M579.748 178.76C580.068 178.44 580.068 177.922 579.748 177.602C579.428 177.282 578.909 177.282 578.589 177.602C578.27 177.922 578.27 178.44 578.589 178.76C578.909 179.08 579.428 179.08 579.748 178.76Z" fill="white"/>
<path d="M394.352 -52.9732C394.646 -53.2675 394.646 -53.7447 394.352 -54.039C394.058 -54.3333 393.581 -54.3333 393.286 -54.039C392.992 -53.7447 392.992 -53.2675 393.286 -52.9732C393.581 -52.6789 394.058 -52.6789 394.352 -52.9732Z" fill="white"/>
<path d="M417.602 -29.7234C417.941 -30.0625 417.941 -30.6123 417.602 -30.9514C417.263 -31.2905 416.713 -31.2905 416.374 -30.9514C416.035 -30.6123 416.035 -30.0625 416.374 -29.7234C416.713 -29.3843 417.263 -29.3843 417.602 -29.7234Z" fill="white"/>
<path d="M440.84 -6.48523C441.217 -6.8627 441.217 -7.4747 440.84 -7.85217C440.463 -8.22964 439.851 -8.22966 439.473 -7.85219C439.096 -7.4747 439.096 -6.8627 439.473 -6.48523C439.851 -6.10774 440.463 -6.10774 440.84 -6.48523Z" fill="white"/>
<path d="M464.09 16.7646C464.512 16.3423 464.512 15.6577 464.09 15.2354C463.668 14.8132 462.983 14.8132 462.561 15.2354C462.138 15.6577 462.138 16.3423 462.561 16.7646C462.983 17.1868 463.668 17.1868 464.09 16.7646Z" fill="white"/>
<path d="M487.328 40.0028C487.789 39.5421 487.789 38.7953 487.328 38.3346C486.867 37.874 486.12 37.874 485.66 38.3346C485.199 38.7953 485.199 39.5421 485.66 40.0028C486.12 40.4634 486.867 40.4634 487.328 40.0028Z" fill="white"/>
<path d="M510.566 63.241C511.065 62.7419 511.065 61.9328 510.566 61.4338C510.067 60.9348 509.258 60.9348 508.759 61.4338C508.26 61.9328 508.26 62.7419 508.759 63.241C509.258 63.74 510.067 63.74 510.566 63.241Z" fill="white"/>
<path d="M533.665 86.3401C534.126 85.8795 534.126 85.1326 533.665 84.672C533.205 84.2113 532.458 84.2113 531.997 84.672C531.537 85.1326 531.537 85.8795 531.997 86.3401C532.458 86.8008 533.205 86.8008 533.665 86.3401Z" fill="white"/>
<path d="M556.765 109.439C557.187 109.017 557.187 108.332 556.765 107.91C556.342 107.488 555.658 107.488 555.235 107.91C554.813 108.332 554.813 109.017 555.235 109.439C555.658 109.862 556.342 109.862 556.765 109.439Z" fill="white"/>
<path d="M579.852 132.527C580.23 132.149 580.23 131.537 579.852 131.16C579.475 130.783 578.863 130.783 578.485 131.16C578.108 131.537 578.108 132.149 578.485 132.527C578.863 132.904 579.475 132.904 579.852 132.527Z" fill="white"/>
<path d="M602.951 155.626C603.29 155.287 603.29 154.737 602.951 154.398C602.612 154.059 602.062 154.059 601.723 154.398C601.384 154.737 601.384 155.287 601.723 155.626C602.062 155.965 602.612 155.965 602.951 155.626Z" fill="white"/>
<path d="M626.039 178.714C626.333 178.419 626.333 177.942 626.039 177.648C625.745 177.354 625.267 177.354 624.973 177.648C624.679 177.942 624.679 178.419 624.973 178.714C625.268 179.008 625.745 179.008 626.039 178.714Z" fill="white"/>
<path d="M417.544 -76.1187C417.851 -76.4258 417.851 -76.9237 417.544 -77.2308C417.237 -77.5379 416.739 -77.5379 416.432 -77.2308C416.125 -76.9237 416.125 -76.4258 416.432 -76.1187C416.739 -75.8116 417.237 -75.8116 417.544 -76.1187Z" fill="white"/>
<path d="M440.805 -52.8574C441.164 -53.2156 441.164 -53.7965 440.805 -54.1548C440.447 -54.5131 439.866 -54.5131 439.508 -54.1548C439.15 -53.7965 439.15 -53.2156 439.508 -52.8574C439.866 -52.4991 440.447 -52.4991 440.805 -52.8574Z" fill="white"/>
<path d="M464.067 -29.596C464.476 -30.0055 464.476 -30.6693 464.067 -31.0788C463.657 -31.4883 462.993 -31.4883 462.584 -31.0788C462.174 -30.6693 462.174 -30.0055 462.584 -29.596C462.993 -29.1865 463.657 -29.1865 464.067 -29.596Z" fill="white"/>
<path d="M487.328 -6.33463C487.789 -6.79527 487.789 -7.54213 487.328 -8.00276C486.867 -8.46341 486.12 -8.46341 485.66 -8.00276C485.199 -7.54213 485.199 -6.79527 485.66 -6.33463C486.12 -5.87398 486.867 -5.87398 487.328 -6.33463Z" fill="white"/>
<path d="M510.589 16.9268C511.101 16.4149 511.101 15.5851 510.589 15.0732C510.078 14.5614 509.248 14.5614 508.736 15.0732C508.224 15.5851 508.224 16.4149 508.736 16.9268C509.248 17.4386 510.078 17.4386 510.589 16.9268Z" fill="white"/>
<path d="M533.851 40.1881C534.414 39.6251 534.414 38.7123 533.851 38.1493C533.288 37.5863 532.375 37.5863 531.812 38.1493C531.249 38.7123 531.249 39.6251 531.812 40.1881C532.375 40.7511 533.288 40.7511 533.851 40.1881Z" fill="white"/>
<path d="M556.927 63.2641C557.439 62.7523 557.439 61.9225 556.927 61.4106C556.415 60.8988 555.585 60.8988 555.073 61.4106C554.561 61.9225 554.561 62.7523 555.073 63.2641C555.585 63.776 556.415 63.776 556.927 63.2641Z" fill="white"/>
<path d="M580.003 86.3401C580.463 85.8795 580.463 85.1326 580.003 84.672C579.542 84.2113 578.795 84.2113 578.335 84.672C577.874 85.1326 577.874 85.8795 578.335 86.3401C578.795 86.8008 579.542 86.8008 580.003 86.3401Z" fill="white"/>
<path d="M603.079 109.416C603.488 109.007 603.488 108.343 603.079 107.933C602.669 107.524 602.005 107.524 601.596 107.933C601.187 108.343 601.187 109.007 601.596 109.416C602.005 109.826 602.669 109.826 603.079 109.416Z" fill="white"/>
<path d="M626.155 132.492C626.513 132.134 626.513 131.553 626.155 131.195C625.797 130.836 625.216 130.836 624.857 131.195C624.499 131.553 624.499 132.134 624.857 132.492C625.216 132.85 625.797 132.85 626.155 132.492Z" fill="white"/>
<path d="M649.231 155.568C649.538 155.261 649.538 154.763 649.231 154.456C648.924 154.149 648.426 154.149 648.119 154.456C647.812 154.763 647.812 155.261 648.119 155.568C648.426 155.875 648.924 155.875 649.231 155.568Z" fill="white"/>
<path d="M440.736 -99.2643C441.056 -99.5841 441.056 -100.103 440.736 -100.423C440.416 -100.743 439.897 -100.743 439.577 -100.423C439.257 -100.103 439.257 -99.5841 439.577 -99.2643C439.897 -98.9444 440.416 -98.9444 440.736 -99.2643Z" fill="white"/>
<path d="M464.009 -75.9913C464.386 -76.3688 464.386 -76.9808 464.009 -77.3583C463.631 -77.7357 463.019 -77.7357 462.642 -77.3583C462.264 -76.9808 462.264 -76.3688 462.642 -75.9913C463.019 -75.6138 463.631 -75.6138 464.009 -75.9913Z" fill="white"/>
<path d="M487.293 -52.7068C487.735 -53.1482 487.735 -53.864 487.293 -54.3054C486.852 -54.7469 486.136 -54.7469 485.695 -54.3054C485.253 -53.864 485.253 -53.1482 485.695 -52.7068C486.136 -52.2653 486.852 -52.2653 487.293 -52.7068Z" fill="white"/>
<path d="M510.566 -29.4338C511.065 -29.9329 511.065 -30.7419 510.566 -31.241C510.067 -31.74 509.258 -31.74 508.759 -31.241C508.26 -30.7419 508.26 -29.9329 508.759 -29.4338C509.258 -28.9348 510.067 -28.9348 510.566 -29.4338Z" fill="white"/>
<path d="M533.851 -6.14928C534.414 -6.71228 534.414 -7.62511 533.851 -8.18811C533.288 -8.75113 532.375 -8.75113 531.812 -8.18811C531.249 -7.62511 531.249 -6.71228 531.812 -6.14928C532.375 -5.58626 533.288 -5.58626 533.851 -6.14928Z" fill="white"/>
<path d="M557.135 17.1353C557.762 16.5083 557.762 15.4917 557.135 14.8647C556.508 14.2377 555.492 14.2377 554.865 14.8647C554.238 15.4917 554.238 16.5083 554.865 17.1353C555.492 17.7623 556.508 17.7623 557.135 17.1353Z" fill="white"/>
<path d="M580.188 40.1881C580.751 39.6251 580.751 38.7123 580.188 38.1493C579.625 37.5863 578.712 37.5862 578.149 38.1493C577.586 38.7123 577.586 39.6251 578.149 40.1881C578.712 40.7511 579.625 40.7511 580.188 40.1881Z" fill="white"/>
<path d="M603.241 63.241C603.74 62.7419 603.74 61.9328 603.241 61.4338C602.742 60.9348 601.933 60.9348 601.434 61.4338C600.935 61.9328 600.935 62.7419 601.434 63.241C601.933 63.74 602.742 63.74 603.241 63.241Z" fill="white"/>
<path d="M626.305 86.3054C626.747 85.864 626.747 85.1482 626.305 84.7067C625.864 84.2653 625.148 84.2653 624.707 84.7067C624.265 85.1482 624.265 85.864 624.707 86.3054C625.148 86.7469 625.864 86.7469 626.305 86.3054Z" fill="white"/>
<path d="M649.358 109.358C649.736 108.981 649.736 108.369 649.358 107.991C648.981 107.614 648.369 107.614 647.991 107.991C647.614 108.369 647.614 108.981 647.991 109.358C648.369 109.736 648.981 109.736 649.358 109.358Z" fill="white"/>
<path d="M672.423 132.423C672.743 132.103 672.743 131.584 672.423 131.264C672.103 130.944 671.584 130.944 671.264 131.264C670.944 131.584 670.944 132.103 671.264 132.423C671.584 132.743 672.103 132.743 672.423 132.423Z" fill="white"/>
<path d="M463.881 -122.456C464.188 -122.763 464.188 -123.261 463.881 -123.568C463.574 -123.875 463.076 -123.875 462.769 -123.568C462.462 -123.261 462.462 -122.763 462.769 -122.456C463.076 -122.149 463.574 -122.149 463.881 -122.456Z" fill="white"/>
<path d="M487.143 -99.1948C487.501 -99.553 487.501 -100.134 487.143 -100.492C486.784 -100.85 486.203 -100.85 485.845 -100.492C485.487 -100.134 485.487 -99.553 485.845 -99.1948C486.203 -98.8365 486.784 -98.8365 487.143 -99.1948Z" fill="white"/>
<path d="M510.404 -75.9334C510.813 -76.3428 510.813 -77.0067 510.404 -77.4162C509.995 -77.8256 509.331 -77.8256 508.921 -77.4162C508.512 -77.0067 508.512 -76.3428 508.921 -75.9334C509.331 -75.5239 509.995 -75.5239 510.404 -75.9334Z" fill="white"/>
<path d="M533.665 -52.672C534.126 -53.1327 534.126 -53.8795 533.665 -54.3402C533.205 -54.8008 532.458 -54.8008 531.997 -54.3402C531.537 -53.8795 531.537 -53.1327 531.997 -52.672C532.458 -52.2114 533.205 -52.2114 533.665 -52.672Z" fill="white"/>
<path d="M556.927 -29.4106C557.439 -29.9225 557.439 -30.7523 556.927 -31.2641C556.415 -31.776 555.585 -31.776 555.073 -31.2641C554.561 -30.7523 554.561 -29.9225 555.073 -29.4106C555.585 -28.8988 556.415 -28.8988 556.927 -29.4106Z" fill="white"/>
<path d="M580.188 -6.14928C580.751 -6.71228 580.751 -7.62512 580.188 -8.18813C579.625 -8.75114 578.712 -8.75113 578.149 -8.18811C577.586 -7.62511 577.586 -6.71228 578.149 -6.14928C578.712 -5.58626 579.625 -5.58626 580.188 -6.14928Z" fill="white"/>
<path d="M603.264 16.9268C603.776 16.4149 603.776 15.5851 603.264 15.0732C602.752 14.5614 601.922 14.5614 601.411 15.0732C600.899 15.5851 600.899 16.4149 601.411 16.9268C601.922 17.4386 602.752 17.4386 603.264 16.9268Z" fill="white"/>
<path d="M626.34 40.0028C626.801 39.5421 626.801 38.7953 626.34 38.3346C625.88 37.874 625.133 37.874 624.672 38.3346C624.211 38.7953 624.211 39.5421 624.672 40.0028C625.133 40.4634 625.88 40.4634 626.34 40.0028Z" fill="white"/>
<path d="M649.416 63.0788C649.826 62.6693 649.826 62.0054 649.416 61.596C649.007 61.1865 648.343 61.1865 647.933 61.596C647.524 62.0054 647.524 62.6693 647.933 63.0788C648.343 63.4883 649.007 63.4883 649.416 63.0788Z" fill="white"/>
<path d="M672.492 86.1548C672.85 85.7965 672.85 85.2156 672.492 84.8574C672.134 84.4991 671.553 84.4991 671.195 84.8574C670.836 85.2156 670.836 85.7965 671.195 86.1548C671.553 86.5131 672.134 86.5131 672.492 86.1548Z" fill="white"/>
<path d="M695.568 109.231C695.875 108.924 695.875 108.426 695.568 108.119C695.261 107.812 694.763 107.812 694.456 108.119C694.149 108.426 694.149 108.924 694.456 109.231C694.763 109.538 695.261 109.538 695.568 109.231Z" fill="white"/>
<path d="M487.027 -145.648C487.321 -145.942 487.321 -146.419 487.027 -146.714C486.732 -147.008 486.255 -147.008 485.961 -146.714C485.667 -146.419 485.667 -145.942 485.961 -145.648C486.255 -145.354 486.732 -145.354 487.027 -145.648Z" fill="white"/>
<path d="M510.277 -122.398C510.616 -122.737 510.616 -123.287 510.277 -123.626C509.937 -123.965 509.388 -123.965 509.049 -123.626C508.71 -123.287 508.71 -122.737 509.049 -122.398C509.388 -122.059 509.937 -122.059 510.277 -122.398Z" fill="white"/>
<path d="M533.515 -99.16C533.892 -99.5375 533.892 -100.149 533.515 -100.527C533.137 -100.904 532.525 -100.904 532.148 -100.527C531.77 -100.149 531.77 -99.5375 532.148 -99.16C532.525 -98.7825 533.137 -98.7825 533.515 -99.16Z" fill="white"/>
<path d="M556.765 -75.9102C557.187 -76.3325 557.187 -77.0171 556.765 -77.4394C556.342 -77.8616 555.658 -77.8616 555.235 -77.4394C554.813 -77.0171 554.813 -76.3325 555.235 -75.9102C555.658 -75.4879 556.342 -75.4879 556.765 -75.9102Z" fill="white"/>
<path d="M580.003 -52.672C580.463 -53.1327 580.463 -53.8795 580.003 -54.3402C579.542 -54.8008 578.795 -54.8008 578.335 -54.3402C577.874 -53.8795 577.874 -53.1327 578.335 -52.672C578.795 -52.2114 579.542 -52.2114 580.003 -52.672Z" fill="white"/>
<path d="M603.241 -29.4338C603.74 -29.9329 603.74 -30.7419 603.241 -31.241C602.742 -31.74 601.933 -31.74 601.434 -31.241C600.935 -30.7419 600.935 -29.9329 601.434 -29.4338C601.933 -28.9348 602.742 -28.9348 603.241 -29.4338Z" fill="white"/>
<path d="M626.34 -6.33463C626.801 -6.79527 626.801 -7.54213 626.34 -8.00276C625.88 -8.46341 625.133 -8.46341 624.672 -8.00276C624.211 -7.54213 624.211 -6.79527 624.672 -6.33463C625.133 -5.87398 625.88 -5.87398 626.34 -6.33463Z" fill="white"/>
<path d="M649.439 16.7646C649.862 16.3423 649.862 15.6577 649.439 15.2354C649.017 14.8132 648.332 14.8132 647.91 15.2354C647.488 15.6577 647.488 16.3423 647.91 16.7646C648.332 17.1868 649.017 17.1868 649.439 16.7646Z" fill="white"/>
<path d="M672.527 39.8522C672.904 39.4747 672.904 38.8627 672.527 38.4852C672.149 38.1077 671.537 38.1077 671.16 38.4852C670.783 38.8627 670.783 39.4747 671.16 39.8522C671.537 40.2296 672.149 40.2296 672.527 39.8522Z" fill="white"/>
<path d="M695.626 62.9513C695.965 62.6123 695.965 62.0625 695.626 61.7234C695.287 61.3843 694.737 61.3843 694.398 61.7234C694.059 62.0625 694.059 62.6123 694.398 62.9513C694.737 63.2904 695.287 63.2904 695.626 62.9513Z" fill="white"/>
<path d="M718.714 86.039C719.008 85.7447 719.008 85.2675 718.714 84.9732C718.419 84.6789 717.942 84.6789 717.648 84.9732C717.354 85.2675 717.354 85.7447 717.648 86.039C717.942 86.3333 718.419 86.3333 718.714 86.039Z" fill="white"/>
<path d="M533.411 -145.602C533.73 -145.922 533.73 -146.44 533.411 -146.76C533.091 -147.08 532.572 -147.08 532.252 -146.76C531.932 -146.44 531.932 -145.922 532.252 -145.602C532.572 -145.282 533.091 -145.282 533.411 -145.602Z" fill="white"/>
<path d="M556.626 -122.387C556.971 -122.732 556.971 -123.292 556.626 -123.638C556.28 -123.983 555.72 -123.983 555.374 -123.638C555.029 -123.292 555.029 -122.732 555.374 -122.387C555.72 -122.041 556.28 -122.041 556.626 -122.387Z" fill="white"/>
<path d="M579.852 -99.16C580.23 -99.5375 580.23 -100.149 579.852 -100.527C579.475 -100.904 578.863 -100.904 578.485 -100.527C578.108 -100.149 578.108 -99.5375 578.485 -99.16C578.863 -98.7825 579.475 -98.7825 579.852 -99.16Z" fill="white"/>
<path d="M603.079 -75.9334C603.488 -76.3428 603.488 -77.0067 603.079 -77.4162C602.669 -77.8256 602.005 -77.8256 601.596 -77.4162C601.187 -77.0067 601.187 -76.3428 601.596 -75.9334C602.005 -75.5239 602.669 -75.5239 603.079 -75.9334Z" fill="white"/>
<path d="M626.305 -52.7068C626.747 -53.1482 626.747 -53.864 626.305 -54.3054C625.864 -54.7469 625.148 -54.7469 624.707 -54.3054C624.265 -53.864 624.265 -53.1482 624.707 -52.7068C625.148 -52.2653 625.864 -52.2653 626.305 -52.7068Z" fill="white"/>
<path d="M649.416 -29.596C649.826 -30.0055 649.826 -30.6693 649.416 -31.0788C649.007 -31.4883 648.343 -31.4883 647.933 -31.0788C647.524 -30.6693 647.524 -30.0055 647.933 -29.596C648.343 -29.1865 649.007 -29.1865 649.416 -29.596Z" fill="white"/>
<path d="M672.527 -6.48523C672.904 -6.8627 672.904 -7.4747 672.527 -7.85217C672.149 -8.22964 671.537 -8.22964 671.16 -7.85217C670.783 -7.4747 670.783 -6.8627 671.16 -6.48523C671.537 -6.10774 672.149 -6.10774 672.527 -6.48523Z" fill="white"/>
<path d="M695.638 16.6255C695.983 16.28 695.983 15.7199 695.638 15.3745C695.292 15.029 694.732 15.029 694.387 15.3745C694.041 15.7199 694.041 16.28 694.387 16.6255C694.732 16.971 695.292 16.971 695.638 16.6255Z" fill="white"/>
<path d="M718.76 39.7479C719.08 39.428 719.08 38.9094 718.76 38.5895C718.44 38.2696 717.922 38.2696 717.602 38.5895C717.282 38.9094 717.282 39.428 717.602 39.7479C717.922 40.0678 718.44 40.0678 718.76 39.7479Z" fill="white"/>
<path d="M579.748 -145.602C580.068 -145.922 580.068 -146.44 579.748 -146.76C579.428 -147.08 578.909 -147.08 578.589 -146.76C578.27 -146.44 578.27 -145.922 578.589 -145.602C578.909 -145.282 579.428 -145.282 579.748 -145.602Z" fill="white"/>
<path d="M602.951 -122.398C603.29 -122.737 603.29 -123.287 602.951 -123.626C602.612 -123.965 602.062 -123.965 601.723 -123.626C601.384 -123.287 601.384 -122.737 601.723 -122.398C602.062 -122.059 602.612 -122.059 602.951 -122.398Z" fill="white"/>
<path d="M626.155 -99.1948C626.513 -99.553 626.513 -100.134 626.155 -100.492C625.797 -100.85 625.216 -100.85 624.857 -100.492C624.499 -100.134 624.499 -99.553 624.857 -99.1948C625.216 -98.8365 625.797 -98.8365 626.155 -99.1948Z" fill="white"/>
<path d="M649.358 -75.9913C649.736 -76.3688 649.736 -76.9808 649.358 -77.3583C648.981 -77.7357 648.369 -77.7357 647.991 -77.3583C647.614 -76.9808 647.614 -76.3688 647.991 -75.9913C648.369 -75.6138 648.981 -75.6138 649.358 -75.9913Z" fill="white"/>
<path d="M672.492 -52.8574C672.85 -53.2156 672.85 -53.7965 672.492 -54.1548C672.134 -54.5131 671.553 -54.5131 671.195 -54.1548C670.836 -53.7965 670.836 -53.2156 671.195 -52.8574C671.553 -52.4991 672.134 -52.4991 672.492 -52.8574Z" fill="white"/>
<path d="M695.626 -29.7234C695.965 -30.0625 695.965 -30.6123 695.626 -30.9514C695.287 -31.2905 694.737 -31.2905 694.398 -30.9514C694.059 -30.6123 694.059 -30.0625 694.398 -29.7234C694.737 -29.3843 695.287 -29.3843 695.626 -29.7234Z" fill="white"/>
<path d="M718.76 -6.58948C719.08 -6.90938 719.08 -7.42802 718.76 -7.74791C718.44 -8.06781 717.922 -8.06781 717.602 -7.74791C717.282 -7.42802 717.282 -6.90938 717.602 -6.58948C717.922 -6.26959 718.44 -6.26959 718.76 -6.58948Z" fill="white"/>
<path d="M626.039 -145.648C626.333 -145.942 626.333 -146.419 626.039 -146.714C625.745 -147.008 625.268 -147.008 624.973 -146.714C624.679 -146.419 624.679 -145.942 624.973 -145.648C625.267 -145.354 625.745 -145.354 626.039 -145.648Z" fill="white"/>
<path d="M649.231 -122.456C649.538 -122.763 649.538 -123.261 649.231 -123.568C648.924 -123.875 648.426 -123.875 648.119 -123.568C647.812 -123.261 647.812 -122.763 648.119 -122.456C648.426 -122.149 648.924 -122.149 649.231 -122.456Z" fill="white"/>
<path d="M672.423 -99.2643C672.743 -99.5841 672.743 -100.103 672.423 -100.423C672.103 -100.743 671.584 -100.743 671.264 -100.423C670.944 -100.103 670.944 -99.5841 671.264 -99.2643C671.584 -98.9444 672.103 -98.9444 672.423 -99.2643Z" fill="white"/>
<path d="M695.568 -76.1187C695.875 -76.4258 695.875 -76.9237 695.568 -77.2308C695.261 -77.5379 694.763 -77.5379 694.456 -77.2308C694.149 -76.9237 694.149 -76.4258 694.456 -76.1187C694.763 -75.8116 695.261 -75.8116 695.568 -76.1187Z" fill="white"/>
<path d="M718.714 -52.9732C719.008 -53.2675 719.008 -53.7447 718.714 -54.039C718.419 -54.3333 717.942 -54.3333 717.648 -54.039C717.354 -53.7447 717.354 -53.2675 717.648 -52.9732C717.942 -52.6789 718.419 -52.6789 718.714 -52.9732Z" fill="white"/>
<g filter="url(#filter3_f_1_365)">
<circle cx="556" cy="228" r="119" fill="#FFB800" fill-opacity="0.76"/>
</g>
</g>
<defs>
<filter id="filter0_d_1_365" x="400.189" y="-62.2173" width="279.538" height="275.032" filterUnits="userSpaceOnUse" color-interpolation-filters="sRGB">
<feFlood flood-opacity="0" result="BackgroundImageFix"/>
<feColorMatrix in="SourceAlpha" type="matrix" values="0 0 0 0 0 0 0 0 0 0 0 0 0 0 0 0 0 0 127 0" result="hardAlpha"/>
<feOffset dy="20"/>
<feGaussianBlur stdDeviation="20.5"/>
<feComposite in2="hardAlpha" operator="out"/>
<feColorMatrix type="matrix" values="0 0 0 0 0 0 0 0 0 0 0 0 0 0 0 0 0 0 0.16 0"/>
<feBlend mode="normal" in2="BackgroundImageFix" result="effect1_dropShadow_1_365"/>
<feBlend mode="normal" in="SourceGraphic" in2="effect1_dropShadow_1_365" result="shape"/>
</filter>
<filter id="filter1_d_1_365" x="274.409" y="35.5691" width="170.212" height="168.021" filterUnits="userSpaceOnUse" color-interpolation-filters="sRGB">
<feFlood flood-opacity="0" result="BackgroundImageFix"/>
<feColorMatrix in="SourceAlpha" type="matrix" values="0 0 0 0 0 0 0 0 0 0 0 0 0 0 0 0 0 0 127 0" result="hardAlpha"/>
<feOffset dy="20"/>
<feGaussianBlur stdDeviation="20.5"/>
<feComposite in2="hardAlpha" operator="out"/>
<feColorMatrix type="matrix" values="0 0 0 0 0 0 0 0 0 0 0 0 0 0 0 0 0 0 0.16 0"/>
<feBlend mode="normal" in2="BackgroundImageFix" result="effect1_dropShadow_1_365"/>
<feBlend mode="normal" in="SourceGraphic" in2="effect1_dropShadow_1_365" result="shape"/>
</filter>
<filter id="filter2_d_1_365" x="484.19" y="254.202" width="196.418" height="181.208" filterUnits="userSpaceOnUse" color-interpolation-filters="sRGB">
<feFlood flood-opacity="0" result="BackgroundImageFix"/>
<feColorMatrix in="SourceAlpha" type="matrix" values="0 0 0 0 0 0 0 0 0 0 0 0 0 0 0 0 0 0 127 0" result="hardAlpha"/>
<feOffset dy="20"/>
<feGaussianBlur stdDeviation="20.5"/>
<feComposite in2="hardAlpha" operator="out"/>
<feColorMatrix type="matrix" values="0 0 0 0 0 0 0 0 0 0 0 0 0 0 0 0 0 0 0.16 0"/>
<feBlend mode="normal" in2="BackgroundImageFix" result="effect1_dropShadow_1_365"/>
<feBlend mode="normal" in="SourceGraphic" in2="effect1_dropShadow_1_365" result="shape"/>
</filter>
<filter id="filter3_f_1_365" x="237" y="-91" width="638" height="638" filterUnits="userSpaceOnUse" color-interpolation-filters="sRGB">
<feFlood flood-opacity="0" result="BackgroundImageFix"/>
<feBlend mode="normal" in="SourceGraphic" in2="BackgroundImageFix" result="shape"/>
<feGaussianBlur stdDeviation="100" result="effect1_foregroundBlur_1_365"/>
</filter>
<linearGradient id="paint0_linear_1_365" x1="335" y1="0" x2="335" y2="340" gradientUnits="userSpaceOnUse">
<stop stop-color="#03A65B"/>
<stop offset="1" stop-color="#35EF99"/>
</linearGradient>
<linearGradient id="paint1_linear_1_365" x1="237.267" y1="314.413" x2="717.248" y2="249.647" gradientUnits="userSpaceOnUse">
<stop stop-color="#0DCA74"/>
<stop offset="1" stop-color="#10C170"/>
</linearGradient>
</defs>
</svg>
