<svg width="1920" height="1047" viewBox="0 0 1920 1047" fill="none" xmlns="http://www.w3.org/2000/svg">
<rect y="-7" width="1920" height="824" fill="url(#paint0_linear_1_4)"/>
<mask id="mask0_1_4" style="mask-type:alpha" maskUnits="userSpaceOnUse" x="0" y="-7" width="1920" height="824">
<rect y="-7" width="1920" height="824" fill="url(#paint1_linear_1_4)"/>
</mask>
<g mask="url(#mask0_1_4)">
<g filter="url(#filter0_d_1_4)">
<path fill-rule="evenodd" clip-rule="evenodd" d="M1665.83 692.227C1617.86 650.176 1547.98 681.312 1484.21 682.621C1425.51 683.826 1355.75 654.717 1317.64 699.375C1279.31 744.295 1311.38 810.434 1326.4 867.558C1340.07 919.58 1351.06 976.395 1397.56 1003.43C1446.95 1032.14 1506.28 1021.76 1560.43 1003.62C1626.24 981.569 1702.75 959.461 1725 893.72C1748.61 823.969 1721.21 740.778 1665.83 692.227Z" fill="#0FED87"/>
</g>
<g filter="url(#filter1_d_1_4)">
<path fill-rule="evenodd" clip-rule="evenodd" d="M-85.6804 787.437C-66.5537 826.424 -14.5608 825.167 25.8052 841.049C62.9634 855.668 99.1503 892.233 134.73 874.157C170.52 855.974 167.659 806.016 173.15 766.192C178.151 729.923 186.087 691.346 163.959 662.179C140.458 631.202 100.51 622.181 61.7803 619.395C14.7183 616.01 -39.0792 609.857 -70.2115 645.335C-103.242 682.976 -107.764 742.424 -85.6804 787.437Z" fill="#1AD780"/>
</g>
</g>
<g filter="url(#filter2_d_1_4)">
<path fill-rule="evenodd" clip-rule="evenodd" d="M1805.47 -103.019C1733.98 -89.0845 1713.27 -4.22363 1669.9 54.2744C1629.98 108.124 1554.95 150.784 1568.65 216.399C1582.43 282.4 1664.57 299.649 1726.64 326.002C1783.17 350.001 1842.16 379.772 1899.06 356.667C1959.49 332.131 1991.57 271.305 2013.03 209.723C2039.09 134.891 2072.59 50.3505 2028.77 -15.6762C1982.27 -85.7296 1888 -119.107 1805.47 -103.019Z" fill="#04BE69"/>
</g>
<g filter="url(#filter3_d_1_4)">
<path fill-rule="evenodd" clip-rule="evenodd" d="M1964.52 328.309C1946.6 298.615 1905.22 303.237 1871.94 293.41C1841.31 284.363 1809.94 257.786 1782.8 274.649C1755.51 291.612 1761.21 331.17 1759.55 363.246C1758.05 392.457 1754.36 423.71 1774 445.381C1794.86 468.395 1827.34 472.792 1858.42 472.311C1896.19 471.727 1939.51 472.876 1961.91 442.474C1985.68 410.218 1985.22 362.593 1964.52 328.309Z" fill="#07C870"/>
</g>
<path fill-rule="evenodd" clip-rule="evenodd" d="M550.534 232.981C622.021 246.915 642.729 331.776 686.1 390.274C726.024 444.124 801.053 486.784 787.351 552.399C773.569 618.4 691.434 635.649 629.359 662.002C572.827 686.001 513.841 715.772 456.938 692.667C396.506 668.131 364.425 607.305 342.973 545.723C316.905 470.892 283.411 386.351 327.232 320.324C373.725 250.27 467.996 216.893 550.534 232.981Z" fill="url(#paint2_linear_1_4)"/>
<g filter="url(#filter4_f_1_4)">
<ellipse cx="716.001" cy="422" rx="119" ry="119" fill="#FFB800" fill-opacity="0.76"/>
</g>
<g filter="url(#filter5_d_1_4)">
<path fill-rule="evenodd" clip-rule="evenodd" d="M665.716 262.6C686.617 298.832 712.833 342.344 692.407 378.847C672.209 414.943 620.891 407.648 580.249 415.339C540.167 422.924 492.202 451.64 464.124 422.049C436.2 392.621 472.266 347.376 477.601 307.161C481.75 275.887 468.593 240.275 491.161 218.231C516.073 193.899 554.79 190.224 588.54 198.802C622.574 207.453 648.168 232.183 665.716 262.6Z" fill="#05C66E"/>
</g>
<g filter="url(#filter6_d_1_4)">
<path fill-rule="evenodd" clip-rule="evenodd" d="M265.745 368.603C265.728 350.599 265.293 328.738 280.751 319.507C296.037 310.38 313.614 324.121 330.426 329.979C347.007 335.757 371.066 335.345 375.186 352.413C379.283 369.387 356.113 378.52 345.487 392.376C337.224 403.152 334.485 419.261 321.332 422.638C306.814 426.365 291.582 419.422 280.834 408.975C269.996 398.439 265.759 383.718 265.745 368.603Z" fill="#05C66E"/>
</g>
<g filter="url(#filter7_d_1_4)">
<path fill-rule="evenodd" clip-rule="evenodd" d="M640.555 675.693C629.159 661.618 614.833 644.864 627.24 625.094C639.51 605.543 668.932 602.029 692.472 592.966C715.687 584.029 743.816 564.177 759.462 574.189C775.021 584.146 753.452 610.101 749.669 629.568C746.727 644.708 753.674 659.538 740.288 672.856C725.512 687.557 703.152 694.488 683.869 695.037C664.423 695.59 650.122 687.509 640.555 675.693Z" fill="#07D175"/>
</g>
<path d="M1331.35 728.039C1331.65 727.745 1331.65 727.268 1331.35 726.973C1331.06 726.679 1330.58 726.679 1330.29 726.973C1329.99 727.268 1329.99 727.745 1330.29 728.039C1330.58 728.333 1331.06 728.333 1331.35 728.039Z" fill="white"/>
<path d="M1354.54 751.231C1354.85 750.924 1354.85 750.426 1354.54 750.119C1354.24 749.812 1353.74 749.812 1353.43 750.119C1353.12 750.426 1353.12 750.924 1353.43 751.231C1353.74 751.538 1354.24 751.538 1354.54 751.231Z" fill="white"/>
<path d="M1377.74 774.423C1378.06 774.103 1378.06 773.584 1377.74 773.264C1377.42 772.944 1376.9 772.944 1376.58 773.264C1376.26 773.584 1376.26 774.103 1376.58 774.423C1376.9 774.743 1377.42 774.743 1377.74 774.423Z" fill="white"/>
<path d="M1400.88 797.568C1401.19 797.261 1401.19 796.763 1400.88 796.456C1400.57 796.149 1400.08 796.149 1399.77 796.456C1399.46 796.763 1399.46 797.261 1399.77 797.568C1400.08 797.875 1400.57 797.875 1400.88 797.568Z" fill="white"/>
<path d="M1424.03 820.714C1424.32 820.419 1424.32 819.942 1424.03 819.648C1423.73 819.354 1423.26 819.354 1422.96 819.648C1422.67 819.942 1422.67 820.419 1422.96 820.714C1423.26 821.008 1423.73 821.008 1424.03 820.714Z" fill="white"/>
<path d="M1331.4 681.748C1331.72 681.428 1331.72 680.909 1331.4 680.589C1331.08 680.27 1330.56 680.27 1330.24 680.589C1329.92 680.909 1329.92 681.428 1330.24 681.748C1330.56 682.068 1331.08 682.068 1331.4 681.748Z" fill="white"/>
<path d="M1354.6 704.951C1354.94 704.612 1354.94 704.063 1354.6 703.723C1354.26 703.384 1353.71 703.384 1353.37 703.723C1353.03 704.063 1353.03 704.612 1353.37 704.951C1353.71 705.29 1354.26 705.29 1354.6 704.951Z" fill="white"/>
<path d="M1377.81 728.155C1378.16 727.797 1378.16 727.216 1377.81 726.857C1377.45 726.499 1376.87 726.499 1376.51 726.857C1376.15 727.216 1376.15 727.797 1376.51 728.155C1376.87 728.513 1377.45 728.513 1377.81 728.155Z" fill="white"/>
<path d="M1401.01 751.358C1401.39 750.981 1401.39 750.369 1401.01 749.991C1400.63 749.614 1400.02 749.614 1399.64 749.991C1399.26 750.369 1399.26 750.981 1399.64 751.358C1400.02 751.736 1400.63 751.736 1401.01 751.358Z" fill="white"/>
<path d="M1424.14 774.492C1424.5 774.134 1424.5 773.553 1424.14 773.195C1423.78 772.836 1423.2 772.836 1422.85 773.195C1422.49 773.553 1422.49 774.134 1422.85 774.492C1423.2 774.85 1423.78 774.85 1424.14 774.492Z" fill="white"/>
<path d="M1447.28 797.626C1447.62 797.287 1447.62 796.737 1447.28 796.398C1446.94 796.059 1446.39 796.059 1446.05 796.398C1445.71 796.737 1445.71 797.287 1446.05 797.626C1446.39 797.965 1446.94 797.965 1447.28 797.626Z" fill="white"/>
<path d="M1470.41 820.76C1470.73 820.44 1470.73 819.922 1470.41 819.602C1470.09 819.282 1469.57 819.282 1469.25 819.602C1468.93 819.922 1468.93 820.44 1469.25 820.76C1469.57 821.08 1470.09 821.08 1470.41 820.76Z" fill="white"/>
<path d="M1331.4 635.411C1331.72 635.091 1331.72 634.572 1331.4 634.252C1331.08 633.932 1330.56 633.932 1330.24 634.252C1329.92 634.572 1329.92 635.091 1330.24 635.411C1330.56 635.73 1331.08 635.73 1331.4 635.411Z" fill="white"/>
<path d="M1354.61 658.626C1354.96 658.28 1354.96 657.72 1354.61 657.374C1354.27 657.029 1353.71 657.029 1353.36 657.374C1353.02 657.72 1353.02 658.28 1353.36 658.626C1353.71 658.971 1354.27 658.971 1354.61 658.626Z" fill="white"/>
<path d="M1377.84 681.852C1378.22 681.475 1378.22 680.863 1377.84 680.485C1377.46 680.108 1376.85 680.108 1376.47 680.485C1376.1 680.863 1376.1 681.475 1376.47 681.852C1376.85 682.23 1377.46 682.23 1377.84 681.852Z" fill="white"/>
<path d="M1401.07 705.079C1401.48 704.669 1401.48 704.005 1401.07 703.596C1400.66 703.187 1399.99 703.187 1399.58 703.596C1399.17 704.005 1399.17 704.669 1399.58 705.079C1399.99 705.488 1400.66 705.488 1401.07 705.079Z" fill="white"/>
<path d="M1424.29 728.305C1424.73 727.864 1424.73 727.148 1424.29 726.707C1423.85 726.265 1423.14 726.265 1422.69 726.707C1422.25 727.148 1422.25 727.864 1422.69 728.305C1423.14 728.747 1423.85 728.747 1424.29 728.305Z" fill="white"/>
<path d="M1447.4 751.416C1447.81 751.007 1447.81 750.343 1447.4 749.933C1446.99 749.524 1446.33 749.524 1445.92 749.933C1445.51 750.343 1445.51 751.007 1445.92 751.416C1446.33 751.826 1446.99 751.826 1447.4 751.416Z" fill="white"/>
<path d="M1470.51 774.527C1470.89 774.149 1470.89 773.537 1470.51 773.16C1470.14 772.783 1469.53 772.783 1469.15 773.16C1468.77 773.537 1468.77 774.149 1469.15 774.527C1469.53 774.904 1470.14 774.904 1470.51 774.527Z" fill="white"/>
<path d="M1493.63 797.638C1493.97 797.292 1493.97 796.732 1493.63 796.387C1493.28 796.041 1492.72 796.041 1492.37 796.387C1492.03 796.732 1492.03 797.292 1492.37 797.638C1492.72 797.983 1493.28 797.983 1493.63 797.638Z" fill="white"/>
<path d="M1516.75 820.76C1517.07 820.44 1517.07 819.922 1516.75 819.602C1516.43 819.282 1515.91 819.282 1515.59 819.602C1515.27 819.922 1515.27 820.44 1515.59 820.76C1515.91 821.08 1516.43 821.08 1516.75 820.76Z" fill="white"/>
<path d="M1331.35 589.027C1331.65 588.732 1331.65 588.255 1331.35 587.961C1331.06 587.667 1330.58 587.667 1330.29 587.961C1329.99 588.255 1329.99 588.732 1330.29 589.027C1330.58 589.321 1331.06 589.321 1331.35 589.027Z" fill="white"/>
<path d="M1354.6 612.277C1354.94 611.937 1354.94 611.388 1354.6 611.049C1354.26 610.71 1353.71 610.71 1353.37 611.049C1353.03 611.388 1353.03 611.937 1353.37 612.277C1353.71 612.616 1354.26 612.616 1354.6 612.277Z" fill="white"/>
<path d="M1377.84 635.515C1378.22 635.137 1378.22 634.525 1377.84 634.148C1377.46 633.77 1376.85 633.77 1376.47 634.148C1376.1 634.525 1376.1 635.137 1376.47 635.515C1376.85 635.892 1377.46 635.892 1377.84 635.515Z" fill="white"/>
<path d="M1401.09 658.765C1401.51 658.342 1401.51 657.658 1401.09 657.235C1400.67 656.813 1399.98 656.813 1399.56 657.235C1399.14 657.658 1399.14 658.342 1399.56 658.765C1399.98 659.187 1400.67 659.187 1401.09 658.765Z" fill="white"/>
<path d="M1424.33 682.003C1424.79 681.542 1424.79 680.795 1424.33 680.335C1423.87 679.874 1423.12 679.874 1422.66 680.335C1422.2 680.795 1422.2 681.542 1422.66 682.003C1423.12 682.463 1423.87 682.463 1424.33 682.003Z" fill="white"/>
<path d="M1447.57 705.241C1448.07 704.742 1448.07 703.933 1447.57 703.434C1447.07 702.935 1446.26 702.935 1445.76 703.434C1445.26 703.933 1445.26 704.742 1445.76 705.241C1446.26 705.74 1447.07 705.74 1447.57 705.241Z" fill="white"/>
<path d="M1470.67 728.34C1471.13 727.88 1471.13 727.133 1470.67 726.672C1470.2 726.211 1469.46 726.211 1469 726.672C1468.54 727.133 1468.54 727.88 1469 728.34C1469.46 728.801 1470.2 728.801 1470.67 728.34Z" fill="white"/>
<path d="M1493.76 751.439C1494.19 751.017 1494.19 750.332 1493.76 749.91C1493.34 749.488 1492.66 749.488 1492.24 749.91C1491.81 750.332 1491.81 751.017 1492.24 751.439C1492.66 751.862 1493.34 751.862 1493.76 751.439Z" fill="white"/>
<path d="M1516.85 774.527C1517.23 774.149 1517.23 773.537 1516.85 773.16C1516.47 772.783 1515.86 772.783 1515.49 773.16C1515.11 773.537 1515.11 774.149 1515.49 774.527C1515.86 774.904 1516.47 774.904 1516.85 774.527Z" fill="white"/>
<path d="M1539.95 797.626C1540.29 797.287 1540.29 796.737 1539.95 796.398C1539.61 796.059 1539.06 796.059 1538.72 796.398C1538.38 796.737 1538.38 797.287 1538.72 797.626C1539.06 797.965 1539.61 797.965 1539.95 797.626Z" fill="white"/>
<path d="M1563.04 820.714C1563.33 820.419 1563.33 819.942 1563.04 819.648C1562.74 819.354 1562.27 819.354 1561.97 819.648C1561.68 819.942 1561.68 820.419 1561.97 820.714C1562.27 821.008 1562.74 821.008 1563.04 820.714Z" fill="white"/>
<path d="M1354.54 565.881C1354.85 565.574 1354.85 565.076 1354.54 564.769C1354.24 564.462 1353.74 564.462 1353.43 564.769C1353.12 565.076 1353.12 565.574 1353.43 565.881C1353.74 566.188 1354.24 566.188 1354.54 565.881Z" fill="white"/>
<path d="M1377.81 589.143C1378.16 588.784 1378.16 588.203 1377.81 587.845C1377.45 587.487 1376.87 587.487 1376.51 587.845C1376.15 588.203 1376.15 588.784 1376.51 589.143C1376.87 589.501 1377.45 589.501 1377.81 589.143Z" fill="white"/>
<path d="M1401.07 612.404C1401.48 611.995 1401.48 611.331 1401.07 610.921C1400.66 610.512 1399.99 610.512 1399.58 610.921C1399.17 611.331 1399.17 611.995 1399.58 612.404C1399.99 612.813 1400.66 612.813 1401.07 612.404Z" fill="white"/>
<path d="M1424.33 635.665C1424.79 635.205 1424.79 634.458 1424.33 633.997C1423.87 633.537 1423.12 633.537 1422.66 633.997C1422.2 634.458 1422.2 635.205 1422.66 635.665C1423.12 636.126 1423.87 636.126 1424.33 635.665Z" fill="white"/>
<path d="M1447.59 658.927C1448.1 658.415 1448.1 657.585 1447.59 657.073C1447.08 656.561 1446.25 656.561 1445.74 657.073C1445.22 657.585 1445.22 658.415 1445.74 658.927C1446.25 659.439 1447.08 659.439 1447.59 658.927Z" fill="white"/>
<path d="M1470.85 682.188C1471.41 681.625 1471.41 680.712 1470.85 680.149C1470.29 679.586 1469.38 679.586 1468.81 680.149C1468.25 680.712 1468.25 681.625 1468.81 682.188C1469.38 682.751 1470.29 682.751 1470.85 682.188Z" fill="white"/>
<path d="M1493.93 705.264C1494.44 704.752 1494.44 703.922 1493.93 703.411C1493.42 702.899 1492.59 702.899 1492.07 703.411C1491.56 703.922 1491.56 704.752 1492.07 705.264C1492.59 705.776 1493.42 705.776 1493.93 705.264Z" fill="white"/>
<path d="M1517 728.34C1517.46 727.88 1517.46 727.133 1517 726.672C1516.54 726.211 1515.8 726.211 1515.33 726.672C1514.87 727.133 1514.87 727.88 1515.33 728.34C1515.8 728.801 1516.54 728.801 1517 728.34Z" fill="white"/>
<path d="M1540.08 751.416C1540.49 751.007 1540.49 750.343 1540.08 749.933C1539.67 749.524 1539.01 749.524 1538.6 749.933C1538.19 750.343 1538.19 751.007 1538.6 751.416C1539.01 751.826 1539.67 751.826 1540.08 751.416Z" fill="white"/>
<path d="M1563.15 774.492C1563.51 774.134 1563.51 773.553 1563.15 773.195C1562.8 772.836 1562.22 772.836 1561.86 773.195C1561.5 773.553 1561.5 774.134 1561.86 774.492C1562.22 774.85 1562.8 774.85 1563.15 774.492Z" fill="white"/>
<path d="M1586.23 797.568C1586.54 797.261 1586.54 796.763 1586.23 796.456C1585.92 796.149 1585.43 796.149 1585.12 796.456C1584.81 796.763 1584.81 797.261 1585.12 797.568C1585.43 797.875 1585.92 797.875 1586.23 797.568Z" fill="white"/>
<path d="M1377.74 542.736C1378.06 542.416 1378.06 541.897 1377.74 541.577C1377.42 541.257 1376.9 541.257 1376.58 541.577C1376.26 541.897 1376.26 542.416 1376.58 542.736C1376.9 543.056 1377.42 543.056 1377.74 542.736Z" fill="white"/>
<path d="M1401.01 566.009C1401.39 565.631 1401.39 565.019 1401.01 564.642C1400.63 564.264 1400.02 564.264 1399.64 564.642C1399.26 565.019 1399.26 565.631 1399.64 566.009C1400.02 566.386 1400.63 566.386 1401.01 566.009Z" fill="white"/>
<path d="M1424.29 589.293C1424.73 588.852 1424.73 588.136 1424.29 587.695C1423.85 587.253 1423.14 587.253 1422.69 587.695C1422.25 588.136 1422.25 588.852 1422.69 589.293C1423.14 589.735 1423.85 589.735 1424.29 589.293Z" fill="white"/>
<path d="M1447.57 612.566C1448.07 612.067 1448.07 611.258 1447.57 610.759C1447.07 610.26 1446.26 610.26 1445.76 610.759C1445.26 611.258 1445.26 612.067 1445.76 612.566C1446.26 613.065 1447.07 613.065 1447.57 612.566Z" fill="white"/>
<path d="M1470.85 635.851C1471.41 635.288 1471.41 634.375 1470.85 633.812C1470.29 633.249 1469.38 633.249 1468.81 633.812C1468.25 634.375 1468.25 635.288 1468.81 635.851C1469.38 636.414 1470.29 636.414 1470.85 635.851Z" fill="white"/>
<path d="M1494.14 659.135C1494.76 658.508 1494.76 657.492 1494.14 656.865C1493.51 656.238 1492.49 656.238 1491.86 656.865C1491.24 657.492 1491.24 658.508 1491.86 659.135C1492.49 659.762 1493.51 659.762 1494.14 659.135Z" fill="white"/>
<path d="M1517.19 682.188C1517.75 681.625 1517.75 680.712 1517.19 680.149C1516.63 679.586 1515.71 679.586 1515.15 680.149C1514.59 680.712 1514.59 681.625 1515.15 682.188C1515.71 682.751 1516.63 682.751 1517.19 682.188Z" fill="white"/>
<path d="M1540.24 705.241C1540.74 704.742 1540.74 703.933 1540.24 703.434C1539.74 702.935 1538.93 702.935 1538.43 703.434C1537.93 703.933 1537.93 704.742 1538.43 705.241C1538.93 705.74 1539.74 705.74 1540.24 705.241Z" fill="white"/>
<path d="M1563.31 728.305C1563.75 727.864 1563.75 727.148 1563.31 726.707C1562.86 726.265 1562.15 726.265 1561.71 726.707C1561.27 727.148 1561.27 727.864 1561.71 728.305C1562.15 728.747 1562.86 728.747 1563.31 728.305Z" fill="white"/>
<path d="M1586.36 751.358C1586.74 750.981 1586.74 750.369 1586.36 749.991C1585.98 749.614 1585.37 749.614 1584.99 749.991C1584.61 750.369 1584.61 750.981 1584.99 751.358C1585.37 751.736 1585.98 751.736 1586.36 751.358Z" fill="white"/>
<path d="M1609.42 774.423C1609.74 774.103 1609.74 773.584 1609.42 773.264C1609.1 772.944 1608.58 772.944 1608.26 773.264C1607.94 773.584 1607.94 774.103 1608.26 774.423C1608.58 774.743 1609.1 774.743 1609.42 774.423Z" fill="white"/>
<path d="M1400.88 519.544C1401.19 519.237 1401.19 518.739 1400.88 518.432C1400.57 518.125 1400.08 518.125 1399.77 518.432C1399.46 518.739 1399.46 519.237 1399.77 519.544C1400.08 519.851 1400.57 519.851 1400.88 519.544Z" fill="white"/>
<path d="M1424.14 542.805C1424.5 542.447 1424.5 541.866 1424.14 541.508C1423.78 541.15 1423.2 541.15 1422.85 541.508C1422.49 541.866 1422.49 542.447 1422.85 542.805C1423.2 543.164 1423.78 543.164 1424.14 542.805Z" fill="white"/>
<path d="M1447.4 566.067C1447.81 565.657 1447.81 564.993 1447.4 564.584C1446.99 564.174 1446.33 564.174 1445.92 564.584C1445.51 564.993 1445.51 565.657 1445.92 566.067C1446.33 566.476 1446.99 566.476 1447.4 566.067Z" fill="white"/>
<path d="M1470.67 589.328C1471.13 588.867 1471.13 588.12 1470.67 587.66C1470.2 587.199 1469.46 587.199 1469 587.66C1468.54 588.12 1468.54 588.867 1469 589.328C1469.46 589.789 1470.2 589.789 1470.67 589.328Z" fill="white"/>
<path d="M1493.93 612.589C1494.44 612.078 1494.44 611.248 1493.93 610.736C1493.42 610.224 1492.59 610.224 1492.07 610.736C1491.56 611.248 1491.56 612.078 1492.07 612.589C1492.59 613.101 1493.42 613.101 1493.93 612.589Z" fill="white"/>
<path d="M1517.19 635.851C1517.75 635.288 1517.75 634.375 1517.19 633.812C1516.63 633.249 1515.71 633.249 1515.15 633.812C1514.59 634.375 1514.59 635.288 1515.15 635.851C1515.71 636.414 1516.63 636.414 1517.19 635.851Z" fill="white"/>
<path d="M1540.26 658.927C1540.78 658.415 1540.78 657.585 1540.26 657.073C1539.75 656.561 1538.92 656.561 1538.41 657.073C1537.9 657.585 1537.9 658.415 1538.41 658.927C1538.92 659.439 1539.75 659.439 1540.26 658.927Z" fill="white"/>
<path d="M1563.34 682.003C1563.8 681.542 1563.8 680.795 1563.34 680.335C1562.88 679.874 1562.13 679.874 1561.67 680.335C1561.21 680.795 1561.21 681.542 1561.67 682.003C1562.13 682.463 1562.88 682.463 1563.34 682.003Z" fill="white"/>
<path d="M1586.42 705.079C1586.83 704.669 1586.83 704.005 1586.42 703.596C1586.01 703.187 1585.34 703.187 1584.93 703.596C1584.52 704.005 1584.52 704.669 1584.93 705.079C1585.34 705.488 1586.01 705.488 1586.42 705.079Z" fill="white"/>
<path d="M1609.49 728.155C1609.85 727.797 1609.85 727.216 1609.49 726.857C1609.13 726.499 1608.55 726.499 1608.19 726.857C1607.84 727.216 1607.84 727.797 1608.19 728.155C1608.55 728.513 1609.13 728.513 1609.49 728.155Z" fill="white"/>
<path d="M1632.57 751.231C1632.88 750.924 1632.88 750.426 1632.57 750.119C1632.26 749.812 1631.76 749.812 1631.46 750.119C1631.15 750.426 1631.15 750.924 1631.46 751.231C1631.76 751.538 1632.26 751.538 1632.57 751.231Z" fill="white"/>
<path d="M1424.03 496.352C1424.32 496.058 1424.32 495.581 1424.03 495.286C1423.73 494.992 1423.26 494.992 1422.96 495.286C1422.67 495.581 1422.67 496.058 1422.96 496.352C1423.26 496.646 1423.73 496.646 1424.03 496.352Z" fill="white"/>
<path d="M1447.28 519.602C1447.62 519.263 1447.62 518.713 1447.28 518.374C1446.94 518.035 1446.39 518.035 1446.05 518.374C1445.71 518.713 1445.71 519.263 1446.05 519.602C1446.39 519.941 1446.94 519.941 1447.28 519.602Z" fill="white"/>
<path d="M1470.51 542.84C1470.89 542.463 1470.89 541.851 1470.51 541.473C1470.14 541.096 1469.53 541.096 1469.15 541.473C1468.77 541.851 1468.77 542.463 1469.15 542.84C1469.53 543.217 1470.14 543.217 1470.51 542.84Z" fill="white"/>
<path d="M1493.76 566.09C1494.19 565.668 1494.19 564.983 1493.76 564.561C1493.34 564.138 1492.66 564.138 1492.24 564.561C1491.81 564.983 1491.81 565.668 1492.24 566.09C1492.66 566.512 1493.34 566.512 1493.76 566.09Z" fill="white"/>
<path d="M1517 589.328C1517.46 588.867 1517.46 588.12 1517 587.66C1516.54 587.199 1515.8 587.199 1515.33 587.66C1514.87 588.12 1514.87 588.867 1515.33 589.328C1515.8 589.789 1516.54 589.789 1517 589.328Z" fill="white"/>
<path d="M1540.24 612.566C1540.74 612.067 1540.74 611.258 1540.24 610.759C1539.74 610.26 1538.93 610.26 1538.43 610.759C1537.93 611.258 1537.93 612.067 1538.43 612.566C1538.93 613.065 1539.74 613.065 1540.24 612.566Z" fill="white"/>
<path d="M1563.34 635.665C1563.8 635.205 1563.8 634.458 1563.34 633.997C1562.88 633.537 1562.13 633.537 1561.67 633.997C1561.21 634.458 1561.21 635.205 1561.67 635.665C1562.13 636.126 1562.88 636.126 1563.34 635.665Z" fill="white"/>
<path d="M1586.44 658.765C1586.86 658.342 1586.86 657.658 1586.44 657.235C1586.02 656.813 1585.33 656.813 1584.91 657.235C1584.49 657.658 1584.49 658.342 1584.91 658.765C1585.33 659.187 1586.02 659.187 1586.44 658.765Z" fill="white"/>
<path d="M1609.53 681.852C1609.9 681.475 1609.9 680.863 1609.53 680.485C1609.15 680.108 1608.54 680.108 1608.16 680.485C1607.78 680.863 1607.78 681.475 1608.16 681.852C1608.54 682.23 1609.15 682.23 1609.53 681.852Z" fill="white"/>
<path d="M1632.63 704.951C1632.97 704.612 1632.97 704.063 1632.63 703.723C1632.29 703.384 1631.74 703.384 1631.4 703.723C1631.06 704.063 1631.06 704.612 1631.4 704.951C1631.74 705.29 1632.29 705.29 1632.63 704.951Z" fill="white"/>
<path d="M1655.71 728.039C1656.01 727.745 1656.01 727.267 1655.71 726.973C1655.42 726.679 1654.94 726.679 1654.65 726.973C1654.35 727.267 1654.35 727.745 1654.65 728.039C1654.94 728.333 1655.42 728.333 1655.71 728.039Z" fill="white"/>
<path d="M1470.41 496.398C1470.73 496.078 1470.73 495.56 1470.41 495.24C1470.09 494.92 1469.57 494.92 1469.25 495.24C1468.93 495.56 1468.93 496.078 1469.25 496.398C1469.57 496.718 1470.09 496.718 1470.41 496.398Z" fill="white"/>
<path d="M1493.63 519.613C1493.97 519.268 1493.97 518.708 1493.63 518.362C1493.28 518.017 1492.72 518.017 1492.37 518.362C1492.03 518.708 1492.03 519.268 1492.37 519.613C1492.72 519.959 1493.28 519.959 1493.63 519.613Z" fill="white"/>
<path d="M1516.85 542.84C1517.23 542.463 1517.23 541.851 1516.85 541.473C1516.47 541.096 1515.86 541.096 1515.49 541.473C1515.11 541.851 1515.11 542.463 1515.49 542.84C1515.86 543.217 1516.47 543.217 1516.85 542.84Z" fill="white"/>
<path d="M1540.08 566.067C1540.49 565.657 1540.49 564.993 1540.08 564.584C1539.67 564.174 1539.01 564.174 1538.6 564.584C1538.19 564.993 1538.19 565.657 1538.6 566.067C1539.01 566.476 1539.67 566.476 1540.08 566.067Z" fill="white"/>
<path d="M1563.31 589.293C1563.75 588.852 1563.75 588.136 1563.31 587.695C1562.86 587.253 1562.15 587.253 1561.71 587.695C1561.27 588.136 1561.27 588.852 1561.71 589.293C1562.15 589.735 1562.86 589.735 1563.31 589.293Z" fill="white"/>
<path d="M1586.42 612.404C1586.83 611.995 1586.83 611.331 1586.42 610.921C1586.01 610.512 1585.34 610.512 1584.93 610.921C1584.52 611.331 1584.52 611.995 1584.93 612.404C1585.34 612.813 1586.01 612.813 1586.42 612.404Z" fill="white"/>
<path d="M1609.53 635.515C1609.9 635.137 1609.9 634.525 1609.53 634.148C1609.15 633.77 1608.54 633.77 1608.16 634.148C1607.78 634.525 1607.78 635.137 1608.16 635.515C1608.54 635.892 1609.15 635.892 1609.53 635.515Z" fill="white"/>
<path d="M1632.64 658.626C1632.98 658.28 1632.98 657.72 1632.64 657.374C1632.29 657.029 1631.73 657.029 1631.39 657.374C1631.04 657.72 1631.04 658.28 1631.39 658.626C1631.73 658.971 1632.29 658.971 1632.64 658.626Z" fill="white"/>
<path d="M1655.76 681.748C1656.08 681.428 1656.08 680.909 1655.76 680.589C1655.44 680.27 1654.92 680.27 1654.6 680.589C1654.28 680.909 1654.28 681.428 1654.6 681.748C1654.92 682.068 1655.44 682.068 1655.76 681.748Z" fill="white"/>
<path d="M1516.75 496.398C1517.07 496.078 1517.07 495.56 1516.75 495.24C1516.43 494.92 1515.91 494.92 1515.59 495.24C1515.27 495.56 1515.27 496.078 1515.59 496.398C1515.91 496.718 1516.43 496.718 1516.75 496.398Z" fill="white"/>
<path d="M1539.95 519.602C1540.29 519.263 1540.29 518.713 1539.95 518.374C1539.61 518.035 1539.06 518.035 1538.72 518.374C1538.38 518.713 1538.38 519.263 1538.72 519.602C1539.06 519.941 1539.61 519.941 1539.95 519.602Z" fill="white"/>
<path d="M1563.15 542.805C1563.51 542.447 1563.51 541.866 1563.15 541.508C1562.8 541.15 1562.22 541.15 1561.86 541.508C1561.5 541.866 1561.5 542.447 1561.86 542.805C1562.22 543.164 1562.8 543.164 1563.15 542.805Z" fill="white"/>
<path d="M1586.36 566.009C1586.74 565.631 1586.74 565.019 1586.36 564.642C1585.98 564.264 1585.37 564.264 1584.99 564.642C1584.61 565.019 1584.61 565.631 1584.99 566.009C1585.37 566.386 1585.98 566.386 1586.36 566.009Z" fill="white"/>
<path d="M1609.49 589.143C1609.85 588.784 1609.85 588.203 1609.49 587.845C1609.13 587.487 1608.55 587.487 1608.19 587.845C1607.84 588.203 1607.84 588.784 1608.19 589.143C1608.55 589.501 1609.13 589.501 1609.49 589.143Z" fill="white"/>
<path d="M1632.63 612.277C1632.97 611.937 1632.97 611.388 1632.63 611.049C1632.29 610.71 1631.74 610.71 1631.4 611.049C1631.06 611.388 1631.06 611.937 1631.4 612.277C1631.74 612.616 1632.29 612.616 1632.63 612.277Z" fill="white"/>
<path d="M1655.76 635.411C1656.08 635.091 1656.08 634.572 1655.76 634.252C1655.44 633.932 1654.92 633.932 1654.6 634.252C1654.28 634.572 1654.28 635.091 1654.6 635.411C1654.92 635.73 1655.44 635.73 1655.76 635.411Z" fill="white"/>
<path d="M1563.04 496.352C1563.33 496.058 1563.33 495.581 1563.04 495.286C1562.74 494.992 1562.27 494.992 1561.97 495.286C1561.68 495.581 1561.68 496.058 1561.97 496.352C1562.27 496.646 1562.74 496.646 1563.04 496.352Z" fill="white"/>
<path d="M1586.23 519.544C1586.54 519.237 1586.54 518.739 1586.23 518.432C1585.92 518.125 1585.43 518.125 1585.12 518.432C1584.81 518.739 1584.81 519.237 1585.12 519.544C1585.43 519.851 1585.92 519.851 1586.23 519.544Z" fill="white"/>
<path d="M1609.42 542.736C1609.74 542.416 1609.74 541.897 1609.42 541.577C1609.1 541.257 1608.58 541.257 1608.26 541.577C1607.94 541.897 1607.94 542.416 1608.26 542.736C1608.58 543.056 1609.1 543.056 1609.42 542.736Z" fill="white"/>
<path d="M1632.57 565.881C1632.88 565.574 1632.88 565.076 1632.57 564.769C1632.26 564.462 1631.76 564.462 1631.46 564.769C1631.15 565.076 1631.15 565.574 1631.46 565.881C1631.76 566.188 1632.26 566.188 1632.57 565.881Z" fill="white"/>
<path d="M1655.71 589.027C1656.01 588.733 1656.01 588.255 1655.71 587.961C1655.42 587.667 1654.94 587.667 1654.65 587.961C1654.35 588.255 1654.35 588.733 1654.65 589.027C1654.94 589.321 1655.42 589.321 1655.71 589.027Z" fill="white"/>
<path d="M1698.35 232.039C1698.65 231.745 1698.65 231.268 1698.35 230.973C1698.06 230.679 1697.58 230.679 1697.29 230.973C1696.99 231.268 1696.99 231.745 1697.29 232.039C1697.58 232.333 1698.06 232.333 1698.35 232.039Z" fill="white"/>
<path d="M1721.54 255.231C1721.85 254.924 1721.85 254.426 1721.54 254.119C1721.24 253.812 1720.74 253.812 1720.43 254.119C1720.12 254.426 1720.12 254.924 1720.43 255.231C1720.74 255.538 1721.24 255.538 1721.54 255.231Z" fill="white"/>
<path d="M1744.74 278.423C1745.06 278.103 1745.06 277.584 1744.74 277.264C1744.42 276.944 1743.9 276.944 1743.58 277.264C1743.26 277.584 1743.26 278.103 1743.58 278.423C1743.9 278.743 1744.42 278.743 1744.74 278.423Z" fill="white"/>
<path d="M1767.88 301.568C1768.19 301.261 1768.19 300.763 1767.88 300.456C1767.57 300.149 1767.08 300.149 1766.77 300.456C1766.46 300.763 1766.46 301.261 1766.77 301.568C1767.08 301.875 1767.57 301.875 1767.88 301.568Z" fill="white"/>
<path d="M1791.03 324.714C1791.32 324.419 1791.32 323.942 1791.03 323.648C1790.73 323.354 1790.26 323.354 1789.96 323.648C1789.67 323.942 1789.67 324.419 1789.96 324.714C1790.26 325.008 1790.73 325.008 1791.03 324.714Z" fill="white"/>
<path d="M1698.4 185.748C1698.72 185.428 1698.72 184.909 1698.4 184.589C1698.08 184.27 1697.56 184.27 1697.24 184.589C1696.92 184.909 1696.92 185.428 1697.24 185.748C1697.56 186.068 1698.08 186.068 1698.4 185.748Z" fill="white"/>
<path d="M1721.6 208.951C1721.94 208.612 1721.94 208.063 1721.6 207.723C1721.26 207.384 1720.71 207.384 1720.37 207.723C1720.03 208.063 1720.03 208.612 1720.37 208.951C1720.71 209.29 1721.26 209.29 1721.6 208.951Z" fill="white"/>
<path d="M1744.81 232.155C1745.16 231.797 1745.16 231.216 1744.81 230.857C1744.45 230.499 1743.87 230.499 1743.51 230.857C1743.15 231.216 1743.15 231.797 1743.51 232.155C1743.87 232.513 1744.45 232.513 1744.81 232.155Z" fill="white"/>
<path d="M1768.01 255.358C1768.39 254.981 1768.39 254.369 1768.01 253.991C1767.63 253.614 1767.02 253.614 1766.64 253.991C1766.26 254.369 1766.26 254.981 1766.64 255.358C1767.02 255.736 1767.63 255.736 1768.01 255.358Z" fill="white"/>
<path d="M1791.14 278.492C1791.5 278.134 1791.5 277.553 1791.14 277.195C1790.78 276.836 1790.2 276.836 1789.85 277.195C1789.49 277.553 1789.49 278.134 1789.85 278.492C1790.2 278.85 1790.78 278.85 1791.14 278.492Z" fill="white"/>
<path d="M1814.28 301.626C1814.62 301.287 1814.62 300.737 1814.28 300.398C1813.94 300.059 1813.39 300.059 1813.05 300.398C1812.71 300.737 1812.71 301.287 1813.05 301.626C1813.39 301.965 1813.94 301.965 1814.28 301.626Z" fill="white"/>
<path d="M1837.41 324.76C1837.73 324.44 1837.73 323.922 1837.41 323.602C1837.09 323.282 1836.57 323.282 1836.25 323.602C1835.93 323.922 1835.93 324.44 1836.25 324.76C1836.57 325.08 1837.09 325.08 1837.41 324.76Z" fill="white"/>
<path d="M1698.4 139.411C1698.72 139.091 1698.72 138.572 1698.4 138.252C1698.08 137.932 1697.56 137.932 1697.24 138.252C1696.92 138.572 1696.92 139.091 1697.24 139.411C1697.56 139.73 1698.08 139.73 1698.4 139.411Z" fill="white"/>
<path d="M1721.61 162.626C1721.96 162.28 1721.96 161.72 1721.61 161.374C1721.27 161.029 1720.71 161.029 1720.36 161.374C1720.02 161.72 1720.02 162.28 1720.36 162.626C1720.71 162.971 1721.27 162.971 1721.61 162.626Z" fill="white"/>
<path d="M1744.84 185.852C1745.22 185.475 1745.22 184.863 1744.84 184.485C1744.46 184.108 1743.85 184.108 1743.47 184.485C1743.1 184.863 1743.1 185.475 1743.47 185.852C1743.85 186.23 1744.46 186.23 1744.84 185.852Z" fill="white"/>
<path d="M1768.07 209.079C1768.48 208.669 1768.48 208.005 1768.07 207.596C1767.66 207.187 1766.99 207.187 1766.58 207.596C1766.17 208.005 1766.17 208.669 1766.58 209.079C1766.99 209.488 1767.66 209.488 1768.07 209.079Z" fill="white"/>
<path d="M1791.29 232.305C1791.73 231.864 1791.73 231.148 1791.29 230.707C1790.85 230.265 1790.14 230.265 1789.69 230.707C1789.25 231.148 1789.25 231.864 1789.69 232.305C1790.14 232.747 1790.85 232.747 1791.29 232.305Z" fill="white"/>
<path d="M1814.4 255.416C1814.81 255.007 1814.81 254.343 1814.4 253.933C1813.99 253.524 1813.33 253.524 1812.92 253.933C1812.51 254.343 1812.51 255.007 1812.92 255.416C1813.33 255.826 1813.99 255.826 1814.4 255.416Z" fill="white"/>
<path d="M1837.51 278.527C1837.89 278.149 1837.89 277.537 1837.51 277.16C1837.14 276.783 1836.53 276.783 1836.15 277.16C1835.77 277.537 1835.77 278.149 1836.15 278.527C1836.53 278.904 1837.14 278.904 1837.51 278.527Z" fill="white"/>
<path d="M1860.63 301.638C1860.97 301.292 1860.97 300.732 1860.63 300.387C1860.28 300.041 1859.72 300.041 1859.37 300.387C1859.03 300.732 1859.03 301.292 1859.37 301.638C1859.72 301.983 1860.28 301.983 1860.63 301.638Z" fill="white"/>
<path d="M1883.75 324.76C1884.07 324.44 1884.07 323.922 1883.75 323.602C1883.43 323.282 1882.91 323.282 1882.59 323.602C1882.27 323.922 1882.27 324.44 1882.59 324.76C1882.91 325.08 1883.43 325.08 1883.75 324.76Z" fill="white"/>
<path d="M1698.35 93.0268C1698.65 92.7325 1698.65 92.2553 1698.35 91.961C1698.06 91.6667 1697.58 91.6667 1697.29 91.961C1696.99 92.2553 1696.99 92.7325 1697.29 93.0268C1697.58 93.3211 1698.06 93.3211 1698.35 93.0268Z" fill="white"/>
<path d="M1721.6 116.277C1721.94 115.937 1721.94 115.388 1721.6 115.049C1721.26 114.71 1720.71 114.71 1720.37 115.049C1720.03 115.388 1720.03 115.937 1720.37 116.277C1720.71 116.616 1721.26 116.616 1721.6 116.277Z" fill="white"/>
<path d="M1744.84 139.515C1745.22 139.137 1745.22 138.525 1744.84 138.148C1744.46 137.77 1743.85 137.77 1743.47 138.148C1743.1 138.525 1743.1 139.137 1743.47 139.515C1743.85 139.892 1744.46 139.892 1744.84 139.515Z" fill="white"/>
<path d="M1768.09 162.765C1768.51 162.342 1768.51 161.658 1768.09 161.235C1767.67 160.813 1766.98 160.813 1766.56 161.235C1766.14 161.658 1766.14 162.342 1766.56 162.765C1766.98 163.187 1767.67 163.187 1768.09 162.765Z" fill="white"/>
<path d="M1791.33 186.003C1791.79 185.542 1791.79 184.795 1791.33 184.335C1790.87 183.874 1790.12 183.874 1789.66 184.335C1789.2 184.795 1789.2 185.542 1789.66 186.003C1790.12 186.463 1790.87 186.463 1791.33 186.003Z" fill="white"/>
<path d="M1814.57 209.241C1815.07 208.742 1815.07 207.933 1814.57 207.434C1814.07 206.935 1813.26 206.935 1812.76 207.434C1812.26 207.933 1812.26 208.742 1812.76 209.241C1813.26 209.74 1814.07 209.74 1814.57 209.241Z" fill="white"/>
<path d="M1837.67 232.34C1838.13 231.88 1838.13 231.133 1837.67 230.672C1837.2 230.211 1836.46 230.211 1836 230.672C1835.54 231.133 1835.54 231.88 1836 232.34C1836.46 232.801 1837.2 232.801 1837.67 232.34Z" fill="white"/>
<path d="M1860.76 255.439C1861.19 255.017 1861.19 254.332 1860.76 253.91C1860.34 253.488 1859.66 253.488 1859.24 253.91C1858.81 254.332 1858.81 255.017 1859.24 255.439C1859.66 255.862 1860.34 255.862 1860.76 255.439Z" fill="white"/>
<path d="M1883.85 278.527C1884.23 278.149 1884.23 277.537 1883.85 277.16C1883.47 276.783 1882.86 276.783 1882.49 277.16C1882.11 277.537 1882.11 278.149 1882.49 278.527C1882.86 278.904 1883.47 278.904 1883.85 278.527Z" fill="white"/>
<path d="M1906.95 301.626C1907.29 301.287 1907.29 300.737 1906.95 300.398C1906.61 300.059 1906.06 300.059 1905.72 300.398C1905.38 300.737 1905.38 301.287 1905.72 301.626C1906.06 301.965 1906.61 301.965 1906.95 301.626Z" fill="white"/>
<path d="M1930.04 324.714C1930.33 324.419 1930.33 323.942 1930.04 323.648C1929.74 323.354 1929.27 323.354 1928.97 323.648C1928.68 323.942 1928.68 324.419 1928.97 324.714C1929.27 325.008 1929.74 325.008 1930.04 324.714Z" fill="white"/>
<path d="M1721.54 69.8813C1721.85 69.5742 1721.85 69.0763 1721.54 68.7692C1721.24 68.4621 1720.74 68.4621 1720.43 68.7692C1720.12 69.0763 1720.12 69.5742 1720.43 69.8813C1720.74 70.1884 1721.24 70.1884 1721.54 69.8813Z" fill="white"/>
<path d="M1744.81 93.1426C1745.16 92.7844 1745.16 92.2035 1744.81 91.8452C1744.45 91.4869 1743.87 91.4869 1743.51 91.8452C1743.15 92.2035 1743.15 92.7844 1743.51 93.1426C1743.87 93.5009 1744.45 93.5009 1744.81 93.1426Z" fill="white"/>
<path d="M1768.07 116.404C1768.48 115.995 1768.48 115.331 1768.07 114.921C1767.66 114.512 1766.99 114.512 1766.58 114.921C1766.17 115.331 1766.17 115.995 1766.58 116.404C1766.99 116.813 1767.66 116.813 1768.07 116.404Z" fill="white"/>
<path d="M1791.33 139.665C1791.79 139.205 1791.79 138.458 1791.33 137.997C1790.87 137.537 1790.12 137.537 1789.66 137.997C1789.2 138.458 1789.2 139.205 1789.66 139.665C1790.12 140.126 1790.87 140.126 1791.33 139.665Z" fill="white"/>
<path d="M1814.59 162.927C1815.1 162.415 1815.1 161.585 1814.59 161.073C1814.08 160.561 1813.25 160.561 1812.74 161.073C1812.22 161.585 1812.22 162.415 1812.74 162.927C1813.25 163.439 1814.08 163.439 1814.59 162.927Z" fill="white"/>
<path d="M1837.85 186.188C1838.41 185.625 1838.41 184.712 1837.85 184.149C1837.29 183.586 1836.37 183.586 1835.81 184.149C1835.25 184.712 1835.25 185.625 1835.81 186.188C1836.37 186.751 1837.29 186.751 1837.85 186.188Z" fill="white"/>
<path d="M1860.93 209.264C1861.44 208.752 1861.44 207.922 1860.93 207.411C1860.41 206.899 1859.59 206.899 1859.07 207.411C1858.56 207.922 1858.56 208.752 1859.07 209.264C1859.59 209.776 1860.41 209.776 1860.93 209.264Z" fill="white"/>
<path d="M1884 232.34C1884.46 231.88 1884.46 231.133 1884 230.672C1883.54 230.211 1882.8 230.211 1882.33 230.672C1881.87 231.133 1881.87 231.88 1882.33 232.34C1882.8 232.801 1883.54 232.801 1884 232.34Z" fill="white"/>
<path d="M1907.08 255.416C1907.49 255.007 1907.49 254.343 1907.08 253.933C1906.67 253.524 1906.01 253.524 1905.6 253.933C1905.19 254.343 1905.19 255.007 1905.6 255.416C1906.01 255.826 1906.67 255.826 1907.08 255.416Z" fill="white"/>
<path d="M1930.15 278.492C1930.51 278.134 1930.51 277.553 1930.15 277.195C1929.8 276.836 1929.22 276.836 1928.86 277.195C1928.5 277.553 1928.5 278.134 1928.86 278.492C1929.22 278.85 1929.8 278.85 1930.15 278.492Z" fill="white"/>
<path d="M1953.23 301.568C1953.54 301.261 1953.54 300.763 1953.23 300.456C1952.92 300.149 1952.43 300.149 1952.12 300.456C1951.81 300.763 1951.81 301.261 1952.12 301.568C1952.43 301.875 1952.92 301.875 1953.23 301.568Z" fill="white"/>
<path d="M1744.74 46.7357C1745.06 46.4159 1745.06 45.8972 1744.74 45.5773C1744.42 45.2574 1743.9 45.2574 1743.58 45.5773C1743.26 45.8972 1743.26 46.4159 1743.58 46.7357C1743.9 47.0556 1744.42 47.0556 1744.74 46.7357Z" fill="white"/>
<path d="M1768.01 70.0087C1768.39 69.6312 1768.39 69.0192 1768.01 68.6417C1767.63 68.2643 1767.02 68.2643 1766.64 68.6417C1766.26 69.0192 1766.26 69.6312 1766.64 70.0087C1767.02 70.3862 1767.63 70.3862 1768.01 70.0087Z" fill="white"/>
<path d="M1791.29 93.2932C1791.73 92.8518 1791.73 92.136 1791.29 91.6946C1790.85 91.2531 1790.14 91.2531 1789.69 91.6946C1789.25 92.136 1789.25 92.8518 1789.69 93.2932C1790.14 93.7347 1790.85 93.7347 1791.29 93.2932Z" fill="white"/>
<path d="M1814.57 116.566C1815.07 116.067 1815.07 115.258 1814.57 114.759C1814.07 114.26 1813.26 114.26 1812.76 114.759C1812.26 115.258 1812.26 116.067 1812.76 116.566C1813.26 117.065 1814.07 117.065 1814.57 116.566Z" fill="white"/>
<path d="M1837.85 139.851C1838.41 139.288 1838.41 138.375 1837.85 137.812C1837.29 137.249 1836.37 137.249 1835.81 137.812C1835.25 138.375 1835.25 139.288 1835.81 139.851C1836.37 140.414 1837.29 140.414 1837.85 139.851Z" fill="white"/>
<path d="M1861.14 163.135C1861.76 162.508 1861.76 161.492 1861.14 160.865C1860.51 160.238 1859.49 160.238 1858.86 160.865C1858.24 161.492 1858.24 162.508 1858.86 163.135C1859.49 163.762 1860.51 163.762 1861.14 163.135Z" fill="white"/>
<path d="M1884.19 186.188C1884.75 185.625 1884.75 184.712 1884.19 184.149C1883.63 183.586 1882.71 183.586 1882.15 184.149C1881.59 184.712 1881.59 185.625 1882.15 186.188C1882.71 186.751 1883.63 186.751 1884.19 186.188Z" fill="white"/>
<path d="M1907.24 209.241C1907.74 208.742 1907.74 207.933 1907.24 207.434C1906.74 206.935 1905.93 206.935 1905.43 207.434C1904.93 207.933 1904.93 208.742 1905.43 209.241C1905.93 209.74 1906.74 209.74 1907.24 209.241Z" fill="white"/>
<path d="M1930.31 232.305C1930.75 231.864 1930.75 231.148 1930.31 230.707C1929.86 230.265 1929.15 230.265 1928.71 230.707C1928.27 231.148 1928.27 231.864 1928.71 232.305C1929.15 232.747 1929.86 232.747 1930.31 232.305Z" fill="white"/>
<path d="M1953.36 255.358C1953.74 254.981 1953.74 254.369 1953.36 253.991C1952.98 253.614 1952.37 253.614 1951.99 253.991C1951.61 254.369 1951.61 254.981 1951.99 255.358C1952.37 255.736 1952.98 255.736 1953.36 255.358Z" fill="white"/>
<path d="M1976.42 278.423C1976.74 278.103 1976.74 277.584 1976.42 277.264C1976.1 276.944 1975.58 276.944 1975.26 277.264C1974.94 277.584 1974.94 278.103 1975.26 278.423C1975.58 278.743 1976.1 278.743 1976.42 278.423Z" fill="white"/>
<path d="M1767.88 23.5439C1768.19 23.2368 1768.19 22.7389 1767.88 22.4318C1767.57 22.1247 1767.08 22.1247 1766.77 22.4318C1766.46 22.7389 1766.46 23.2368 1766.77 23.5439C1767.08 23.851 1767.57 23.851 1767.88 23.5439Z" fill="white"/>
<path d="M1791.14 46.8052C1791.5 46.447 1791.5 45.8661 1791.14 45.5078C1790.78 45.1495 1790.2 45.1495 1789.85 45.5078C1789.49 45.8661 1789.49 46.447 1789.85 46.8052C1790.2 47.1635 1790.78 47.1635 1791.14 46.8052Z" fill="white"/>
<path d="M1814.4 70.0666C1814.81 69.6572 1814.81 68.9933 1814.4 68.5838C1813.99 68.1744 1813.33 68.1744 1812.92 68.5838C1812.51 68.9933 1812.51 69.6572 1812.92 70.0666C1813.33 70.4761 1813.99 70.4761 1814.4 70.0666Z" fill="white"/>
<path d="M1837.67 93.328C1838.13 92.8673 1838.13 92.1205 1837.67 91.6598C1837.2 91.1992 1836.46 91.1992 1836 91.6598C1835.54 92.1205 1835.54 92.8673 1836 93.328C1836.46 93.7886 1837.2 93.7886 1837.67 93.328Z" fill="white"/>
<path d="M1860.93 116.589C1861.44 116.078 1861.44 115.248 1860.93 114.736C1860.41 114.224 1859.59 114.224 1859.07 114.736C1858.56 115.248 1858.56 116.078 1859.07 116.589C1859.59 117.101 1860.41 117.101 1860.93 116.589Z" fill="white"/>
<path d="M1884.19 139.851C1884.75 139.288 1884.75 138.375 1884.19 137.812C1883.63 137.249 1882.71 137.249 1882.15 137.812C1881.59 138.375 1881.59 139.288 1882.15 139.851C1882.71 140.414 1883.63 140.414 1884.19 139.851Z" fill="white"/>
<path d="M1907.26 162.927C1907.78 162.415 1907.78 161.585 1907.26 161.073C1906.75 160.561 1905.92 160.561 1905.41 161.073C1904.9 161.585 1904.9 162.415 1905.41 162.927C1905.92 163.439 1906.75 163.439 1907.26 162.927Z" fill="white"/>
<path d="M1930.34 186.003C1930.8 185.542 1930.8 184.795 1930.34 184.335C1929.88 183.874 1929.13 183.874 1928.67 184.335C1928.21 184.795 1928.21 185.542 1928.67 186.003C1929.13 186.463 1929.88 186.463 1930.34 186.003Z" fill="white"/>
<path d="M1953.42 209.079C1953.83 208.669 1953.83 208.005 1953.42 207.596C1953.01 207.187 1952.34 207.187 1951.93 207.596C1951.52 208.005 1951.52 208.669 1951.93 209.079C1952.34 209.488 1953.01 209.488 1953.42 209.079Z" fill="white"/>
<path d="M1976.49 232.155C1976.85 231.797 1976.85 231.216 1976.49 230.857C1976.13 230.499 1975.55 230.499 1975.19 230.857C1974.84 231.216 1974.84 231.797 1975.19 232.155C1975.55 232.513 1976.13 232.513 1976.49 232.155Z" fill="white"/>
<path d="M1999.57 255.231C1999.88 254.924 1999.88 254.426 1999.57 254.119C1999.26 253.812 1998.76 253.812 1998.46 254.119C1998.15 254.426 1998.15 254.924 1998.46 255.231C1998.76 255.538 1999.26 255.538 1999.57 255.231Z" fill="white"/>
<path d="M1791.03 0.352017C1791.32 0.0577156 1791.32 -0.419449 1791.03 -0.713751C1790.73 -1.00805 1790.26 -1.00804 1789.96 -0.713743C1789.67 -0.419442 1789.67 0.0577233 1789.96 0.352025C1790.26 0.646326 1790.73 0.646319 1791.03 0.352017Z" fill="white"/>
<path d="M1814.28 23.6018C1814.62 23.2627 1814.62 22.7129 1814.28 22.3739C1813.94 22.0348 1813.39 22.0348 1813.05 22.3739C1812.71 22.7129 1812.71 23.2627 1813.05 23.6018C1813.39 23.9409 1813.94 23.9409 1814.28 23.6018Z" fill="white"/>
<path d="M1837.51 46.84C1837.89 46.4625 1837.89 45.8505 1837.51 45.4731C1837.14 45.0956 1836.53 45.0956 1836.15 45.473C1835.77 45.8505 1835.77 46.4625 1836.15 46.84C1836.53 47.2175 1837.14 47.2175 1837.51 46.84Z" fill="white"/>
<path d="M1860.76 70.0898C1861.19 69.6675 1861.19 68.9829 1860.76 68.5606C1860.34 68.1384 1859.66 68.1384 1859.24 68.5606C1858.81 68.9829 1858.81 69.6675 1859.24 70.0898C1859.66 70.5121 1860.34 70.5121 1860.76 70.0898Z" fill="white"/>
<path d="M1884 93.328C1884.46 92.8673 1884.46 92.1205 1884 91.6598C1883.54 91.1992 1882.8 91.1992 1882.33 91.6598C1881.87 92.1205 1881.87 92.8673 1882.33 93.328C1882.8 93.7886 1883.54 93.7886 1884 93.328Z" fill="white"/>
<path d="M1907.24 116.566C1907.74 116.067 1907.74 115.258 1907.24 114.759C1906.74 114.26 1905.93 114.26 1905.43 114.759C1904.93 115.258 1904.93 116.067 1905.43 116.566C1905.93 117.065 1906.74 117.065 1907.24 116.566Z" fill="white"/>
<path d="M1930.34 139.665C1930.8 139.205 1930.8 138.458 1930.34 137.997C1929.88 137.537 1929.13 137.537 1928.67 137.997C1928.21 138.458 1928.21 139.205 1928.67 139.665C1929.13 140.126 1929.88 140.126 1930.34 139.665Z" fill="white"/>
<path d="M1953.44 162.765C1953.86 162.342 1953.86 161.658 1953.44 161.235C1953.02 160.813 1952.33 160.813 1951.91 161.235C1951.49 161.658 1951.49 162.342 1951.91 162.765C1952.33 163.187 1953.02 163.187 1953.44 162.765Z" fill="white"/>
<path d="M1976.53 185.852C1976.9 185.475 1976.9 184.863 1976.53 184.485C1976.15 184.108 1975.54 184.108 1975.16 184.485C1974.78 184.863 1974.78 185.475 1975.16 185.852C1975.54 186.23 1976.15 186.23 1976.53 185.852Z" fill="white"/>
<path d="M1999.63 208.951C1999.97 208.612 1999.97 208.063 1999.63 207.723C1999.29 207.384 1998.74 207.384 1998.4 207.723C1998.06 208.063 1998.06 208.612 1998.4 208.951C1998.74 209.29 1999.29 209.29 1999.63 208.951Z" fill="white"/>
<path d="M2022.71 232.039C2023.01 231.745 2023.01 231.267 2022.71 230.973C2022.42 230.679 2021.94 230.679 2021.65 230.973C2021.35 231.267 2021.35 231.745 2021.65 232.039C2021.94 232.333 2022.42 232.333 2022.71 232.039Z" fill="white"/>
<path d="M1837.41 0.398354C1837.73 0.0784615 1837.73 -0.440187 1837.41 -0.76008C1837.09 -1.07997 1836.57 -1.07997 1836.25 -0.76008C1835.93 -0.440187 1835.93 0.0784615 1836.25 0.398354C1836.57 0.718247 1837.09 0.718247 1837.41 0.398354Z" fill="white"/>
<path d="M1860.63 23.6134C1860.97 23.2679 1860.97 22.7078 1860.63 22.3623C1860.28 22.0168 1859.72 22.0168 1859.37 22.3623C1859.03 22.7078 1859.03 23.2679 1859.37 23.6134C1859.72 23.9589 1860.28 23.9589 1860.63 23.6134Z" fill="white"/>
<path d="M1883.85 46.84C1884.23 46.4625 1884.23 45.8505 1883.85 45.4731C1883.47 45.0956 1882.86 45.0956 1882.49 45.4731C1882.11 45.8505 1882.11 46.4625 1882.49 46.84C1882.86 47.2175 1883.47 47.2175 1883.85 46.84Z" fill="white"/>
<path d="M1907.08 70.0666C1907.49 69.6572 1907.49 68.9933 1907.08 68.5838C1906.67 68.1744 1906.01 68.1744 1905.6 68.5838C1905.19 68.9933 1905.19 69.6572 1905.6 70.0666C1906.01 70.4761 1906.67 70.4761 1907.08 70.0666Z" fill="white"/>
<path d="M1930.31 93.2932C1930.75 92.8518 1930.75 92.136 1930.31 91.6946C1929.86 91.2531 1929.15 91.2531 1928.71 91.6946C1928.27 92.136 1928.27 92.8518 1928.71 93.2932C1929.15 93.7347 1929.86 93.7347 1930.31 93.2932Z" fill="white"/>
<path d="M1953.42 116.404C1953.83 115.995 1953.83 115.331 1953.42 114.921C1953.01 114.512 1952.34 114.512 1951.93 114.921C1951.52 115.331 1951.52 115.995 1951.93 116.404C1952.34 116.813 1953.01 116.813 1953.42 116.404Z" fill="white"/>
<path d="M1976.53 139.515C1976.9 139.137 1976.9 138.525 1976.53 138.148C1976.15 137.77 1975.54 137.77 1975.16 138.148C1974.78 138.525 1974.78 139.137 1975.16 139.515C1975.54 139.892 1976.15 139.892 1976.53 139.515Z" fill="white"/>
<path d="M1999.64 162.626C1999.98 162.28 1999.98 161.72 1999.64 161.374C1999.29 161.029 1998.73 161.029 1998.39 161.374C1998.04 161.72 1998.04 162.28 1998.39 162.626C1998.73 162.971 1999.29 162.971 1999.64 162.626Z" fill="white"/>
<path d="M2022.76 185.748C2023.08 185.428 2023.08 184.909 2022.76 184.589C2022.44 184.27 2021.92 184.27 2021.6 184.589C2021.28 184.909 2021.28 185.428 2021.6 185.748C2021.92 186.068 2022.44 186.068 2022.76 185.748Z" fill="white"/>
<path d="M1883.75 0.398354C1884.07 0.0784615 1884.07 -0.440187 1883.75 -0.76008C1883.43 -1.07997 1882.91 -1.07997 1882.59 -0.76008C1882.27 -0.440187 1882.27 0.0784615 1882.59 0.398354C1882.91 0.718247 1883.43 0.718247 1883.75 0.398354Z" fill="white"/>
<path d="M1906.95 23.6018C1907.29 23.2627 1907.29 22.7129 1906.95 22.3739C1906.61 22.0348 1906.06 22.0348 1905.72 22.3739C1905.38 22.7129 1905.38 23.2627 1905.72 23.6018C1906.06 23.9409 1906.61 23.9409 1906.95 23.6018Z" fill="white"/>
<path d="M1930.15 46.8052C1930.51 46.447 1930.51 45.8661 1930.15 45.5078C1929.8 45.1495 1929.22 45.1495 1928.86 45.5078C1928.5 45.8661 1928.5 46.447 1928.86 46.8052C1929.22 47.1635 1929.8 47.1635 1930.15 46.8052Z" fill="white"/>
<path d="M1953.36 70.0087C1953.74 69.6312 1953.74 69.0192 1953.36 68.6417C1952.98 68.2643 1952.37 68.2643 1951.99 68.6417C1951.61 69.0192 1951.61 69.6312 1951.99 70.0087C1952.37 70.3862 1952.98 70.3862 1953.36 70.0087Z" fill="white"/>
<path d="M1976.49 93.1426C1976.85 92.7844 1976.85 92.2035 1976.49 91.8452C1976.13 91.4869 1975.55 91.4869 1975.19 91.8452C1974.84 92.2035 1974.84 92.7844 1975.19 93.1426C1975.55 93.5009 1976.13 93.5009 1976.49 93.1426Z" fill="white"/>
<path d="M1999.63 116.277C1999.97 115.937 1999.97 115.388 1999.63 115.049C1999.29 114.71 1998.74 114.71 1998.4 115.049C1998.06 115.388 1998.06 115.937 1998.4 116.277C1998.74 116.616 1999.29 116.616 1999.63 116.277Z" fill="white"/>
<path d="M2022.76 139.411C2023.08 139.091 2023.08 138.572 2022.76 138.252C2022.44 137.932 2021.92 137.932 2021.6 138.252C2021.28 138.572 2021.28 139.091 2021.6 139.411C2021.92 139.73 2022.44 139.73 2022.76 139.411Z" fill="white"/>
<path d="M1930.04 0.352016C1930.33 0.0577144 1930.33 -0.419449 1930.04 -0.713751C1929.74 -1.00805 1929.27 -1.00804 1928.97 -0.713742C1928.68 -0.41944 1928.68 0.0577233 1928.97 0.352025C1929.27 0.646326 1929.74 0.646317 1930.04 0.352016Z" fill="white"/>
<path d="M1953.23 23.5439C1953.54 23.2368 1953.54 22.7389 1953.23 22.4318C1952.92 22.1247 1952.43 22.1247 1952.12 22.4318C1951.81 22.7389 1951.81 23.2368 1952.12 23.5439C1952.43 23.851 1952.92 23.851 1953.23 23.5439Z" fill="white"/>
<path d="M1976.42 46.7357C1976.74 46.4159 1976.74 45.8972 1976.42 45.5773C1976.1 45.2574 1975.58 45.2574 1975.26 45.5773C1974.94 45.8972 1974.94 46.4159 1975.26 46.7357C1975.58 47.0556 1976.1 47.0556 1976.42 46.7357Z" fill="white"/>
<path d="M1999.57 69.8813C1999.88 69.5742 1999.88 69.0763 1999.57 68.7692C1999.26 68.4621 1998.76 68.4621 1998.46 68.7692C1998.15 69.0763 1998.15 69.5742 1998.46 69.8813C1998.76 70.1884 1999.26 70.1884 1999.57 69.8813Z" fill="white"/>
<path d="M2022.71 93.0268C2023.01 92.7325 2023.01 92.2553 2022.71 91.961C2022.42 91.6667 2021.94 91.6667 2021.65 91.961C2021.35 92.2553 2021.35 92.7325 2021.65 93.0268C2021.94 93.3211 2022.42 93.3211 2022.71 93.0268Z" fill="white"/>
<path d="M134.352 431.039C134.646 430.745 134.646 430.268 134.352 429.973C134.058 429.679 133.581 429.679 133.286 429.973C132.992 430.268 132.992 430.745 133.286 431.039C133.581 431.333 134.058 431.333 134.352 431.039Z" fill="white"/>
<path d="M157.544 454.231C157.851 453.924 157.851 453.426 157.544 453.119C157.237 452.812 156.739 452.812 156.432 453.119C156.125 453.426 156.125 453.924 156.432 454.231C156.739 454.538 157.237 454.538 157.544 454.231Z" fill="white"/>
<path d="M180.736 477.423C181.056 477.103 181.056 476.584 180.736 476.264C180.416 475.944 179.897 475.944 179.577 476.264C179.257 476.584 179.257 477.103 179.577 477.423C179.897 477.743 180.416 477.743 180.736 477.423Z" fill="white"/>
<path d="M203.881 500.568C204.188 500.261 204.188 499.763 203.881 499.456C203.574 499.149 203.076 499.149 202.769 499.456C202.462 499.763 202.462 500.261 202.769 500.568C203.076 500.875 203.574 500.875 203.881 500.568Z" fill="white"/>
<path d="M227.027 523.714C227.321 523.419 227.321 522.942 227.027 522.648C226.732 522.354 226.255 522.354 225.961 522.648C225.667 522.942 225.667 523.419 225.961 523.714C226.255 524.008 226.732 524.008 227.027 523.714Z" fill="white"/>
<path d="M134.398 384.748C134.718 384.428 134.718 383.909 134.398 383.589C134.078 383.27 133.56 383.27 133.24 383.589C132.92 383.909 132.92 384.428 133.24 384.748C133.56 385.068 134.078 385.068 134.398 384.748Z" fill="white"/>
<path d="M157.602 407.951C157.941 407.612 157.941 407.063 157.602 406.723C157.263 406.384 156.713 406.384 156.374 406.723C156.035 407.063 156.035 407.612 156.374 407.951C156.713 408.29 157.263 408.29 157.602 407.951Z" fill="white"/>
<path d="M180.805 431.155C181.164 430.797 181.164 430.216 180.805 429.857C180.447 429.499 179.866 429.499 179.508 429.857C179.15 430.216 179.15 430.797 179.508 431.155C179.866 431.513 180.447 431.513 180.805 431.155Z" fill="white"/>
<path d="M204.009 454.358C204.386 453.981 204.386 453.369 204.009 452.991C203.631 452.614 203.019 452.614 202.642 452.991C202.264 453.369 202.264 453.981 202.642 454.358C203.019 454.736 203.631 454.736 204.009 454.358Z" fill="white"/>
<path d="M227.143 477.492C227.501 477.134 227.501 476.553 227.143 476.195C226.784 475.836 226.203 475.836 225.845 476.195C225.487 476.553 225.487 477.134 225.845 477.492C226.203 477.85 226.784 477.85 227.143 477.492Z" fill="white"/>
<path d="M250.277 500.626C250.616 500.287 250.616 499.737 250.277 499.398C249.937 499.059 249.388 499.059 249.049 499.398C248.71 499.737 248.71 500.287 249.049 500.626C249.388 500.965 249.937 500.965 250.277 500.626Z" fill="white"/>
<path d="M273.411 523.76C273.73 523.44 273.73 522.922 273.411 522.602C273.091 522.282 272.572 522.282 272.252 522.602C271.932 522.922 271.932 523.44 272.252 523.76C272.572 524.08 273.091 524.08 273.411 523.76Z" fill="white"/>
<path d="M134.398 338.411C134.718 338.091 134.718 337.572 134.398 337.252C134.078 336.932 133.56 336.932 133.24 337.252C132.92 337.572 132.92 338.091 133.24 338.411C133.56 338.73 134.078 338.73 134.398 338.411Z" fill="white"/>
<path d="M157.613 361.626C157.959 361.28 157.959 360.72 157.613 360.374C157.268 360.029 156.708 360.029 156.362 360.374C156.017 360.72 156.017 361.28 156.362 361.626C156.708 361.971 157.268 361.971 157.613 361.626Z" fill="white"/>
<path d="M180.84 384.852C181.217 384.475 181.217 383.863 180.84 383.485C180.463 383.108 179.851 383.108 179.473 383.485C179.096 383.863 179.096 384.475 179.473 384.852C179.851 385.23 180.463 385.23 180.84 384.852Z" fill="white"/>
<path d="M204.067 408.079C204.476 407.669 204.476 407.005 204.067 406.596C203.657 406.187 202.993 406.187 202.584 406.596C202.174 407.005 202.174 407.669 202.584 408.079C202.993 408.488 203.657 408.488 204.067 408.079Z" fill="white"/>
<path d="M227.293 431.305C227.735 430.864 227.735 430.148 227.293 429.707C226.852 429.265 226.136 429.265 225.695 429.707C225.253 430.148 225.253 430.864 225.695 431.305C226.136 431.747 226.852 431.747 227.293 431.305Z" fill="white"/>
<path d="M250.404 454.416C250.813 454.007 250.813 453.343 250.404 452.933C249.995 452.524 249.331 452.524 248.921 452.933C248.512 453.343 248.512 454.007 248.921 454.416C249.331 454.826 249.995 454.826 250.404 454.416Z" fill="white"/>
<path d="M273.515 477.527C273.892 477.149 273.892 476.537 273.515 476.16C273.137 475.783 272.525 475.783 272.148 476.16C271.77 476.537 271.77 477.149 272.148 477.527C272.525 477.904 273.137 477.904 273.515 477.527Z" fill="white"/>
<path d="M296.626 500.638C296.971 500.292 296.971 499.732 296.626 499.387C296.28 499.041 295.72 499.041 295.374 499.387C295.029 499.732 295.029 500.292 295.374 500.638C295.72 500.983 296.28 500.983 296.626 500.638Z" fill="white"/>
<path d="M319.748 523.76C320.068 523.44 320.068 522.922 319.748 522.602C319.428 522.282 318.909 522.282 318.589 522.602C318.27 522.922 318.27 523.44 318.589 523.76C318.909 524.08 319.428 524.08 319.748 523.76Z" fill="white"/>
<path d="M134.352 292.027C134.646 291.732 134.646 291.255 134.352 290.961C134.058 290.667 133.581 290.667 133.286 290.961C132.992 291.255 132.992 291.732 133.286 292.027C133.581 292.321 134.058 292.321 134.352 292.027Z" fill="white"/>
<path d="M157.602 315.277C157.941 314.937 157.941 314.388 157.602 314.049C157.263 313.71 156.713 313.71 156.374 314.049C156.035 314.388 156.035 314.937 156.374 315.277C156.713 315.616 157.263 315.616 157.602 315.277Z" fill="white"/>
<path d="M180.84 338.515C181.217 338.137 181.217 337.525 180.84 337.148C180.463 336.77 179.851 336.77 179.473 337.148C179.096 337.525 179.096 338.137 179.473 338.515C179.851 338.892 180.463 338.892 180.84 338.515Z" fill="white"/>
<path d="M204.09 361.765C204.512 361.342 204.512 360.658 204.09 360.235C203.668 359.813 202.983 359.813 202.561 360.235C202.138 360.658 202.138 361.342 202.561 361.765C202.983 362.187 203.668 362.187 204.09 361.765Z" fill="white"/>
<path d="M227.328 385.003C227.789 384.542 227.789 383.795 227.328 383.335C226.867 382.874 226.12 382.874 225.66 383.335C225.199 383.795 225.199 384.542 225.66 385.003C226.12 385.463 226.867 385.463 227.328 385.003Z" fill="white"/>
<path d="M250.566 408.241C251.065 407.742 251.065 406.933 250.566 406.434C250.067 405.935 249.258 405.935 248.759 406.434C248.26 406.933 248.26 407.742 248.759 408.241C249.258 408.74 250.067 408.74 250.566 408.241Z" fill="white"/>
<path d="M273.665 431.34C274.126 430.88 274.126 430.133 273.665 429.672C273.205 429.211 272.458 429.211 271.997 429.672C271.537 430.133 271.537 430.88 271.997 431.34C272.458 431.801 273.205 431.801 273.665 431.34Z" fill="white"/>
<path d="M296.765 454.439C297.187 454.017 297.187 453.332 296.765 452.91C296.342 452.488 295.658 452.488 295.235 452.91C294.813 453.332 294.813 454.017 295.235 454.439C295.658 454.862 296.342 454.862 296.765 454.439Z" fill="white"/>
<path d="M319.852 477.527C320.23 477.149 320.23 476.537 319.852 476.16C319.475 475.783 318.863 475.783 318.485 476.16C318.108 476.537 318.108 477.149 318.485 477.527C318.863 477.904 319.475 477.904 319.852 477.527Z" fill="white"/>
<path d="M342.951 500.626C343.29 500.287 343.29 499.737 342.951 499.398C342.612 499.059 342.062 499.059 341.723 499.398C341.384 499.737 341.384 500.287 341.723 500.626C342.062 500.965 342.612 500.965 342.951 500.626Z" fill="white"/>
<path d="M366.039 523.714C366.333 523.419 366.333 522.942 366.039 522.648C365.745 522.354 365.267 522.354 364.973 522.648C364.679 522.942 364.679 523.419 364.973 523.714C365.267 524.008 365.745 524.008 366.039 523.714Z" fill="white"/>
<path d="M157.544 268.881C157.851 268.574 157.851 268.076 157.544 267.769C157.237 267.462 156.739 267.462 156.432 267.769C156.125 268.076 156.125 268.574 156.432 268.881C156.739 269.188 157.237 269.188 157.544 268.881Z" fill="white"/>
<path d="M180.805 292.143C181.164 291.784 181.164 291.203 180.805 290.845C180.447 290.487 179.866 290.487 179.508 290.845C179.15 291.203 179.15 291.784 179.508 292.143C179.866 292.501 180.447 292.501 180.805 292.143Z" fill="white"/>
<path d="M204.067 315.404C204.476 314.995 204.476 314.331 204.067 313.921C203.657 313.512 202.993 313.512 202.584 313.921C202.174 314.331 202.174 314.995 202.584 315.404C202.993 315.813 203.657 315.813 204.067 315.404Z" fill="white"/>
<path d="M227.328 338.665C227.789 338.205 227.789 337.458 227.328 336.997C226.867 336.537 226.12 336.537 225.66 336.997C225.199 337.458 225.199 338.205 225.66 338.665C226.12 339.126 226.867 339.126 227.328 338.665Z" fill="white"/>
<path d="M250.589 361.927C251.101 361.415 251.101 360.585 250.589 360.073C250.078 359.561 249.248 359.561 248.736 360.073C248.224 360.585 248.224 361.415 248.736 361.927C249.248 362.439 250.078 362.439 250.589 361.927Z" fill="white"/>
<path d="M273.851 385.188C274.414 384.625 274.414 383.712 273.851 383.149C273.288 382.586 272.375 382.586 271.812 383.149C271.249 383.712 271.249 384.625 271.812 385.188C272.375 385.751 273.288 385.751 273.851 385.188Z" fill="white"/>
<path d="M296.927 408.264C297.439 407.752 297.439 406.922 296.927 406.411C296.415 405.899 295.585 405.899 295.073 406.411C294.561 406.922 294.561 407.752 295.073 408.264C295.585 408.776 296.415 408.776 296.927 408.264Z" fill="white"/>
<path d="M320.003 431.34C320.463 430.88 320.463 430.133 320.003 429.672C319.542 429.211 318.795 429.211 318.335 429.672C317.874 430.133 317.874 430.88 318.335 431.34C318.795 431.801 319.542 431.801 320.003 431.34Z" fill="white"/>
<path d="M343.079 454.416C343.488 454.007 343.488 453.343 343.079 452.933C342.669 452.524 342.005 452.524 341.596 452.933C341.187 453.343 341.187 454.007 341.596 454.416C342.005 454.826 342.669 454.826 343.079 454.416Z" fill="white"/>
<path d="M366.155 477.492C366.513 477.134 366.513 476.553 366.155 476.195C365.796 475.836 365.216 475.836 364.857 476.195C364.499 476.553 364.499 477.134 364.857 477.492C365.216 477.85 365.796 477.85 366.155 477.492Z" fill="white"/>
<path d="M389.231 500.568C389.538 500.261 389.538 499.763 389.231 499.456C388.924 499.149 388.426 499.149 388.119 499.456C387.812 499.763 387.812 500.261 388.119 500.568C388.426 500.875 388.924 500.875 389.231 500.568Z" fill="white"/>
<path d="M180.736 245.736C181.056 245.416 181.056 244.897 180.736 244.577C180.416 244.257 179.897 244.257 179.577 244.577C179.257 244.897 179.257 245.416 179.577 245.736C179.897 246.056 180.416 246.056 180.736 245.736Z" fill="white"/>
<path d="M204.009 269.009C204.386 268.631 204.386 268.019 204.009 267.642C203.631 267.264 203.019 267.264 202.642 267.642C202.264 268.019 202.264 268.631 202.642 269.009C203.019 269.386 203.631 269.386 204.009 269.009Z" fill="white"/>
<path d="M227.293 292.293C227.735 291.852 227.735 291.136 227.293 290.695C226.852 290.253 226.136 290.253 225.695 290.695C225.253 291.136 225.253 291.852 225.695 292.293C226.136 292.735 226.852 292.735 227.293 292.293Z" fill="white"/>
<path d="M250.566 315.566C251.065 315.067 251.065 314.258 250.566 313.759C250.067 313.26 249.258 313.26 248.759 313.759C248.26 314.258 248.26 315.067 248.759 315.566C249.258 316.065 250.067 316.065 250.566 315.566Z" fill="white"/>
<path d="M273.851 338.851C274.414 338.288 274.414 337.375 273.851 336.812C273.288 336.249 272.375 336.249 271.812 336.812C271.249 337.375 271.249 338.288 271.812 338.851C272.375 339.414 273.288 339.414 273.851 338.851Z" fill="white"/>
<path d="M297.135 362.135C297.762 361.508 297.762 360.492 297.135 359.865C296.508 359.238 295.492 359.238 294.865 359.865C294.238 360.492 294.238 361.508 294.865 362.135C295.492 362.762 296.508 362.762 297.135 362.135Z" fill="white"/>
<path d="M320.188 385.188C320.751 384.625 320.751 383.712 320.188 383.149C319.625 382.586 318.712 382.586 318.149 383.149C317.586 383.712 317.586 384.625 318.149 385.188C318.712 385.751 319.625 385.751 320.188 385.188Z" fill="white"/>
<path d="M343.241 408.241C343.74 407.742 343.74 406.933 343.241 406.434C342.742 405.935 341.933 405.935 341.434 406.434C340.935 406.933 340.935 407.742 341.434 408.241C341.933 408.74 342.742 408.74 343.241 408.241Z" fill="white"/>
<path d="M366.305 431.305C366.747 430.864 366.747 430.148 366.305 429.707C365.864 429.265 365.148 429.265 364.707 429.707C364.265 430.148 364.265 430.864 364.707 431.305C365.148 431.747 365.864 431.747 366.305 431.305Z" fill="white"/>
<path d="M389.358 454.358C389.736 453.981 389.736 453.369 389.358 452.991C388.981 452.614 388.369 452.614 387.991 452.991C387.614 453.369 387.614 453.981 387.991 454.358C388.369 454.736 388.981 454.736 389.358 454.358Z" fill="white"/>
<path d="M412.423 477.423C412.743 477.103 412.743 476.584 412.423 476.264C412.103 475.944 411.584 475.944 411.264 476.264C410.944 476.584 410.944 477.103 411.264 477.423C411.584 477.743 412.103 477.743 412.423 477.423Z" fill="white"/>
<path d="M203.881 222.544C204.188 222.237 204.188 221.739 203.881 221.432C203.574 221.125 203.076 221.125 202.769 221.432C202.462 221.739 202.462 222.237 202.769 222.544C203.076 222.851 203.574 222.851 203.881 222.544Z" fill="white"/>
<path d="M227.143 245.805C227.501 245.447 227.501 244.866 227.143 244.508C226.784 244.15 226.203 244.15 225.845 244.508C225.487 244.866 225.487 245.447 225.845 245.805C226.203 246.164 226.784 246.164 227.143 245.805Z" fill="white"/>
<path d="M250.404 269.067C250.813 268.657 250.813 267.993 250.404 267.584C249.995 267.174 249.331 267.174 248.921 267.584C248.512 267.993 248.512 268.657 248.921 269.067C249.331 269.476 249.995 269.476 250.404 269.067Z" fill="white"/>
<path d="M273.665 292.328C274.126 291.867 274.126 291.12 273.665 290.66C273.205 290.199 272.458 290.199 271.997 290.66C271.537 291.12 271.537 291.867 271.997 292.328C272.458 292.789 273.205 292.789 273.665 292.328Z" fill="white"/>
<path d="M296.927 315.589C297.439 315.078 297.439 314.248 296.927 313.736C296.415 313.224 295.585 313.224 295.073 313.736C294.561 314.248 294.561 315.078 295.073 315.589C295.585 316.101 296.415 316.101 296.927 315.589Z" fill="white"/>
<path d="M320.188 338.851C320.751 338.288 320.751 337.375 320.188 336.812C319.625 336.249 318.712 336.249 318.149 336.812C317.586 337.375 317.586 338.288 318.149 338.851C318.712 339.414 319.625 339.414 320.188 338.851Z" fill="white"/>
<path d="M343.264 361.927C343.776 361.415 343.776 360.585 343.264 360.073C342.752 359.561 341.922 359.561 341.411 360.073C340.899 360.585 340.899 361.415 341.411 361.927C341.922 362.439 342.752 362.439 343.264 361.927Z" fill="white"/>
<path d="M366.34 385.003C366.801 384.542 366.801 383.795 366.34 383.335C365.879 382.874 365.133 382.874 364.672 383.335C364.211 383.795 364.211 384.542 364.672 385.003C365.133 385.463 365.879 385.463 366.34 385.003Z" fill="white"/>
<path d="M389.416 408.079C389.826 407.669 389.826 407.005 389.416 406.596C389.007 406.187 388.343 406.187 387.933 406.596C387.524 407.005 387.524 407.669 387.933 408.079C388.343 408.488 389.007 408.488 389.416 408.079Z" fill="white"/>
<path d="M412.492 431.155C412.85 430.797 412.85 430.216 412.492 429.857C412.134 429.499 411.553 429.499 411.195 429.857C410.836 430.216 410.836 430.797 411.195 431.155C411.553 431.513 412.134 431.513 412.492 431.155Z" fill="white"/>
<path d="M435.568 454.231C435.875 453.924 435.875 453.426 435.568 453.119C435.261 452.812 434.763 452.812 434.456 453.119C434.149 453.426 434.149 453.924 434.456 454.231C434.763 454.538 435.261 454.538 435.568 454.231Z" fill="white"/>
<path d="M227.027 199.352C227.321 199.058 227.321 198.581 227.027 198.286C226.732 197.992 226.255 197.992 225.961 198.286C225.667 198.581 225.667 199.058 225.961 199.352C226.255 199.646 226.732 199.646 227.027 199.352Z" fill="white"/>
<path d="M250.277 222.602C250.616 222.263 250.616 221.713 250.277 221.374C249.937 221.035 249.388 221.035 249.049 221.374C248.71 221.713 248.71 222.263 249.049 222.602C249.388 222.941 249.937 222.941 250.277 222.602Z" fill="white"/>
<path d="M273.515 245.84C273.892 245.463 273.892 244.851 273.515 244.473C273.137 244.096 272.525 244.096 272.148 244.473C271.77 244.851 271.77 245.463 272.148 245.84C272.525 246.217 273.137 246.217 273.515 245.84Z" fill="white"/>
<path d="M296.765 269.09C297.187 268.668 297.187 267.983 296.765 267.561C296.342 267.138 295.658 267.138 295.235 267.561C294.813 267.983 294.813 268.668 295.235 269.09C295.658 269.512 296.342 269.512 296.765 269.09Z" fill="white"/>
<path d="M320.003 292.328C320.463 291.867 320.463 291.12 320.003 290.66C319.542 290.199 318.795 290.199 318.335 290.66C317.874 291.12 317.874 291.867 318.335 292.328C318.795 292.789 319.542 292.789 320.003 292.328Z" fill="white"/>
<path d="M343.241 315.566C343.74 315.067 343.74 314.258 343.241 313.759C342.742 313.26 341.933 313.26 341.434 313.759C340.935 314.258 340.935 315.067 341.434 315.566C341.933 316.065 342.742 316.065 343.241 315.566Z" fill="white"/>
<path d="M366.34 338.665C366.801 338.205 366.801 337.458 366.34 336.997C365.879 336.537 365.133 336.537 364.672 336.997C364.211 337.458 364.211 338.205 364.672 338.665C365.133 339.126 365.879 339.126 366.34 338.665Z" fill="white"/>
<path d="M389.439 361.765C389.862 361.342 389.862 360.658 389.439 360.235C389.017 359.813 388.332 359.813 387.91 360.235C387.488 360.658 387.488 361.342 387.91 361.765C388.332 362.187 389.017 362.187 389.439 361.765Z" fill="white"/>
<path d="M412.527 384.852C412.904 384.475 412.904 383.863 412.527 383.485C412.149 383.108 411.537 383.108 411.16 383.485C410.783 383.863 410.783 384.475 411.16 384.852C411.537 385.23 412.149 385.23 412.527 384.852Z" fill="white"/>
<path d="M435.626 407.951C435.965 407.612 435.965 407.063 435.626 406.723C435.287 406.384 434.737 406.384 434.398 406.723C434.059 407.063 434.059 407.612 434.398 407.951C434.737 408.29 435.287 408.29 435.626 407.951Z" fill="white"/>
<path d="M458.714 431.039C459.008 430.745 459.008 430.267 458.714 429.973C458.419 429.679 457.942 429.679 457.648 429.973C457.354 430.267 457.354 430.745 457.648 431.039C457.942 431.333 458.419 431.333 458.714 431.039Z" fill="white"/>
<path d="M273.411 199.398C273.73 199.078 273.73 198.56 273.411 198.24C273.091 197.92 272.572 197.92 272.252 198.24C271.932 198.56 271.932 199.078 272.252 199.398C272.572 199.718 273.091 199.718 273.411 199.398Z" fill="white"/>
<path d="M296.626 222.613C296.971 222.268 296.971 221.708 296.626 221.362C296.28 221.017 295.72 221.017 295.374 221.362C295.029 221.708 295.029 222.268 295.374 222.613C295.72 222.959 296.28 222.959 296.626 222.613Z" fill="white"/>
<path d="M319.852 245.84C320.23 245.463 320.23 244.851 319.852 244.473C319.475 244.096 318.863 244.096 318.485 244.473C318.108 244.851 318.108 245.463 318.485 245.84C318.863 246.217 319.475 246.217 319.852 245.84Z" fill="white"/>
<path d="M343.079 269.067C343.488 268.657 343.488 267.993 343.079 267.584C342.669 267.174 342.005 267.174 341.596 267.584C341.187 267.993 341.187 268.657 341.596 269.067C342.005 269.476 342.669 269.476 343.079 269.067Z" fill="white"/>
<path d="M366.305 292.293C366.747 291.852 366.747 291.136 366.305 290.695C365.864 290.253 365.148 290.253 364.707 290.695C364.265 291.136 364.265 291.852 364.707 292.293C365.148 292.735 365.864 292.735 366.305 292.293Z" fill="white"/>
<path d="M389.416 315.404C389.826 314.995 389.826 314.331 389.416 313.921C389.007 313.512 388.343 313.512 387.933 313.921C387.524 314.331 387.524 314.995 387.933 315.404C388.343 315.813 389.007 315.813 389.416 315.404Z" fill="white"/>
<path d="M412.527 338.515C412.904 338.137 412.904 337.525 412.527 337.148C412.149 336.77 411.537 336.77 411.16 337.148C410.783 337.525 410.783 338.137 411.16 338.515C411.537 338.892 412.149 338.892 412.527 338.515Z" fill="white"/>
<path d="M435.638 361.626C435.983 361.28 435.983 360.72 435.638 360.374C435.292 360.029 434.732 360.029 434.387 360.374C434.041 360.72 434.041 361.28 434.387 361.626C434.732 361.971 435.292 361.971 435.638 361.626Z" fill="white"/>
<path d="M458.76 384.748C459.08 384.428 459.08 383.909 458.76 383.589C458.44 383.27 457.921 383.27 457.602 383.589C457.282 383.909 457.282 384.428 457.602 384.748C457.921 385.068 458.44 385.068 458.76 384.748Z" fill="white"/>
<path d="M319.748 199.398C320.068 199.078 320.068 198.56 319.748 198.24C319.428 197.92 318.909 197.92 318.589 198.24C318.27 198.56 318.27 199.078 318.589 199.398C318.909 199.718 319.428 199.718 319.748 199.398Z" fill="white"/>
<path d="M342.951 222.602C343.29 222.263 343.29 221.713 342.951 221.374C342.612 221.035 342.062 221.035 341.723 221.374C341.384 221.713 341.384 222.263 341.723 222.602C342.062 222.941 342.612 222.941 342.951 222.602Z" fill="white"/>
<path d="M366.155 245.805C366.513 245.447 366.513 244.866 366.155 244.508C365.796 244.15 365.216 244.15 364.857 244.508C364.499 244.866 364.499 245.447 364.857 245.805C365.216 246.164 365.796 246.164 366.155 245.805Z" fill="white"/>
<path d="M389.358 269.009C389.736 268.631 389.736 268.019 389.358 267.642C388.981 267.264 388.369 267.264 387.991 267.642C387.614 268.019 387.614 268.631 387.991 269.009C388.369 269.386 388.981 269.386 389.358 269.009Z" fill="white"/>
<path d="M412.492 292.143C412.85 291.784 412.85 291.203 412.492 290.845C412.134 290.487 411.553 290.487 411.195 290.845C410.836 291.203 410.836 291.784 411.195 292.143C411.553 292.501 412.134 292.501 412.492 292.143Z" fill="white"/>
<path d="M435.626 315.277C435.965 314.937 435.965 314.388 435.626 314.049C435.287 313.71 434.737 313.71 434.398 314.049C434.059 314.388 434.059 314.937 434.398 315.277C434.737 315.616 435.287 315.616 435.626 315.277Z" fill="white"/>
<path d="M458.76 338.411C459.08 338.091 459.08 337.572 458.76 337.252C458.44 336.932 457.921 336.932 457.602 337.252C457.282 337.572 457.282 338.091 457.602 338.411C457.921 338.73 458.44 338.73 458.76 338.411Z" fill="white"/>
<path d="M366.039 199.352C366.333 199.058 366.333 198.581 366.039 198.286C365.745 197.992 365.267 197.992 364.973 198.286C364.679 198.581 364.679 199.058 364.973 199.352C365.267 199.646 365.745 199.646 366.039 199.352Z" fill="white"/>
<path d="M389.231 222.544C389.538 222.237 389.538 221.739 389.231 221.432C388.924 221.125 388.426 221.125 388.119 221.432C387.812 221.739 387.812 222.237 388.119 222.544C388.426 222.851 388.924 222.851 389.231 222.544Z" fill="white"/>
<path d="M412.423 245.736C412.743 245.416 412.743 244.897 412.423 244.577C412.103 244.257 411.584 244.257 411.264 244.577C410.944 244.897 410.944 245.416 411.264 245.736C411.584 246.056 412.103 246.056 412.423 245.736Z" fill="white"/>
<path d="M435.568 268.881C435.875 268.574 435.875 268.076 435.568 267.769C435.261 267.462 434.763 267.462 434.456 267.769C434.149 268.076 434.149 268.574 434.456 268.881C434.763 269.188 435.261 269.188 435.568 268.881Z" fill="white"/>
<path d="M458.714 292.027C459.008 291.733 459.008 291.255 458.714 290.961C458.419 290.667 457.942 290.667 457.648 290.961C457.354 291.255 457.354 291.733 457.648 292.027C457.942 292.321 458.419 292.321 458.714 292.027Z" fill="white"/>
<g filter="url(#filter8_f_1_4)">
<ellipse cx="1906" cy="651.001" rx="119" ry="119" fill="#FFB800" fill-opacity="0.57"/>
</g>
<defs>
<filter id="filter0_d_1_4" x="1245.52" y="645.302" width="541.99" height="458.995" filterUnits="userSpaceOnUse" color-interpolation-filters="sRGB">
<feFlood flood-opacity="0" result="BackgroundImageFix"/>
<feColorMatrix in="SourceAlpha" type="matrix" values="0 0 0 0 0 0 0 0 0 0 0 0 0 0 0 0 0 0 127 0" result="hardAlpha"/>
<feOffset dy="29"/>
<feGaussianBlur stdDeviation="27"/>
<feComposite in2="hardAlpha" operator="out"/>
<feColorMatrix type="matrix" values="0 0 0 0 0 0 0 0 0 0 0 0 0 0 0 0 0 0 0.06 0"/>
<feBlend mode="normal" in2="BackgroundImageFix" result="effect1_dropShadow_1_4"/>
<feBlend mode="normal" in="SourceGraphic" in2="effect1_dropShadow_1_4" result="shape"/>
</filter>
<filter id="filter1_d_1_4" x="-153.295" y="591.726" width="386.029" height="370.342" filterUnits="userSpaceOnUse" color-interpolation-filters="sRGB">
<feFlood flood-opacity="0" result="BackgroundImageFix"/>
<feColorMatrix in="SourceAlpha" type="matrix" values="0 0 0 0 0 0 0 0 0 0 0 0 0 0 0 0 0 0 127 0" result="hardAlpha"/>
<feOffset dy="29"/>
<feGaussianBlur stdDeviation="27"/>
<feComposite in2="hardAlpha" operator="out"/>
<feColorMatrix type="matrix" values="0 0 0 0 0 0 0 0 0 0 0 0 0 0 0 0 0 0 0.06 0"/>
<feBlend mode="normal" in2="BackgroundImageFix" result="effect1_dropShadow_1_4"/>
<feBlend mode="normal" in="SourceGraphic" in2="effect1_dropShadow_1_4" result="shape"/>
</filter>
<filter id="filter2_d_1_4" x="1513" y="-132" width="591" height="580" filterUnits="userSpaceOnUse" color-interpolation-filters="sRGB">
<feFlood flood-opacity="0" result="BackgroundImageFix"/>
<feColorMatrix in="SourceAlpha" type="matrix" values="0 0 0 0 0 0 0 0 0 0 0 0 0 0 0 0 0 0 127 0" result="hardAlpha"/>
<feOffset dy="29"/>
<feGaussianBlur stdDeviation="27"/>
<feComposite in2="hardAlpha" operator="out"/>
<feColorMatrix type="matrix" values="0 0 0 0 0 0 0 0 0 0 0 0 0 0 0 0 0 0 0.06 0"/>
<feBlend mode="normal" in2="BackgroundImageFix" result="effect1_dropShadow_1_4"/>
<feBlend mode="normal" in="SourceGraphic" in2="effect1_dropShadow_1_4" result="shape"/>
</filter>
<filter id="filter3_d_1_4" x="1704.26" y="244.165" width="329.639" height="311.18" filterUnits="userSpaceOnUse" color-interpolation-filters="sRGB">
<feFlood flood-opacity="0" result="BackgroundImageFix"/>
<feColorMatrix in="SourceAlpha" type="matrix" values="0 0 0 0 0 0 0 0 0 0 0 0 0 0 0 0 0 0 127 0" result="hardAlpha"/>
<feOffset dy="29"/>
<feGaussianBlur stdDeviation="27"/>
<feComposite in2="hardAlpha" operator="out"/>
<feColorMatrix type="matrix" values="0 0 0 0 0 0 0 0 0 0 0 0 0 0 0 0 0 0 0.06 0"/>
<feBlend mode="normal" in2="BackgroundImageFix" result="effect1_dropShadow_1_4"/>
<feBlend mode="normal" in="SourceGraphic" in2="effect1_dropShadow_1_4" result="shape"/>
</filter>
<filter id="filter4_f_1_4" x="320.001" y="26.0002" width="792" height="792" filterUnits="userSpaceOnUse" color-interpolation-filters="sRGB">
<feFlood flood-opacity="0" result="BackgroundImageFix"/>
<feBlend mode="normal" in="SourceGraphic" in2="BackgroundImageFix" result="shape"/>
<feGaussianBlur stdDeviation="138.5" result="effect1_foregroundBlur_1_4"/>
</filter>
<filter id="filter5_d_1_4" x="412.634" y="173.606" width="328.162" height="322.546" filterUnits="userSpaceOnUse" color-interpolation-filters="sRGB">
<feFlood flood-opacity="0" result="BackgroundImageFix"/>
<feColorMatrix in="SourceAlpha" type="matrix" values="0 0 0 0 0 0 0 0 0 0 0 0 0 0 0 0 0 0 127 0" result="hardAlpha"/>
<feOffset dy="20"/>
<feGaussianBlur stdDeviation="20.5"/>
<feComposite in2="hardAlpha" operator="out"/>
<feColorMatrix type="matrix" values="0 0 0 0 0 0 0 0 0 0 0 0 0 0 0 0 0 0 0.16 0"/>
<feBlend mode="normal" in2="BackgroundImageFix" result="effect1_dropShadow_1_4"/>
<feBlend mode="normal" in="SourceGraphic" in2="effect1_dropShadow_1_4" result="shape"/>
</filter>
<filter id="filter6_d_1_4" x="224.741" y="295.462" width="191.925" height="189.195" filterUnits="userSpaceOnUse" color-interpolation-filters="sRGB">
<feFlood flood-opacity="0" result="BackgroundImageFix"/>
<feColorMatrix in="SourceAlpha" type="matrix" values="0 0 0 0 0 0 0 0 0 0 0 0 0 0 0 0 0 0 127 0" result="hardAlpha"/>
<feOffset dy="20"/>
<feGaussianBlur stdDeviation="20.5"/>
<feComposite in2="hardAlpha" operator="out"/>
<feColorMatrix type="matrix" values="0 0 0 0 0 0 0 0 0 0 0 0 0 0 0 0 0 0 0.16 0"/>
<feBlend mode="normal" in2="BackgroundImageFix" result="effect1_dropShadow_1_4"/>
<feBlend mode="normal" in="SourceGraphic" in2="effect1_dropShadow_1_4" result="shape"/>
</filter>
<filter id="filter7_d_1_4" x="581.452" y="550.436" width="224.581" height="205.627" filterUnits="userSpaceOnUse" color-interpolation-filters="sRGB">
<feFlood flood-opacity="0" result="BackgroundImageFix"/>
<feColorMatrix in="SourceAlpha" type="matrix" values="0 0 0 0 0 0 0 0 0 0 0 0 0 0 0 0 0 0 127 0" result="hardAlpha"/>
<feOffset dy="20"/>
<feGaussianBlur stdDeviation="20.5"/>
<feComposite in2="hardAlpha" operator="out"/>
<feColorMatrix type="matrix" values="0 0 0 0 0 0 0 0 0 0 0 0 0 0 0 0 0 0 0.16 0"/>
<feBlend mode="normal" in2="BackgroundImageFix" result="effect1_dropShadow_1_4"/>
<feBlend mode="normal" in="SourceGraphic" in2="effect1_dropShadow_1_4" result="shape"/>
</filter>
<filter id="filter8_f_1_4" x="1510" y="255.001" width="792" height="792" filterUnits="userSpaceOnUse" color-interpolation-filters="sRGB">
<feFlood flood-opacity="0" result="BackgroundImageFix"/>
<feBlend mode="normal" in="SourceGraphic" in2="BackgroundImageFix" result="shape"/>
<feGaussianBlur stdDeviation="138.5" result="effect1_foregroundBlur_1_4"/>
</filter>
<linearGradient id="paint0_linear_1_4" x1="960" y1="-7" x2="960" y2="817" gradientUnits="userSpaceOnUse">
<stop stop-color="#03A65B"/>
<stop offset="1" stop-color="#35EF99"/>
</linearGradient>
<linearGradient id="paint1_linear_1_4" x1="960" y1="-7" x2="960" y2="817" gradientUnits="userSpaceOnUse">
<stop stop-color="#03A65B"/>
<stop offset="1" stop-color="#35EF99"/>
</linearGradient>
<linearGradient id="paint2_linear_1_4" x1="199" y1="638" x2="798" y2="557" gradientUnits="userSpaceOnUse">
<stop stop-color="#0DCA74"/>
<stop offset="1" stop-color="#10C170"/>
</linearGradient>
</defs>
</svg>
