<svg width="20" height="20" viewBox="0 0 20 20" fill="none" xmlns="http://www.w3.org/2000/svg">
<path d="M3.75 1.25V2.5H3.125C2.09473 2.5 1.25 3.34473 1.25 4.375V15.625C1.25 16.6553 2.09473 17.5 3.125 17.5H15.625C16.6553 17.5 17.5 16.6553 17.5 15.625V4.375C17.5 3.34473 16.6553 2.5 15.625 2.5H15V1.25H13.75V2.5H5V1.25H3.75ZM3.125 3.75H3.75V5H5V3.75H13.75V5H15V3.75H15.625C15.9766 3.75 16.25 4.02344 16.25 4.375V6.25H2.5V4.375C2.5 4.02344 2.77344 3.75 3.125 3.75ZM2.5 7.5H16.25V15.625C16.25 15.9766 15.9766 16.25 15.625 16.25H3.125C2.77344 16.25 2.5 15.9766 2.5 15.625V7.5ZM6.25 8.75V10H7.5V8.75H6.25ZM8.75 8.75V10H10V8.75H8.75ZM11.25 8.75V10H12.5V8.75H11.25ZM13.75 8.75V10H15V8.75H13.75ZM3.75 11.25V12.5H5V11.25H3.75ZM6.25 11.25V12.5H7.5V11.25H6.25ZM8.75 11.25V12.5H10V11.25H8.75ZM11.25 11.25V12.5H12.5V11.25H11.25ZM13.75 11.25V12.5H15V11.25H13.75ZM3.75 13.75V15H5V13.75H3.75ZM6.25 13.75V15H7.5V13.75H6.25ZM8.75 13.75V15H10V13.75H8.75Z" fill="#C4C4C4"/>
</svg>
