<svg width="11" height="17" viewBox="0 0 11 17" fill="none" xmlns="http://www.w3.org/2000/svg">
<path d="M5.50073 0.78125C2.5575 0.78125 0.156982 3.18176 0.156982 6.125C0.156982 6.95996 0.495606 7.91785 0.954834 8.96387C1.41406 10.0099 2.00549 11.1208 2.6062 12.1553C3.80762 14.2264 5.01831 15.959 5.01831 15.959L5.50073 16.6641L5.98315 15.959C5.98315 15.959 7.19385 14.2264 8.39526 12.1553C8.99597 11.1208 9.5874 10.0099 10.0466 8.96387C10.5059 7.91785 10.8445 6.95996 10.8445 6.125C10.8445 3.18176 8.44397 0.78125 5.50073 0.78125ZM5.50073 1.96875C7.80383 1.96875 9.65698 3.8219 9.65698 6.125C9.65698 6.60046 9.40186 7.50037 8.97046 8.48145C8.53906 9.46252 7.94299 10.5503 7.3562 11.5615C6.42383 13.1711 5.84399 14.0223 5.50073 14.5303C5.15747 14.0223 4.57764 13.1711 3.64526 11.5615C3.05847 10.5503 2.4624 9.46252 2.03101 8.48145C1.59961 7.50037 1.34448 6.60046 1.34448 6.125C1.34448 3.8219 3.19763 1.96875 5.50073 1.96875ZM5.50073 4.9375C4.84436 4.9375 4.31323 5.46863 4.31323 6.125C4.31323 6.78137 4.84436 7.3125 5.50073 7.3125C6.1571 7.3125 6.68823 6.78137 6.68823 6.125C6.68823 5.46863 6.1571 4.9375 5.50073 4.9375Z" fill="black" fill-opacity="0.99"/>
</svg>
