<svg width="18" height="18" viewBox="0 0 18 18" fill="none" xmlns="http://www.w3.org/2000/svg">
<path d="M8.84375 0.3125C4.14233 0.3125 0.3125 4.14233 0.3125 8.84375C0.3125 13.5452 4.14233 17.375 8.84375 17.375C13.5452 17.375 17.375 13.5452 17.375 8.84375C17.375 4.14233 13.5452 0.3125 8.84375 0.3125ZM8.84375 1.625C12.8376 1.625 16.0625 4.84985 16.0625 8.84375C16.0625 12.8376 12.8376 16.0625 8.84375 16.0625C4.84985 16.0625 1.625 12.8376 1.625 8.84375C1.625 4.84985 4.84985 1.625 8.84375 1.625ZM8.1875 2.9375V9.5H12.125V8.1875H9.5V2.9375H8.1875Z" fill="#C4C4C4"/>
</svg>
