<svg width="1920" height="460" viewBox="0 0 1920 460" fill="none" xmlns="http://www.w3.org/2000/svg">
<mask id="mask0_1_663" style="mask-type:alpha" maskUnits="userSpaceOnUse" x="0" y="0" width="1920" height="460">
<rect width="1920" height="460" fill="black" fill-opacity="0.99"/>
</mask>
<g mask="url(#mask0_1_663)">
<path fill-rule="evenodd" clip-rule="evenodd" d="M269.501 -63.7367C363.781 -45.3151 391.092 66.8738 448.291 144.21C500.945 215.401 599.895 271.799 581.825 358.544C563.649 445.8 455.326 468.604 373.458 503.443C298.902 535.171 221.11 574.528 146.063 543.984C66.3634 511.546 24.0533 431.131 -4.23866 349.718C-38.6175 250.789 -82.7911 139.023 -24.9984 51.7332C36.3187 -40.8798 160.647 -85.0059 269.501 -63.7367Z" fill="url(#paint0_linear_1_663)"/>
<path fill-rule="evenodd" clip-rule="evenodd" d="M2018.5 113.263C2112.78 131.685 2140.09 243.874 2197.29 321.21C2249.94 392.401 2348.9 448.799 2330.83 535.544C2312.65 622.8 2204.33 645.604 2122.46 680.443C2047.9 712.171 1970.11 751.528 1895.06 720.984C1815.36 688.546 1773.05 608.131 1744.76 526.718C1710.38 427.789 1666.21 316.023 1724 228.733C1785.32 136.12 1909.65 91.9941 2018.5 113.263Z" fill="url(#paint1_linear_1_663)"/>
<g filter="url(#filter0_d_1_663)">
<path fill-rule="evenodd" clip-rule="evenodd" d="M452.768 -23.9601C480.36 23.8681 514.966 81.308 488.004 129.494C461.34 177.144 393.597 167.513 339.946 177.666C287.036 187.679 223.718 225.586 186.653 186.523C149.792 147.677 197.402 87.9497 204.444 34.863C209.92 -6.42071 192.552 -53.4308 222.344 -82.53C255.23 -114.651 306.338 -119.502 350.891 -108.178C395.818 -96.7581 429.604 -64.1128 452.768 -23.9601Z" fill="#002212"/>
</g>
<g filter="url(#filter1_f_1_663)">
<circle cx="521" cy="-48" r="163" fill="#FFB800" fill-opacity="0.31"/>
</g>
<g filter="url(#filter2_d_1_663)">
<path fill-rule="evenodd" clip-rule="evenodd" d="M-34.0961 115.972C-34.1182 92.2056 -34.6929 63.3472 -14.2874 51.1623C5.89115 39.1128 29.0938 57.2527 51.2875 64.9861C73.1751 72.6128 104.935 72.069 110.373 94.6002C115.782 117.007 85.196 129.063 71.1692 147.354C60.261 161.579 56.6451 182.845 39.2828 187.302C20.1177 192.222 0.0107286 183.057 -14.1773 169.265C-28.4842 155.358 -34.0774 135.925 -34.0961 115.972Z" fill="#002715"/>
</g>
<g filter="url(#filter3_d_1_663)">
<path fill-rule="evenodd" clip-rule="evenodd" d="M13.0149 490.924C-2.02829 472.344 -20.9406 450.228 -4.56191 424.129C11.6347 398.321 50.4748 393.682 81.549 381.719C112.195 369.92 149.326 343.715 169.98 356.932C190.52 370.076 162.047 404.337 157.053 430.036C153.169 450.021 162.34 469.598 144.669 487.179C125.164 506.586 95.6474 515.735 70.1918 516.459C44.5226 517.189 25.6439 506.522 13.0149 490.924Z" fill="#002414"/>
</g>
<g filter="url(#filter4_f_1_663)">
<circle cx="1918" cy="44" r="163" fill="#FFB800" fill-opacity="0.31"/>
</g>
<g filter="url(#filter5_f_1_663)">
<circle cx="1083.5" cy="541.5" r="268.5" fill="#02C66C" fill-opacity="0.31"/>
</g>
<g opacity="0.2">
<path d="M32.352 272.039C32.6463 271.745 32.6463 271.268 32.352 270.973C32.0577 270.679 31.5806 270.679 31.2863 270.973C30.992 271.268 30.992 271.745 31.2863 272.039C31.5806 272.333 32.0577 272.333 32.352 272.039Z" fill="white"/>
<path d="M55.5439 295.231C55.851 294.924 55.851 294.426 55.5439 294.119C55.2368 293.812 54.7389 293.812 54.4318 294.119C54.1247 294.426 54.1247 294.924 54.4318 295.231C54.7389 295.538 55.2368 295.538 55.5439 295.231Z" fill="white"/>
<path d="M78.7357 318.423C79.0556 318.103 79.0556 317.584 78.7357 317.264C78.4159 316.944 77.8972 316.944 77.5773 317.264C77.2574 317.584 77.2574 318.103 77.5773 318.423C77.8972 318.743 78.4159 318.743 78.7357 318.423Z" fill="white"/>
<path d="M101.881 341.568C102.188 341.261 102.188 340.763 101.881 340.456C101.574 340.149 101.076 340.149 100.769 340.456C100.462 340.763 100.462 341.261 100.769 341.568C101.076 341.875 101.574 341.875 101.881 341.568Z" fill="white"/>
<path d="M125.027 364.714C125.321 364.419 125.321 363.942 125.027 363.648C124.732 363.354 124.255 363.354 123.961 363.648C123.667 363.942 123.667 364.419 123.961 364.714C124.255 365.008 124.732 365.008 125.027 364.714Z" fill="white"/>
<path d="M32.3984 225.748C32.7182 225.428 32.7182 224.909 32.3984 224.589C32.0785 224.27 31.5598 224.27 31.2399 224.589C30.92 224.909 30.92 225.428 31.2399 225.748C31.5598 226.068 32.0785 226.068 32.3984 225.748Z" fill="white"/>
<path d="M55.6018 248.951C55.9409 248.612 55.9409 248.062 55.6018 247.723C55.2627 247.384 54.7129 247.384 54.3739 247.723C54.0348 248.062 54.0348 248.612 54.3739 248.951C54.7129 249.29 55.2627 249.29 55.6018 248.951Z" fill="white"/>
<path d="M78.8052 272.155C79.1635 271.797 79.1635 271.216 78.8052 270.857C78.447 270.499 77.8661 270.499 77.5078 270.857C77.1495 271.216 77.1495 271.797 77.5078 272.155C77.8661 272.513 78.447 272.513 78.8052 272.155Z" fill="white"/>
<path d="M102.009 295.358C102.386 294.981 102.386 294.369 102.009 293.991C101.631 293.614 101.019 293.614 100.642 293.991C100.264 294.369 100.264 294.981 100.642 295.358C101.019 295.736 101.631 295.736 102.009 295.358Z" fill="white"/>
<path d="M125.143 318.492C125.501 318.134 125.501 317.553 125.143 317.195C124.784 316.836 124.203 316.836 123.845 317.195C123.487 317.553 123.487 318.134 123.845 318.492C124.203 318.85 124.784 318.85 125.143 318.492Z" fill="white"/>
<path d="M148.277 341.626C148.616 341.287 148.616 340.737 148.277 340.398C147.937 340.059 147.388 340.059 147.049 340.398C146.71 340.737 146.71 341.287 147.049 341.626C147.388 341.965 147.937 341.965 148.277 341.626Z" fill="white"/>
<path d="M171.411 364.76C171.73 364.44 171.73 363.922 171.411 363.602C171.091 363.282 170.572 363.282 170.252 363.602C169.932 363.922 169.932 364.44 170.252 364.76C170.572 365.08 171.091 365.08 171.411 364.76Z" fill="white"/>
<path d="M32.3984 179.411C32.7182 179.091 32.7182 178.572 32.3984 178.252C32.0785 177.932 31.5598 177.932 31.2399 178.252C30.92 178.572 30.92 179.091 31.2399 179.411C31.5598 179.73 32.0785 179.73 32.3984 179.411Z" fill="white"/>
<path d="M55.6134 202.626C55.9589 202.28 55.9589 201.72 55.6134 201.374C55.2679 201.029 54.7078 201.029 54.3623 201.374C54.0168 201.72 54.0168 202.28 54.3623 202.626C54.7078 202.971 55.2679 202.971 55.6134 202.626Z" fill="white"/>
<path d="M78.84 225.852C79.2175 225.475 79.2175 224.863 78.84 224.485C78.4625 224.108 77.8505 224.108 77.4731 224.485C77.0956 224.863 77.0956 225.475 77.473 225.852C77.8505 226.23 78.4625 226.23 78.84 225.852Z" fill="white"/>
<path d="M102.067 249.079C102.476 248.669 102.476 248.005 102.067 247.596C101.657 247.187 100.993 247.187 100.584 247.596C100.174 248.005 100.174 248.669 100.584 249.079C100.993 249.488 101.657 249.488 102.067 249.079Z" fill="white"/>
<path d="M125.293 272.305C125.735 271.864 125.735 271.148 125.293 270.707C124.852 270.265 124.136 270.265 123.695 270.707C123.253 271.148 123.253 271.864 123.695 272.305C124.136 272.747 124.852 272.747 125.293 272.305Z" fill="white"/>
<path d="M148.404 295.416C148.813 295.007 148.813 294.343 148.404 293.933C147.995 293.524 147.331 293.524 146.921 293.933C146.512 294.343 146.512 295.007 146.921 295.416C147.331 295.826 147.995 295.826 148.404 295.416Z" fill="white"/>
<path d="M171.515 318.527C171.892 318.149 171.892 317.537 171.515 317.16C171.137 316.783 170.525 316.783 170.148 317.16C169.77 317.537 169.77 318.149 170.148 318.527C170.525 318.904 171.137 318.904 171.515 318.527Z" fill="white"/>
<path d="M194.626 341.638C194.971 341.292 194.971 340.732 194.626 340.387C194.28 340.041 193.72 340.041 193.374 340.387C193.029 340.732 193.029 341.292 193.374 341.638C193.72 341.983 194.28 341.983 194.626 341.638Z" fill="white"/>
<path d="M217.748 364.76C218.068 364.44 218.068 363.922 217.748 363.602C217.428 363.282 216.909 363.282 216.589 363.602C216.27 363.922 216.27 364.44 216.589 364.76C216.909 365.08 217.428 365.08 217.748 364.76Z" fill="white"/>
<path d="M32.352 133.027C32.6463 132.732 32.6463 132.255 32.352 131.961C32.0577 131.667 31.5806 131.667 31.2863 131.961C30.992 132.255 30.992 132.732 31.2863 133.027C31.5806 133.321 32.0577 133.321 32.352 133.027Z" fill="white"/>
<path d="M55.6018 156.277C55.9409 155.937 55.9409 155.388 55.6018 155.049C55.2627 154.71 54.7129 154.71 54.3739 155.049C54.0348 155.388 54.0348 155.937 54.3739 156.277C54.7129 156.616 55.2627 156.616 55.6018 156.277Z" fill="white"/>
<path d="M78.84 179.515C79.2175 179.137 79.2175 178.525 78.84 178.148C78.4625 177.77 77.8505 177.77 77.473 178.148C77.0956 178.525 77.0956 179.137 77.4731 179.515C77.8505 179.892 78.4625 179.892 78.84 179.515Z" fill="white"/>
<path d="M102.09 202.765C102.512 202.342 102.512 201.658 102.09 201.235C101.668 200.813 100.983 200.813 100.561 201.235C100.138 201.658 100.138 202.342 100.561 202.765C100.983 203.187 101.668 203.187 102.09 202.765Z" fill="white"/>
<path d="M125.328 226.003C125.789 225.542 125.789 224.795 125.328 224.335C124.867 223.874 124.12 223.874 123.66 224.335C123.199 224.795 123.199 225.542 123.66 226.003C124.12 226.463 124.867 226.463 125.328 226.003Z" fill="white"/>
<path d="M148.566 249.241C149.065 248.742 149.065 247.933 148.566 247.434C148.067 246.935 147.258 246.935 146.759 247.434C146.26 247.933 146.26 248.742 146.759 249.241C147.258 249.74 148.067 249.74 148.566 249.241Z" fill="white"/>
<path d="M171.665 272.34C172.126 271.88 172.126 271.133 171.665 270.672C171.205 270.211 170.458 270.211 169.997 270.672C169.537 271.133 169.537 271.88 169.997 272.34C170.458 272.801 171.205 272.801 171.665 272.34Z" fill="white"/>
<path d="M194.765 295.439C195.187 295.017 195.187 294.332 194.765 293.91C194.342 293.488 193.658 293.488 193.235 293.91C192.813 294.332 192.813 295.017 193.235 295.439C193.658 295.862 194.342 295.862 194.765 295.439Z" fill="white"/>
<path d="M217.852 318.527C218.23 318.149 218.23 317.537 217.852 317.16C217.475 316.783 216.863 316.783 216.485 317.16C216.108 317.537 216.108 318.149 216.485 318.527C216.863 318.904 217.475 318.904 217.852 318.527Z" fill="white"/>
<path d="M240.951 341.626C241.29 341.287 241.29 340.737 240.951 340.398C240.612 340.059 240.062 340.059 239.723 340.398C239.384 340.737 239.384 341.287 239.723 341.626C240.062 341.965 240.612 341.965 240.951 341.626Z" fill="white"/>
<path d="M264.039 364.714C264.333 364.419 264.333 363.942 264.039 363.648C263.745 363.354 263.267 363.354 262.973 363.648C262.679 363.942 262.679 364.419 262.973 364.714C263.268 365.008 263.745 365.008 264.039 364.714Z" fill="white"/>
<path d="M55.5439 109.881C55.851 109.574 55.851 109.076 55.5439 108.769C55.2368 108.462 54.7389 108.462 54.4318 108.769C54.1247 109.076 54.1247 109.574 54.4318 109.881C54.7389 110.188 55.2368 110.188 55.5439 109.881Z" fill="white"/>
<path d="M78.8052 133.143C79.1635 132.784 79.1635 132.203 78.8052 131.845C78.447 131.487 77.8661 131.487 77.5078 131.845C77.1495 132.203 77.1495 132.784 77.5078 133.143C77.8661 133.501 78.447 133.501 78.8052 133.143Z" fill="white"/>
<path d="M102.067 156.404C102.476 155.995 102.476 155.331 102.067 154.921C101.657 154.512 100.993 154.512 100.584 154.921C100.174 155.331 100.174 155.995 100.584 156.404C100.993 156.813 101.657 156.813 102.067 156.404Z" fill="white"/>
<path d="M125.328 179.665C125.789 179.205 125.789 178.458 125.328 177.997C124.867 177.537 124.12 177.537 123.66 177.997C123.199 178.458 123.199 179.205 123.66 179.665C124.12 180.126 124.867 180.126 125.328 179.665Z" fill="white"/>
<path d="M148.589 202.927C149.101 202.415 149.101 201.585 148.589 201.073C148.078 200.561 147.248 200.561 146.736 201.073C146.224 201.585 146.224 202.415 146.736 202.927C147.248 203.439 148.078 203.439 148.589 202.927Z" fill="white"/>
<path d="M171.851 226.188C172.414 225.625 172.414 224.712 171.851 224.149C171.288 223.586 170.375 223.586 169.812 224.149C169.249 224.712 169.249 225.625 169.812 226.188C170.375 226.751 171.288 226.751 171.851 226.188Z" fill="white"/>
<path d="M194.927 249.264C195.439 248.752 195.439 247.922 194.927 247.411C194.415 246.899 193.585 246.899 193.073 247.411C192.561 247.922 192.561 248.752 193.073 249.264C193.585 249.776 194.415 249.776 194.927 249.264Z" fill="white"/>
<path d="M218.003 272.34C218.463 271.88 218.463 271.133 218.003 270.672C217.542 270.211 216.795 270.211 216.335 270.672C215.874 271.133 215.874 271.88 216.335 272.34C216.795 272.801 217.542 272.801 218.003 272.34Z" fill="white"/>
<path d="M241.079 295.416C241.488 295.007 241.488 294.343 241.079 293.933C240.669 293.524 240.005 293.524 239.596 293.933C239.187 294.343 239.187 295.007 239.596 295.416C240.005 295.826 240.669 295.826 241.079 295.416Z" fill="white"/>
<path d="M264.155 318.492C264.513 318.134 264.513 317.553 264.155 317.195C263.797 316.836 263.216 316.836 262.857 317.195C262.499 317.553 262.499 318.134 262.857 318.492C263.216 318.85 263.797 318.85 264.155 318.492Z" fill="white"/>
<path d="M287.231 341.568C287.538 341.261 287.538 340.763 287.231 340.456C286.924 340.149 286.426 340.149 286.119 340.456C285.812 340.763 285.812 341.261 286.119 341.568C286.426 341.875 286.924 341.875 287.231 341.568Z" fill="white"/>
<path d="M78.7357 86.7357C79.0556 86.4159 79.0556 85.8972 78.7357 85.5773C78.4159 85.2574 77.8972 85.2574 77.5773 85.5773C77.2574 85.8972 77.2574 86.4159 77.5773 86.7357C77.8972 87.0556 78.4159 87.0556 78.7357 86.7357Z" fill="white"/>
<path d="M102.009 110.009C102.386 109.631 102.386 109.019 102.009 108.642C101.631 108.264 101.019 108.264 100.642 108.642C100.264 109.019 100.264 109.631 100.642 110.009C101.019 110.386 101.631 110.386 102.009 110.009Z" fill="white"/>
<path d="M125.293 133.293C125.735 132.852 125.735 132.136 125.293 131.695C124.852 131.253 124.136 131.253 123.695 131.695C123.253 132.136 123.253 132.852 123.695 133.293C124.136 133.735 124.852 133.735 125.293 133.293Z" fill="white"/>
<path d="M148.566 156.566C149.065 156.067 149.065 155.258 148.566 154.759C148.067 154.26 147.258 154.26 146.759 154.759C146.26 155.258 146.26 156.067 146.759 156.566C147.258 157.065 148.067 157.065 148.566 156.566Z" fill="white"/>
<path d="M171.851 179.851C172.414 179.288 172.414 178.375 171.851 177.812C171.288 177.249 170.375 177.249 169.812 177.812C169.249 178.375 169.249 179.288 169.812 179.851C170.375 180.414 171.288 180.414 171.851 179.851Z" fill="white"/>
<path d="M195.135 203.135C195.762 202.508 195.762 201.492 195.135 200.865C194.508 200.238 193.492 200.238 192.865 200.865C192.238 201.492 192.238 202.508 192.865 203.135C193.492 203.762 194.508 203.762 195.135 203.135Z" fill="white"/>
<path d="M218.188 226.188C218.751 225.625 218.751 224.712 218.188 224.149C217.625 223.586 216.712 223.586 216.149 224.149C215.586 224.712 215.586 225.625 216.149 226.188C216.712 226.751 217.625 226.751 218.188 226.188Z" fill="white"/>
<path d="M241.241 249.241C241.74 248.742 241.74 247.933 241.241 247.434C240.742 246.935 239.933 246.935 239.434 247.434C238.935 247.933 238.935 248.742 239.434 249.241C239.933 249.74 240.742 249.74 241.241 249.241Z" fill="white"/>
<path d="M264.305 272.305C264.747 271.864 264.747 271.148 264.305 270.707C263.864 270.265 263.148 270.265 262.707 270.707C262.265 271.148 262.265 271.864 262.707 272.305C263.148 272.747 263.864 272.747 264.305 272.305Z" fill="white"/>
<path d="M287.358 295.358C287.736 294.981 287.736 294.369 287.358 293.991C286.981 293.614 286.369 293.614 285.991 293.991C285.614 294.369 285.614 294.981 285.991 295.358C286.369 295.736 286.981 295.736 287.358 295.358Z" fill="white"/>
<path d="M310.423 318.423C310.743 318.103 310.743 317.584 310.423 317.264C310.103 316.944 309.584 316.944 309.264 317.264C308.944 317.584 308.944 318.103 309.264 318.423C309.584 318.743 310.103 318.743 310.423 318.423Z" fill="white"/>
<path d="M101.881 63.5439C102.188 63.2368 102.188 62.7389 101.881 62.4318C101.574 62.1247 101.076 62.1247 100.769 62.4318C100.462 62.7389 100.462 63.2368 100.769 63.5439C101.076 63.851 101.574 63.851 101.881 63.5439Z" fill="white"/>
<path d="M125.143 86.8052C125.501 86.447 125.501 85.8661 125.143 85.5078C124.784 85.1495 124.203 85.1495 123.845 85.5078C123.487 85.8661 123.487 86.447 123.845 86.8052C124.203 87.1635 124.784 87.1635 125.143 86.8052Z" fill="white"/>
<path d="M148.404 110.067C148.813 109.657 148.813 108.993 148.404 108.584C147.995 108.174 147.331 108.174 146.921 108.584C146.512 108.993 146.512 109.657 146.921 110.067C147.331 110.476 147.995 110.476 148.404 110.067Z" fill="white"/>
<path d="M171.665 133.328C172.126 132.867 172.126 132.12 171.665 131.66C171.205 131.199 170.458 131.199 169.997 131.66C169.537 132.12 169.537 132.867 169.997 133.328C170.458 133.789 171.205 133.789 171.665 133.328Z" fill="white"/>
<path d="M194.927 156.589C195.439 156.078 195.439 155.248 194.927 154.736C194.415 154.224 193.585 154.224 193.073 154.736C192.561 155.248 192.561 156.078 193.073 156.589C193.585 157.101 194.415 157.101 194.927 156.589Z" fill="white"/>
<path d="M218.188 179.851C218.751 179.288 218.751 178.375 218.188 177.812C217.625 177.249 216.712 177.249 216.149 177.812C215.586 178.375 215.586 179.288 216.149 179.851C216.712 180.414 217.625 180.414 218.188 179.851Z" fill="white"/>
<path d="M241.264 202.927C241.776 202.415 241.776 201.585 241.264 201.073C240.752 200.561 239.922 200.561 239.411 201.073C238.899 201.585 238.899 202.415 239.411 202.927C239.922 203.439 240.752 203.439 241.264 202.927Z" fill="white"/>
<path d="M264.34 226.003C264.801 225.542 264.801 224.795 264.34 224.335C263.88 223.874 263.133 223.874 262.672 224.335C262.211 224.795 262.211 225.542 262.672 226.003C263.133 226.463 263.88 226.463 264.34 226.003Z" fill="white"/>
<path d="M287.416 249.079C287.826 248.669 287.826 248.005 287.416 247.596C287.007 247.187 286.343 247.187 285.933 247.596C285.524 248.005 285.524 248.669 285.933 249.079C286.343 249.488 287.007 249.488 287.416 249.079Z" fill="white"/>
<path d="M310.492 272.155C310.85 271.797 310.85 271.216 310.492 270.857C310.134 270.499 309.553 270.499 309.195 270.857C308.836 271.216 308.836 271.797 309.195 272.155C309.553 272.513 310.134 272.513 310.492 272.155Z" fill="white"/>
<path d="M333.568 295.231C333.875 294.924 333.875 294.426 333.568 294.119C333.261 293.812 332.763 293.812 332.456 294.119C332.149 294.426 332.149 294.924 332.456 295.231C332.763 295.538 333.261 295.538 333.568 295.231Z" fill="white"/>
<path d="M125.027 40.352C125.321 40.0577 125.321 39.5806 125.027 39.2862C124.732 38.9919 124.255 38.992 123.961 39.2863C123.667 39.5806 123.667 40.0577 123.961 40.352C124.255 40.6463 124.732 40.6463 125.027 40.352Z" fill="white"/>
<path d="M148.277 63.6018C148.616 63.2627 148.616 62.7129 148.277 62.3739C147.937 62.0348 147.388 62.0348 147.049 62.3739C146.71 62.7129 146.71 63.2627 147.049 63.6018C147.388 63.9409 147.937 63.9409 148.277 63.6018Z" fill="white"/>
<path d="M171.515 86.84C171.892 86.4625 171.892 85.8505 171.515 85.4731C171.137 85.0956 170.525 85.0956 170.148 85.473C169.77 85.8505 169.77 86.4625 170.148 86.84C170.525 87.2175 171.137 87.2175 171.515 86.84Z" fill="white"/>
<path d="M194.765 110.09C195.187 109.668 195.187 108.983 194.765 108.561C194.342 108.138 193.658 108.138 193.235 108.561C192.813 108.983 192.813 109.668 193.235 110.09C193.658 110.512 194.342 110.512 194.765 110.09Z" fill="white"/>
<path d="M218.003 133.328C218.463 132.867 218.463 132.12 218.003 131.66C217.542 131.199 216.795 131.199 216.335 131.66C215.874 132.12 215.874 132.867 216.335 133.328C216.795 133.789 217.542 133.789 218.003 133.328Z" fill="white"/>
<path d="M241.241 156.566C241.74 156.067 241.74 155.258 241.241 154.759C240.742 154.26 239.933 154.26 239.434 154.759C238.935 155.258 238.935 156.067 239.434 156.566C239.933 157.065 240.742 157.065 241.241 156.566Z" fill="white"/>
<path d="M264.34 179.665C264.801 179.205 264.801 178.458 264.34 177.997C263.88 177.537 263.133 177.537 262.672 177.997C262.211 178.458 262.211 179.205 262.672 179.665C263.133 180.126 263.88 180.126 264.34 179.665Z" fill="white"/>
<path d="M287.439 202.765C287.862 202.342 287.862 201.658 287.439 201.235C287.017 200.813 286.332 200.813 285.91 201.235C285.488 201.658 285.488 202.342 285.91 202.765C286.332 203.187 287.017 203.187 287.439 202.765Z" fill="white"/>
<path d="M310.527 225.852C310.904 225.475 310.904 224.863 310.527 224.485C310.149 224.108 309.537 224.108 309.16 224.485C308.783 224.863 308.783 225.475 309.16 225.852C309.537 226.23 310.149 226.23 310.527 225.852Z" fill="white"/>
<path d="M333.626 248.951C333.965 248.612 333.965 248.062 333.626 247.723C333.287 247.384 332.737 247.384 332.398 247.723C332.059 248.062 332.059 248.612 332.398 248.951C332.737 249.29 333.287 249.29 333.626 248.951Z" fill="white"/>
<path d="M356.714 272.039C357.008 271.745 357.008 271.267 356.714 270.973C356.419 270.679 355.942 270.679 355.648 270.973C355.354 271.267 355.354 271.745 355.648 272.039C355.942 272.333 356.419 272.333 356.714 272.039Z" fill="white"/>
<path d="M171.411 40.3984C171.73 40.0785 171.73 39.5598 171.411 39.2399C171.091 38.92 170.572 38.92 170.252 39.2399C169.932 39.5598 169.932 40.0785 170.252 40.3984C170.572 40.7182 171.091 40.7182 171.411 40.3984Z" fill="white"/>
<path d="M194.626 63.6134C194.971 63.2679 194.971 62.7078 194.626 62.3623C194.28 62.0168 193.72 62.0168 193.374 62.3623C193.029 62.7078 193.029 63.2679 193.374 63.6134C193.72 63.9589 194.28 63.9589 194.626 63.6134Z" fill="white"/>
<path d="M217.852 86.84C218.23 86.4625 218.23 85.8505 217.852 85.4731C217.475 85.0956 216.863 85.0956 216.485 85.4731C216.108 85.8505 216.108 86.4625 216.485 86.84C216.863 87.2175 217.475 87.2175 217.852 86.84Z" fill="white"/>
<path d="M241.079 110.067C241.488 109.657 241.488 108.993 241.079 108.584C240.669 108.174 240.005 108.174 239.596 108.584C239.187 108.993 239.187 109.657 239.596 110.067C240.005 110.476 240.669 110.476 241.079 110.067Z" fill="white"/>
<path d="M264.305 133.293C264.747 132.852 264.747 132.136 264.305 131.695C263.864 131.253 263.148 131.253 262.707 131.695C262.265 132.136 262.265 132.852 262.707 133.293C263.148 133.735 263.864 133.735 264.305 133.293Z" fill="white"/>
<path d="M287.416 156.404C287.826 155.995 287.826 155.331 287.416 154.921C287.007 154.512 286.343 154.512 285.933 154.921C285.524 155.331 285.524 155.995 285.933 156.404C286.343 156.813 287.007 156.813 287.416 156.404Z" fill="white"/>
<path d="M310.527 179.515C310.904 179.137 310.904 178.525 310.527 178.148C310.149 177.77 309.537 177.77 309.16 178.148C308.783 178.525 308.783 179.137 309.16 179.515C309.537 179.892 310.149 179.892 310.527 179.515Z" fill="white"/>
<path d="M333.638 202.626C333.983 202.28 333.983 201.72 333.638 201.374C333.292 201.029 332.732 201.029 332.387 201.374C332.041 201.72 332.041 202.28 332.387 202.626C332.732 202.971 333.292 202.971 333.638 202.626Z" fill="white"/>
<path d="M356.76 225.748C357.08 225.428 357.08 224.909 356.76 224.589C356.44 224.27 355.922 224.27 355.602 224.589C355.282 224.909 355.282 225.428 355.602 225.748C355.922 226.068 356.44 226.068 356.76 225.748Z" fill="white"/>
<path d="M217.748 40.3984C218.068 40.0785 218.068 39.5598 217.748 39.2399C217.428 38.92 216.909 38.92 216.589 39.2399C216.27 39.5598 216.27 40.0785 216.589 40.3984C216.909 40.7182 217.428 40.7182 217.748 40.3984Z" fill="white"/>
<path d="M240.951 63.6018C241.29 63.2627 241.29 62.7129 240.951 62.3739C240.612 62.0348 240.062 62.0348 239.723 62.3739C239.384 62.7129 239.384 63.2627 239.723 63.6018C240.062 63.9409 240.612 63.9409 240.951 63.6018Z" fill="white"/>
<path d="M264.155 86.8052C264.513 86.447 264.513 85.8661 264.155 85.5078C263.797 85.1495 263.216 85.1495 262.857 85.5078C262.499 85.8661 262.499 86.447 262.857 86.8052C263.216 87.1635 263.797 87.1635 264.155 86.8052Z" fill="white"/>
<path d="M287.358 110.009C287.736 109.631 287.736 109.019 287.358 108.642C286.981 108.264 286.369 108.264 285.991 108.642C285.614 109.019 285.614 109.631 285.991 110.009C286.369 110.386 286.981 110.386 287.358 110.009Z" fill="white"/>
<path d="M310.492 133.143C310.85 132.784 310.85 132.203 310.492 131.845C310.134 131.487 309.553 131.487 309.195 131.845C308.836 132.203 308.836 132.784 309.195 133.143C309.553 133.501 310.134 133.501 310.492 133.143Z" fill="white"/>
<path d="M333.626 156.277C333.965 155.937 333.965 155.388 333.626 155.049C333.287 154.71 332.737 154.71 332.398 155.049C332.059 155.388 332.059 155.937 332.398 156.277C332.737 156.616 333.287 156.616 333.626 156.277Z" fill="white"/>
<path d="M356.76 179.411C357.08 179.091 357.08 178.572 356.76 178.252C356.44 177.932 355.922 177.932 355.602 178.252C355.282 178.572 355.282 179.091 355.602 179.411C355.922 179.73 356.44 179.73 356.76 179.411Z" fill="white"/>
<path d="M264.039 40.352C264.333 40.0577 264.333 39.5806 264.039 39.2862C263.745 38.9919 263.268 38.992 262.973 39.2863C262.679 39.5806 262.679 40.0577 262.973 40.352C263.267 40.6463 263.745 40.6463 264.039 40.352Z" fill="white"/>
<path d="M287.231 63.5439C287.538 63.2368 287.538 62.7389 287.231 62.4318C286.924 62.1247 286.426 62.1247 286.119 62.4318C285.812 62.7389 285.812 63.2368 286.119 63.5439C286.426 63.851 286.924 63.851 287.231 63.5439Z" fill="white"/>
<path d="M310.423 86.7357C310.743 86.4159 310.743 85.8972 310.423 85.5773C310.103 85.2574 309.584 85.2574 309.264 85.5773C308.944 85.8972 308.944 86.4159 309.264 86.7357C309.584 87.0556 310.103 87.0556 310.423 86.7357Z" fill="white"/>
<path d="M333.568 109.881C333.875 109.574 333.875 109.076 333.568 108.769C333.261 108.462 332.763 108.462 332.456 108.769C332.149 109.076 332.149 109.574 332.456 109.881C332.763 110.188 333.261 110.188 333.568 109.881Z" fill="white"/>
<path d="M356.714 133.027C357.008 132.732 357.008 132.255 356.714 131.961C356.419 131.667 355.942 131.667 355.648 131.961C355.354 132.255 355.354 132.732 355.648 133.027C355.942 133.321 356.419 133.321 356.714 133.027Z" fill="white"/>
</g>
<g opacity="0.2">
<path d="M1711.35 414.039C1711.65 413.745 1711.65 413.268 1711.35 412.973C1711.06 412.679 1710.58 412.679 1710.29 412.973C1709.99 413.268 1709.99 413.745 1710.29 414.039C1710.58 414.333 1711.06 414.333 1711.35 414.039Z" fill="white"/>
<path d="M1734.54 437.231C1734.85 436.924 1734.85 436.426 1734.54 436.119C1734.24 435.812 1733.74 435.812 1733.43 436.119C1733.12 436.426 1733.12 436.924 1733.43 437.231C1733.74 437.538 1734.24 437.538 1734.54 437.231Z" fill="white"/>
<path d="M1757.74 460.423C1758.06 460.103 1758.06 459.584 1757.74 459.264C1757.42 458.944 1756.9 458.944 1756.58 459.264C1756.26 459.584 1756.26 460.103 1756.58 460.423C1756.9 460.743 1757.42 460.743 1757.74 460.423Z" fill="white"/>
<path d="M1780.88 483.568C1781.19 483.261 1781.19 482.763 1780.88 482.456C1780.57 482.149 1780.08 482.149 1779.77 482.456C1779.46 482.763 1779.46 483.261 1779.77 483.568C1780.08 483.875 1780.57 483.875 1780.88 483.568Z" fill="white"/>
<path d="M1804.03 506.714C1804.32 506.419 1804.32 505.942 1804.03 505.648C1803.73 505.354 1803.26 505.354 1802.96 505.648C1802.67 505.942 1802.67 506.419 1802.96 506.714C1803.26 507.008 1803.73 507.008 1804.03 506.714Z" fill="white"/>
<path d="M1711.4 367.748C1711.72 367.428 1711.72 366.909 1711.4 366.589C1711.08 366.27 1710.56 366.27 1710.24 366.589C1709.92 366.909 1709.92 367.428 1710.24 367.748C1710.56 368.068 1711.08 368.068 1711.4 367.748Z" fill="white"/>
<path d="M1734.6 390.951C1734.94 390.612 1734.94 390.062 1734.6 389.723C1734.26 389.384 1733.71 389.384 1733.37 389.723C1733.03 390.062 1733.03 390.612 1733.37 390.951C1733.71 391.29 1734.26 391.29 1734.6 390.951Z" fill="white"/>
<path d="M1757.81 414.155C1758.16 413.797 1758.16 413.216 1757.81 412.857C1757.45 412.499 1756.87 412.499 1756.51 412.857C1756.15 413.216 1756.15 413.797 1756.51 414.155C1756.87 414.513 1757.45 414.513 1757.81 414.155Z" fill="white"/>
<path d="M1781.01 437.358C1781.39 436.981 1781.39 436.369 1781.01 435.991C1780.63 435.614 1780.02 435.614 1779.64 435.991C1779.26 436.369 1779.26 436.981 1779.64 437.358C1780.02 437.736 1780.63 437.736 1781.01 437.358Z" fill="white"/>
<path d="M1804.14 460.492C1804.5 460.134 1804.5 459.553 1804.14 459.195C1803.78 458.836 1803.2 458.836 1802.85 459.195C1802.49 459.553 1802.49 460.134 1802.85 460.492C1803.2 460.85 1803.78 460.85 1804.14 460.492Z" fill="white"/>
<path d="M1827.28 483.626C1827.62 483.287 1827.62 482.737 1827.28 482.398C1826.94 482.059 1826.39 482.059 1826.05 482.398C1825.71 482.737 1825.71 483.287 1826.05 483.626C1826.39 483.965 1826.94 483.965 1827.28 483.626Z" fill="white"/>
<path d="M1850.41 506.76C1850.73 506.44 1850.73 505.922 1850.41 505.602C1850.09 505.282 1849.57 505.282 1849.25 505.602C1848.93 505.922 1848.93 506.44 1849.25 506.76C1849.57 507.08 1850.09 507.08 1850.41 506.76Z" fill="white"/>
<path d="M1711.4 321.411C1711.72 321.091 1711.72 320.572 1711.4 320.252C1711.08 319.932 1710.56 319.932 1710.24 320.252C1709.92 320.572 1709.92 321.091 1710.24 321.411C1710.56 321.73 1711.08 321.73 1711.4 321.411Z" fill="white"/>
<path d="M1734.61 344.626C1734.96 344.28 1734.96 343.72 1734.61 343.374C1734.27 343.029 1733.71 343.029 1733.36 343.374C1733.02 343.72 1733.02 344.28 1733.36 344.626C1733.71 344.971 1734.27 344.971 1734.61 344.626Z" fill="white"/>
<path d="M1757.84 367.852C1758.22 367.475 1758.22 366.863 1757.84 366.485C1757.46 366.108 1756.85 366.108 1756.47 366.485C1756.1 366.863 1756.1 367.475 1756.47 367.852C1756.85 368.23 1757.46 368.23 1757.84 367.852Z" fill="white"/>
<path d="M1781.07 391.079C1781.48 390.669 1781.48 390.005 1781.07 389.596C1780.66 389.187 1779.99 389.187 1779.58 389.596C1779.17 390.005 1779.17 390.669 1779.58 391.079C1779.99 391.488 1780.66 391.488 1781.07 391.079Z" fill="white"/>
<path d="M1804.29 414.305C1804.73 413.864 1804.73 413.148 1804.29 412.707C1803.85 412.265 1803.14 412.265 1802.69 412.707C1802.25 413.148 1802.25 413.864 1802.69 414.305C1803.14 414.747 1803.85 414.747 1804.29 414.305Z" fill="white"/>
<path d="M1827.4 437.416C1827.81 437.007 1827.81 436.343 1827.4 435.933C1826.99 435.524 1826.33 435.524 1825.92 435.933C1825.51 436.343 1825.51 437.007 1825.92 437.416C1826.33 437.826 1826.99 437.826 1827.4 437.416Z" fill="white"/>
<path d="M1850.51 460.527C1850.89 460.149 1850.89 459.537 1850.51 459.16C1850.14 458.783 1849.53 458.783 1849.15 459.16C1848.77 459.537 1848.77 460.149 1849.15 460.527C1849.53 460.904 1850.14 460.904 1850.51 460.527Z" fill="white"/>
<path d="M1873.63 483.638C1873.97 483.292 1873.97 482.732 1873.63 482.387C1873.28 482.041 1872.72 482.041 1872.37 482.387C1872.03 482.732 1872.03 483.292 1872.37 483.638C1872.72 483.983 1873.28 483.983 1873.63 483.638Z" fill="white"/>
<path d="M1896.75 506.76C1897.07 506.44 1897.07 505.922 1896.75 505.602C1896.43 505.282 1895.91 505.282 1895.59 505.602C1895.27 505.922 1895.27 506.44 1895.59 506.76C1895.91 507.08 1896.43 507.08 1896.75 506.76Z" fill="white"/>
<path d="M1711.35 275.027C1711.65 274.732 1711.65 274.255 1711.35 273.961C1711.06 273.667 1710.58 273.667 1710.29 273.961C1709.99 274.255 1709.99 274.732 1710.29 275.027C1710.58 275.321 1711.06 275.321 1711.35 275.027Z" fill="white"/>
<path d="M1734.6 298.277C1734.94 297.937 1734.94 297.388 1734.6 297.049C1734.26 296.71 1733.71 296.71 1733.37 297.049C1733.03 297.388 1733.03 297.937 1733.37 298.277C1733.71 298.616 1734.26 298.616 1734.6 298.277Z" fill="white"/>
<path d="M1757.84 321.515C1758.22 321.137 1758.22 320.525 1757.84 320.148C1757.46 319.77 1756.85 319.77 1756.47 320.148C1756.1 320.525 1756.1 321.137 1756.47 321.515C1756.85 321.892 1757.46 321.892 1757.84 321.515Z" fill="white"/>
<path d="M1781.09 344.765C1781.51 344.342 1781.51 343.658 1781.09 343.235C1780.67 342.813 1779.98 342.813 1779.56 343.235C1779.14 343.658 1779.14 344.342 1779.56 344.765C1779.98 345.187 1780.67 345.187 1781.09 344.765Z" fill="white"/>
<path d="M1804.33 368.003C1804.79 367.542 1804.79 366.795 1804.33 366.335C1803.87 365.874 1803.12 365.874 1802.66 366.335C1802.2 366.795 1802.2 367.542 1802.66 368.003C1803.12 368.463 1803.87 368.463 1804.33 368.003Z" fill="white"/>
<path d="M1827.57 391.241C1828.07 390.742 1828.07 389.933 1827.57 389.434C1827.07 388.935 1826.26 388.935 1825.76 389.434C1825.26 389.933 1825.26 390.742 1825.76 391.241C1826.26 391.74 1827.07 391.74 1827.57 391.241Z" fill="white"/>
<path d="M1850.67 414.34C1851.13 413.88 1851.13 413.133 1850.67 412.672C1850.2 412.211 1849.46 412.211 1849 412.672C1848.54 413.133 1848.54 413.88 1849 414.34C1849.46 414.801 1850.2 414.801 1850.67 414.34Z" fill="white"/>
<path d="M1873.76 437.439C1874.19 437.017 1874.19 436.332 1873.76 435.91C1873.34 435.488 1872.66 435.488 1872.24 435.91C1871.81 436.332 1871.81 437.017 1872.24 437.439C1872.66 437.862 1873.34 437.862 1873.76 437.439Z" fill="white"/>
<path d="M1896.85 460.527C1897.23 460.149 1897.23 459.537 1896.85 459.16C1896.47 458.783 1895.86 458.783 1895.49 459.16C1895.11 459.537 1895.11 460.149 1895.49 460.527C1895.86 460.904 1896.47 460.904 1896.85 460.527Z" fill="white"/>
<path d="M1919.95 483.626C1920.29 483.287 1920.29 482.737 1919.95 482.398C1919.61 482.059 1919.06 482.059 1918.72 482.398C1918.38 482.737 1918.38 483.287 1918.72 483.626C1919.06 483.965 1919.61 483.965 1919.95 483.626Z" fill="white"/>
<path d="M1943.04 506.714C1943.33 506.419 1943.33 505.942 1943.04 505.648C1942.74 505.354 1942.27 505.354 1941.97 505.648C1941.68 505.942 1941.68 506.419 1941.97 506.714C1942.27 507.008 1942.74 507.008 1943.04 506.714Z" fill="white"/>
<path d="M1734.54 251.881C1734.85 251.574 1734.85 251.076 1734.54 250.769C1734.24 250.462 1733.74 250.462 1733.43 250.769C1733.12 251.076 1733.12 251.574 1733.43 251.881C1733.74 252.188 1734.24 252.188 1734.54 251.881Z" fill="white"/>
<path d="M1757.81 275.143C1758.16 274.784 1758.16 274.203 1757.81 273.845C1757.45 273.487 1756.87 273.487 1756.51 273.845C1756.15 274.203 1756.15 274.784 1756.51 275.143C1756.87 275.501 1757.45 275.501 1757.81 275.143Z" fill="white"/>
<path d="M1781.07 298.404C1781.48 297.995 1781.48 297.331 1781.07 296.921C1780.66 296.512 1779.99 296.512 1779.58 296.921C1779.17 297.331 1779.17 297.995 1779.58 298.404C1779.99 298.813 1780.66 298.813 1781.07 298.404Z" fill="white"/>
<path d="M1804.33 321.665C1804.79 321.205 1804.79 320.458 1804.33 319.997C1803.87 319.537 1803.12 319.537 1802.66 319.997C1802.2 320.458 1802.2 321.205 1802.66 321.665C1803.12 322.126 1803.87 322.126 1804.33 321.665Z" fill="white"/>
<path d="M1827.59 344.927C1828.1 344.415 1828.1 343.585 1827.59 343.073C1827.08 342.561 1826.25 342.561 1825.74 343.073C1825.22 343.585 1825.22 344.415 1825.74 344.927C1826.25 345.439 1827.08 345.439 1827.59 344.927Z" fill="white"/>
<path d="M1850.85 368.188C1851.41 367.625 1851.41 366.712 1850.85 366.149C1850.29 365.586 1849.37 365.586 1848.81 366.149C1848.25 366.712 1848.25 367.625 1848.81 368.188C1849.37 368.751 1850.29 368.751 1850.85 368.188Z" fill="white"/>
<path d="M1873.93 391.264C1874.44 390.752 1874.44 389.922 1873.93 389.411C1873.41 388.899 1872.59 388.899 1872.07 389.411C1871.56 389.922 1871.56 390.752 1872.07 391.264C1872.59 391.776 1873.41 391.776 1873.93 391.264Z" fill="white"/>
<path d="M1897 414.34C1897.46 413.88 1897.46 413.133 1897 412.672C1896.54 412.211 1895.8 412.211 1895.33 412.672C1894.87 413.133 1894.87 413.88 1895.33 414.34C1895.8 414.801 1896.54 414.801 1897 414.34Z" fill="white"/>
<path d="M1920.08 437.416C1920.49 437.007 1920.49 436.343 1920.08 435.933C1919.67 435.524 1919.01 435.524 1918.6 435.933C1918.19 436.343 1918.19 437.007 1918.6 437.416C1919.01 437.826 1919.67 437.826 1920.08 437.416Z" fill="white"/>
<path d="M1943.15 460.492C1943.51 460.134 1943.51 459.553 1943.15 459.195C1942.8 458.836 1942.22 458.836 1941.86 459.195C1941.5 459.553 1941.5 460.134 1941.86 460.492C1942.22 460.85 1942.8 460.85 1943.15 460.492Z" fill="white"/>
<path d="M1966.23 483.568C1966.54 483.261 1966.54 482.763 1966.23 482.456C1965.92 482.149 1965.43 482.149 1965.12 482.456C1964.81 482.763 1964.81 483.261 1965.12 483.568C1965.43 483.875 1965.92 483.875 1966.23 483.568Z" fill="white"/>
<path d="M1757.74 228.736C1758.06 228.416 1758.06 227.897 1757.74 227.577C1757.42 227.257 1756.9 227.257 1756.58 227.577C1756.26 227.897 1756.26 228.416 1756.58 228.736C1756.9 229.056 1757.42 229.056 1757.74 228.736Z" fill="white"/>
<path d="M1781.01 252.009C1781.39 251.631 1781.39 251.019 1781.01 250.642C1780.63 250.264 1780.02 250.264 1779.64 250.642C1779.26 251.019 1779.26 251.631 1779.64 252.009C1780.02 252.386 1780.63 252.386 1781.01 252.009Z" fill="white"/>
<path d="M1804.29 275.293C1804.73 274.852 1804.73 274.136 1804.29 273.695C1803.85 273.253 1803.14 273.253 1802.69 273.695C1802.25 274.136 1802.25 274.852 1802.69 275.293C1803.14 275.735 1803.85 275.735 1804.29 275.293Z" fill="white"/>
<path d="M1827.57 298.566C1828.07 298.067 1828.07 297.258 1827.57 296.759C1827.07 296.26 1826.26 296.26 1825.76 296.759C1825.26 297.258 1825.26 298.067 1825.76 298.566C1826.26 299.065 1827.07 299.065 1827.57 298.566Z" fill="white"/>
<path d="M1850.85 321.851C1851.41 321.288 1851.41 320.375 1850.85 319.812C1850.29 319.249 1849.37 319.249 1848.81 319.812C1848.25 320.375 1848.25 321.288 1848.81 321.851C1849.37 322.414 1850.29 322.414 1850.85 321.851Z" fill="white"/>
<path d="M1874.14 345.135C1874.76 344.508 1874.76 343.492 1874.14 342.865C1873.51 342.238 1872.49 342.238 1871.86 342.865C1871.24 343.492 1871.24 344.508 1871.86 345.135C1872.49 345.762 1873.51 345.762 1874.14 345.135Z" fill="white"/>
<path d="M1897.19 368.188C1897.75 367.625 1897.75 366.712 1897.19 366.149C1896.63 365.586 1895.71 365.586 1895.15 366.149C1894.59 366.712 1894.59 367.625 1895.15 368.188C1895.71 368.751 1896.63 368.751 1897.19 368.188Z" fill="white"/>
<path d="M1920.24 391.241C1920.74 390.742 1920.74 389.933 1920.24 389.434C1919.74 388.935 1918.93 388.935 1918.43 389.434C1917.93 389.933 1917.93 390.742 1918.43 391.241C1918.93 391.74 1919.74 391.74 1920.24 391.241Z" fill="white"/>
<path d="M1943.31 414.305C1943.75 413.864 1943.75 413.148 1943.31 412.707C1942.86 412.265 1942.15 412.265 1941.71 412.707C1941.27 413.148 1941.27 413.864 1941.71 414.305C1942.15 414.747 1942.86 414.747 1943.31 414.305Z" fill="white"/>
<path d="M1966.36 437.358C1966.74 436.981 1966.74 436.369 1966.36 435.991C1965.98 435.614 1965.37 435.614 1964.99 435.991C1964.61 436.369 1964.61 436.981 1964.99 437.358C1965.37 437.736 1965.98 437.736 1966.36 437.358Z" fill="white"/>
<path d="M1989.42 460.423C1989.74 460.103 1989.74 459.584 1989.42 459.264C1989.1 458.944 1988.58 458.944 1988.26 459.264C1987.94 459.584 1987.94 460.103 1988.26 460.423C1988.58 460.743 1989.1 460.743 1989.42 460.423Z" fill="white"/>
<path d="M1780.88 205.544C1781.19 205.237 1781.19 204.739 1780.88 204.432C1780.57 204.125 1780.08 204.125 1779.77 204.432C1779.46 204.739 1779.46 205.237 1779.77 205.544C1780.08 205.851 1780.57 205.851 1780.88 205.544Z" fill="white"/>
<path d="M1804.14 228.805C1804.5 228.447 1804.5 227.866 1804.14 227.508C1803.78 227.15 1803.2 227.15 1802.85 227.508C1802.49 227.866 1802.49 228.447 1802.85 228.805C1803.2 229.164 1803.78 229.164 1804.14 228.805Z" fill="white"/>
<path d="M1827.4 252.067C1827.81 251.657 1827.81 250.993 1827.4 250.584C1826.99 250.174 1826.33 250.174 1825.92 250.584C1825.51 250.993 1825.51 251.657 1825.92 252.067C1826.33 252.476 1826.99 252.476 1827.4 252.067Z" fill="white"/>
<path d="M1850.67 275.328C1851.13 274.867 1851.13 274.12 1850.67 273.66C1850.2 273.199 1849.46 273.199 1849 273.66C1848.54 274.12 1848.54 274.867 1849 275.328C1849.46 275.789 1850.2 275.789 1850.67 275.328Z" fill="white"/>
<path d="M1873.93 298.589C1874.44 298.078 1874.44 297.248 1873.93 296.736C1873.41 296.224 1872.59 296.224 1872.07 296.736C1871.56 297.248 1871.56 298.078 1872.07 298.589C1872.59 299.101 1873.41 299.101 1873.93 298.589Z" fill="white"/>
<path d="M1897.19 321.851C1897.75 321.288 1897.75 320.375 1897.19 319.812C1896.63 319.249 1895.71 319.249 1895.15 319.812C1894.59 320.375 1894.59 321.288 1895.15 321.851C1895.71 322.414 1896.63 322.414 1897.19 321.851Z" fill="white"/>
<path d="M1920.26 344.927C1920.78 344.415 1920.78 343.585 1920.26 343.073C1919.75 342.561 1918.92 342.561 1918.41 343.073C1917.9 343.585 1917.9 344.415 1918.41 344.927C1918.92 345.439 1919.75 345.439 1920.26 344.927Z" fill="white"/>
<path d="M1943.34 368.003C1943.8 367.542 1943.8 366.795 1943.34 366.335C1942.88 365.874 1942.13 365.874 1941.67 366.335C1941.21 366.795 1941.21 367.542 1941.67 368.003C1942.13 368.463 1942.88 368.463 1943.34 368.003Z" fill="white"/>
<path d="M1966.42 391.079C1966.83 390.669 1966.83 390.005 1966.42 389.596C1966.01 389.187 1965.34 389.187 1964.93 389.596C1964.52 390.005 1964.52 390.669 1964.93 391.079C1965.34 391.488 1966.01 391.488 1966.42 391.079Z" fill="white"/>
<path d="M1989.49 414.155C1989.85 413.797 1989.85 413.216 1989.49 412.857C1989.13 412.499 1988.55 412.499 1988.19 412.857C1987.84 413.216 1987.84 413.797 1988.19 414.155C1988.55 414.513 1989.13 414.513 1989.49 414.155Z" fill="white"/>
<path d="M2012.57 437.231C2012.88 436.924 2012.88 436.426 2012.57 436.119C2012.26 435.812 2011.76 435.812 2011.46 436.119C2011.15 436.426 2011.15 436.924 2011.46 437.231C2011.76 437.538 2012.26 437.538 2012.57 437.231Z" fill="white"/>
<path d="M1804.03 182.352C1804.32 182.058 1804.32 181.581 1804.03 181.286C1803.73 180.992 1803.26 180.992 1802.96 181.286C1802.67 181.581 1802.67 182.058 1802.96 182.352C1803.26 182.646 1803.73 182.646 1804.03 182.352Z" fill="white"/>
<path d="M1827.28 205.602C1827.62 205.263 1827.62 204.713 1827.28 204.374C1826.94 204.035 1826.39 204.035 1826.05 204.374C1825.71 204.713 1825.71 205.263 1826.05 205.602C1826.39 205.941 1826.94 205.941 1827.28 205.602Z" fill="white"/>
<path d="M1850.51 228.84C1850.89 228.463 1850.89 227.851 1850.51 227.473C1850.14 227.096 1849.53 227.096 1849.15 227.473C1848.77 227.851 1848.77 228.463 1849.15 228.84C1849.53 229.217 1850.14 229.217 1850.51 228.84Z" fill="white"/>
<path d="M1873.76 252.09C1874.19 251.668 1874.19 250.983 1873.76 250.561C1873.34 250.138 1872.66 250.138 1872.24 250.561C1871.81 250.983 1871.81 251.668 1872.24 252.09C1872.66 252.512 1873.34 252.512 1873.76 252.09Z" fill="white"/>
<path d="M1897 275.328C1897.46 274.867 1897.46 274.12 1897 273.66C1896.54 273.199 1895.8 273.199 1895.33 273.66C1894.87 274.12 1894.87 274.867 1895.33 275.328C1895.8 275.789 1896.54 275.789 1897 275.328Z" fill="white"/>
<path d="M1920.24 298.566C1920.74 298.067 1920.74 297.258 1920.24 296.759C1919.74 296.26 1918.93 296.26 1918.43 296.759C1917.93 297.258 1917.93 298.067 1918.43 298.566C1918.93 299.065 1919.74 299.065 1920.24 298.566Z" fill="white"/>
<path d="M1943.34 321.665C1943.8 321.205 1943.8 320.458 1943.34 319.997C1942.88 319.537 1942.13 319.537 1941.67 319.997C1941.21 320.458 1941.21 321.205 1941.67 321.665C1942.13 322.126 1942.88 322.126 1943.34 321.665Z" fill="white"/>
<path d="M1966.44 344.765C1966.86 344.342 1966.86 343.658 1966.44 343.235C1966.02 342.813 1965.33 342.813 1964.91 343.235C1964.49 343.658 1964.49 344.342 1964.91 344.765C1965.33 345.187 1966.02 345.187 1966.44 344.765Z" fill="white"/>
<path d="M1989.53 367.852C1989.9 367.475 1989.9 366.863 1989.53 366.485C1989.15 366.108 1988.54 366.108 1988.16 366.485C1987.78 366.863 1987.78 367.475 1988.16 367.852C1988.54 368.23 1989.15 368.23 1989.53 367.852Z" fill="white"/>
<path d="M2012.63 390.951C2012.97 390.612 2012.97 390.062 2012.63 389.723C2012.29 389.384 2011.74 389.384 2011.4 389.723C2011.06 390.062 2011.06 390.612 2011.4 390.951C2011.74 391.29 2012.29 391.29 2012.63 390.951Z" fill="white"/>
<path d="M2035.71 414.039C2036.01 413.745 2036.01 413.267 2035.71 412.973C2035.42 412.679 2034.94 412.679 2034.65 412.973C2034.35 413.267 2034.35 413.745 2034.65 414.039C2034.94 414.333 2035.42 414.333 2035.71 414.039Z" fill="white"/>
<path d="M1850.41 182.398C1850.73 182.078 1850.73 181.56 1850.41 181.24C1850.09 180.92 1849.57 180.92 1849.25 181.24C1848.93 181.56 1848.93 182.078 1849.25 182.398C1849.57 182.718 1850.09 182.718 1850.41 182.398Z" fill="white"/>
<path d="M1873.63 205.613C1873.97 205.268 1873.97 204.708 1873.63 204.362C1873.28 204.017 1872.72 204.017 1872.37 204.362C1872.03 204.708 1872.03 205.268 1872.37 205.613C1872.72 205.959 1873.28 205.959 1873.63 205.613Z" fill="white"/>
<path d="M1896.85 228.84C1897.23 228.463 1897.23 227.851 1896.85 227.473C1896.47 227.096 1895.86 227.096 1895.49 227.473C1895.11 227.851 1895.11 228.463 1895.49 228.84C1895.86 229.217 1896.47 229.217 1896.85 228.84Z" fill="white"/>
<path d="M1920.08 252.067C1920.49 251.657 1920.49 250.993 1920.08 250.584C1919.67 250.174 1919.01 250.174 1918.6 250.584C1918.19 250.993 1918.19 251.657 1918.6 252.067C1919.01 252.476 1919.67 252.476 1920.08 252.067Z" fill="white"/>
<path d="M1943.31 275.293C1943.75 274.852 1943.75 274.136 1943.31 273.695C1942.86 273.253 1942.15 273.253 1941.71 273.695C1941.27 274.136 1941.27 274.852 1941.71 275.293C1942.15 275.735 1942.86 275.735 1943.31 275.293Z" fill="white"/>
<path d="M1966.42 298.404C1966.83 297.995 1966.83 297.331 1966.42 296.921C1966.01 296.512 1965.34 296.512 1964.93 296.921C1964.52 297.331 1964.52 297.995 1964.93 298.404C1965.34 298.813 1966.01 298.813 1966.42 298.404Z" fill="white"/>
<path d="M1989.53 321.515C1989.9 321.137 1989.9 320.525 1989.53 320.148C1989.15 319.77 1988.54 319.77 1988.16 320.148C1987.78 320.525 1987.78 321.137 1988.16 321.515C1988.54 321.892 1989.15 321.892 1989.53 321.515Z" fill="white"/>
<path d="M2012.64 344.626C2012.98 344.28 2012.98 343.72 2012.64 343.374C2012.29 343.029 2011.73 343.029 2011.39 343.374C2011.04 343.72 2011.04 344.28 2011.39 344.626C2011.73 344.971 2012.29 344.971 2012.64 344.626Z" fill="white"/>
<path d="M2035.76 367.748C2036.08 367.428 2036.08 366.909 2035.76 366.589C2035.44 366.27 2034.92 366.27 2034.6 366.589C2034.28 366.909 2034.28 367.428 2034.6 367.748C2034.92 368.068 2035.44 368.068 2035.76 367.748Z" fill="white"/>
<path d="M1896.75 182.398C1897.07 182.078 1897.07 181.56 1896.75 181.24C1896.43 180.92 1895.91 180.92 1895.59 181.24C1895.27 181.56 1895.27 182.078 1895.59 182.398C1895.91 182.718 1896.43 182.718 1896.75 182.398Z" fill="white"/>
<path d="M1919.95 205.602C1920.29 205.263 1920.29 204.713 1919.95 204.374C1919.61 204.035 1919.06 204.035 1918.72 204.374C1918.38 204.713 1918.38 205.263 1918.72 205.602C1919.06 205.941 1919.61 205.941 1919.95 205.602Z" fill="white"/>
<path d="M1943.15 228.805C1943.51 228.447 1943.51 227.866 1943.15 227.508C1942.8 227.15 1942.22 227.15 1941.86 227.508C1941.5 227.866 1941.5 228.447 1941.86 228.805C1942.22 229.164 1942.8 229.164 1943.15 228.805Z" fill="white"/>
<path d="M1966.36 252.009C1966.74 251.631 1966.74 251.019 1966.36 250.642C1965.98 250.264 1965.37 250.264 1964.99 250.642C1964.61 251.019 1964.61 251.631 1964.99 252.009C1965.37 252.386 1965.98 252.386 1966.36 252.009Z" fill="white"/>
<path d="M1989.49 275.143C1989.85 274.784 1989.85 274.203 1989.49 273.845C1989.13 273.487 1988.55 273.487 1988.19 273.845C1987.84 274.203 1987.84 274.784 1988.19 275.143C1988.55 275.501 1989.13 275.501 1989.49 275.143Z" fill="white"/>
<path d="M2012.63 298.277C2012.97 297.937 2012.97 297.388 2012.63 297.049C2012.29 296.71 2011.74 296.71 2011.4 297.049C2011.06 297.388 2011.06 297.937 2011.4 298.277C2011.74 298.616 2012.29 298.616 2012.63 298.277Z" fill="white"/>
<path d="M2035.76 321.411C2036.08 321.091 2036.08 320.572 2035.76 320.252C2035.44 319.932 2034.92 319.932 2034.6 320.252C2034.28 320.572 2034.28 321.091 2034.6 321.411C2034.92 321.73 2035.44 321.73 2035.76 321.411Z" fill="white"/>
<path d="M1943.04 182.352C1943.33 182.058 1943.33 181.581 1943.04 181.286C1942.74 180.992 1942.27 180.992 1941.97 181.286C1941.68 181.581 1941.68 182.058 1941.97 182.352C1942.27 182.646 1942.74 182.646 1943.04 182.352Z" fill="white"/>
<path d="M1966.23 205.544C1966.54 205.237 1966.54 204.739 1966.23 204.432C1965.92 204.125 1965.43 204.125 1965.12 204.432C1964.81 204.739 1964.81 205.237 1965.12 205.544C1965.43 205.851 1965.92 205.851 1966.23 205.544Z" fill="white"/>
<path d="M1989.42 228.736C1989.74 228.416 1989.74 227.897 1989.42 227.577C1989.1 227.257 1988.58 227.257 1988.26 227.577C1987.94 227.897 1987.94 228.416 1988.26 228.736C1988.58 229.056 1989.1 229.056 1989.42 228.736Z" fill="white"/>
<path d="M2012.57 251.881C2012.88 251.574 2012.88 251.076 2012.57 250.769C2012.26 250.462 2011.76 250.462 2011.46 250.769C2011.15 251.076 2011.15 251.574 2011.46 251.881C2011.76 252.188 2012.26 252.188 2012.57 251.881Z" fill="white"/>
<path d="M2035.71 275.027C2036.01 274.732 2036.01 274.255 2035.71 273.961C2035.42 273.667 2034.94 273.667 2034.65 273.961C2034.35 274.255 2034.35 274.732 2034.65 275.027C2034.94 275.321 2035.42 275.321 2035.71 275.027Z" fill="white"/>
</g>
</g>
<defs>
<filter id="filter0_d_1_663" x="131.806" y="-134.718" width="406.951" height="399.537" filterUnits="userSpaceOnUse" color-interpolation-filters="sRGB">
<feFlood flood-opacity="0" result="BackgroundImageFix"/>
<feColorMatrix in="SourceAlpha" type="matrix" values="0 0 0 0 0 0 0 0 0 0 0 0 0 0 0 0 0 0 127 0" result="hardAlpha"/>
<feOffset dy="20"/>
<feGaussianBlur stdDeviation="20.5"/>
<feComposite in2="hardAlpha" operator="out"/>
<feColorMatrix type="matrix" values="0 0 0 0 0 0 0 0 0 0 0 0 0 0 0 0 0 0 0.16 0"/>
<feBlend mode="normal" in2="BackgroundImageFix" result="effect1_dropShadow_1_663"/>
<feBlend mode="normal" in="SourceGraphic" in2="effect1_dropShadow_1_663" result="shape"/>
</filter>
<filter id="filter1_f_1_663" x="158" y="-411" width="726" height="726" filterUnits="userSpaceOnUse" color-interpolation-filters="sRGB">
<feFlood flood-opacity="0" result="BackgroundImageFix"/>
<feBlend mode="normal" in="SourceGraphic" in2="BackgroundImageFix" result="shape"/>
<feGaussianBlur stdDeviation="100" result="effect1_foregroundBlur_1_663"/>
</filter>
<filter id="filter2_d_1_663" x="-75.1015" y="26.1418" width="227.109" height="223.505" filterUnits="userSpaceOnUse" color-interpolation-filters="sRGB">
<feFlood flood-opacity="0" result="BackgroundImageFix"/>
<feColorMatrix in="SourceAlpha" type="matrix" values="0 0 0 0 0 0 0 0 0 0 0 0 0 0 0 0 0 0 127 0" result="hardAlpha"/>
<feOffset dy="20"/>
<feGaussianBlur stdDeviation="20.5"/>
<feComposite in2="hardAlpha" operator="out"/>
<feColorMatrix type="matrix" values="0 0 0 0 0 0 0 0 0 0 0 0 0 0 0 0 0 0 0.16 0"/>
<feBlend mode="normal" in2="BackgroundImageFix" result="effect1_dropShadow_1_663"/>
<feBlend mode="normal" in="SourceGraphic" in2="effect1_dropShadow_1_663" result="shape"/>
</filter>
<filter id="filter3_d_1_663" x="-51.8822" y="332.298" width="270.218" height="245.197" filterUnits="userSpaceOnUse" color-interpolation-filters="sRGB">
<feFlood flood-opacity="0" result="BackgroundImageFix"/>
<feColorMatrix in="SourceAlpha" type="matrix" values="0 0 0 0 0 0 0 0 0 0 0 0 0 0 0 0 0 0 127 0" result="hardAlpha"/>
<feOffset dy="20"/>
<feGaussianBlur stdDeviation="20.5"/>
<feComposite in2="hardAlpha" operator="out"/>
<feColorMatrix type="matrix" values="0 0 0 0 0 0 0 0 0 0 0 0 0 0 0 0 0 0 0.16 0"/>
<feBlend mode="normal" in2="BackgroundImageFix" result="effect1_dropShadow_1_663"/>
<feBlend mode="normal" in="SourceGraphic" in2="effect1_dropShadow_1_663" result="shape"/>
</filter>
<filter id="filter4_f_1_663" x="1555" y="-319" width="726" height="726" filterUnits="userSpaceOnUse" color-interpolation-filters="sRGB">
<feFlood flood-opacity="0" result="BackgroundImageFix"/>
<feBlend mode="normal" in="SourceGraphic" in2="BackgroundImageFix" result="shape"/>
<feGaussianBlur stdDeviation="100" result="effect1_foregroundBlur_1_663"/>
</filter>
<filter id="filter5_f_1_663" x="504" y="-38" width="1159" height="1159" filterUnits="userSpaceOnUse" color-interpolation-filters="sRGB">
<feFlood flood-opacity="0" result="BackgroundImageFix"/>
<feBlend mode="normal" in="SourceGraphic" in2="BackgroundImageFix" result="shape"/>
<feGaussianBlur stdDeviation="155.5" result="effect1_foregroundBlur_1_663"/>
</filter>
<linearGradient id="paint0_linear_1_663" x1="-194.116" y1="471.712" x2="595.938" y2="365.135" gradientUnits="userSpaceOnUse">
<stop stop-color="#021B0F"/>
<stop offset="1" stop-color="#001E10"/>
</linearGradient>
<linearGradient id="paint1_linear_1_663" x1="1554.88" y1="648.712" x2="2344.94" y2="542.135" gradientUnits="userSpaceOnUse">
<stop stop-color="#000905"/>
<stop offset="1" stop-color="#01361E"/>
</linearGradient>
</defs>
</svg>
