<svg width="20" height="20" viewBox="0 0 20 20" fill="none" xmlns="http://www.w3.org/2000/svg">
<path d="M6.04123 0.320068C2.88643 0.320068 0.321228 2.88527 0.321228 6.04007V13.9601C0.321228 17.1149 2.88643 19.6801 6.04123 19.6801H13.9612C17.116 19.6801 19.6812 17.1149 19.6812 13.9601V6.04007C19.6812 2.88527 17.116 0.320068 13.9612 0.320068H6.04123ZM15.2812 3.84007C15.7652 3.84007 16.1612 4.23607 16.1612 4.72007C16.1612 5.20407 15.7652 5.60007 15.2812 5.60007C14.7972 5.60007 14.4012 5.20407 14.4012 4.72007C14.4012 4.23607 14.7972 3.84007 15.2812 3.84007ZM10.0012 5.16007C12.672 5.16007 14.8412 7.32927 14.8412 10.0001C14.8412 12.6709 12.672 14.8401 10.0012 14.8401C7.33043 14.8401 5.16123 12.6709 5.16123 10.0001C5.16123 7.32927 7.33043 5.16007 10.0012 5.16007ZM10.0012 6.04007C7.81883 6.04007 6.04123 7.81767 6.04123 10.0001C6.04123 12.1825 7.81883 13.9601 10.0012 13.9601C12.1836 13.9601 13.9612 12.1825 13.9612 10.0001C13.9612 7.81767 12.1836 6.04007 10.0012 6.04007Z" fill="white"/>
</svg>
