<svg width="21" height="22" viewBox="0 0 21 22" fill="none" xmlns="http://www.w3.org/2000/svg">
<path d="M2.90625 0.125C1.61841 0.125 0.5625 1.18091 0.5625 2.46875V14.9688C0.5625 16.2566 1.61841 17.3125 2.90625 17.3125H5.25V21.115L10.9568 17.3125H18.5312C19.8191 17.3125 20.875 16.2566 20.875 14.9688V2.46875C20.875 1.18091 19.8191 0.125 18.5312 0.125H2.90625ZM2.90625 1.6875H18.5312C18.9707 1.6875 19.3125 2.0293 19.3125 2.46875V14.9688C19.3125 15.4082 18.9707 15.75 18.5312 15.75H10.4807L6.8125 18.1975V15.75H2.90625C2.4668 15.75 2.125 15.4082 2.125 14.9688V2.46875C2.125 2.0293 2.4668 1.6875 2.90625 1.6875ZM5.25 7.9375V9.5H6.8125V7.9375H5.25ZM9.9375 7.9375V9.5H11.5V7.9375H9.9375ZM14.625 7.9375V9.5H16.1875V7.9375H14.625Z" fill="white"/>
</svg>
