<svg width="24" height="23" viewBox="0 0 24 23" fill="none" xmlns="http://www.w3.org/2000/svg">
<path d="M11.5015 2.875C7.49219 2.875 4.12866 5.62927 3.16846 9.34375H4.65088C5.56897 6.42944 8.28955 4.3125 11.5015 4.3125C15.4658 4.3125 18.689 7.53564 18.689 11.5C18.689 15.4644 15.4658 18.6875 11.5015 18.6875C8.28955 18.6875 5.56897 16.5706 4.65088 13.6562H3.16846C4.12866 17.3707 7.49219 20.125 11.5015 20.125C16.2576 20.125 20.1265 16.2561 20.1265 11.5C20.1265 6.7439 16.2576 2.875 11.5015 2.875ZM11.0298 8.1084L9.99658 9.1416L11.6362 10.7812H2.87646V12.2188H11.6362L9.99658 13.8584L11.0298 14.8916L13.9048 12.0166L14.3989 11.5L13.9048 10.9834L11.0298 8.1084Z" fill="black" fill-opacity="0.99"/>
</svg>
