<?xml version="1.0" standalone="no"?>
<!DOCTYPE svg PUBLIC "-//W3C//DTD SVG 20010904//EN"
 "http://www.w3.org/TR/2001/REC-SVG-20010904/DTD/svg10.dtd">
<svg version="1.0" xmlns="http://www.w3.org/2000/svg"
 width="200.000000pt" height="67.000000pt" viewBox="0 0 200.000000 67.000000"
 preserveAspectRatio="xMidYMid meet">

<g transform="translate(0.000000,67.000000) scale(0.100000,-0.100000)"
fill="#000000" stroke="none">
<path d="M1490 458 c-1 -2 -2 -56 -3 -121 -2 -106 0 -117 16 -117 15 0 17 12
17 120 0 100 -2 120 -15 120 -8 0 -15 -1 -15 -2z"/>
<path d="M1570 340 c0 -100 3 -120 15 -120 13 0 15 20 15 120 0 100 -2 120
-15 120 -12 0 -15 -20 -15 -120z"/>
<path d="M620 335 l0 -115 68 0 c56 0 72 4 87 20 23 25 23 70 -1 87 -14 10
-15 16 -6 25 18 18 14 63 -6 81 -13 12 -37 17 -80 17 l-62 0 0 -115z m127 69
c10 -27 -11 -49 -51 -52 -35 -3 -36 -2 -36 32 0 35 1 36 40 36 28 0 43 -5 47
-16z m8 -119 c0 -29 -2 -30 -47 -33 l-48 -3 0 36 0 36 48 -3 c45 -3 47 -4 47
-33z"/>
<path d="M830 434 c0 -9 7 -14 17 -12 25 5 28 28 4 28 -12 0 -21 -6 -21 -16z"/>
<path d="M930 420 c0 -10 -8 -24 -17 -30 -17 -10 -17 -10 0 -20 13 -9 17 -24
17 -68 0 -62 11 -82 46 -82 31 0 40 18 12 22 -21 3 -23 9 -26 66 -3 61 -2 62
23 62 14 0 25 5 25 10 0 6 -11 10 -25 10 -20 0 -25 5 -25 25 0 16 -6 25 -15
25 -8 0 -15 -9 -15 -20z"/>
<path d="M1840 415 c0 -16 -6 -25 -15 -25 -8 0 -15 -4 -15 -9 0 -5 7 -11 15
-15 11 -4 15 -21 15 -64 0 -65 11 -82 52 -82 33 0 38 17 6 22 -21 3 -23 9 -26
66 -3 61 -2 62 23 62 14 0 25 5 25 10 0 6 -11 10 -25 10 -20 0 -25 5 -25 25 0
16 -6 25 -15 25 -9 0 -15 -9 -15 -25z"/>
<path d="M1343 393 c-36 -7 -29 -30 7 -25 28 4 60 -11 60 -28 0 -4 -18 -10
-40 -13 -23 -3 -47 -11 -55 -17 -20 -16 -19 -55 1 -74 18 -19 94 -22 112 -4
18 18 15 123 -4 142 -8 9 -19 16 -24 16 -5 0 -14 2 -22 4 -7 2 -23 1 -35 -1z
m67 -118 c0 -31 -43 -46 -67 -22 -24 24 -9 47 32 47 31 0 35 -3 35 -25z"/>
<path d="M1690 391 c-14 -4 -31 -18 -38 -31 -17 -34 -9 -110 14 -127 25 -18
114 -17 114 1 0 11 -9 13 -35 9 -26 -4 -41 -1 -55 12 -32 29 -24 35 40 35 l60
0 0 33 c0 52 -46 83 -100 68z m51 -31 c36 -20 23 -40 -26 -40 -48 0 -55 9 -29
34 18 19 28 20 55 6z"/>
<path d="M830 305 c0 -69 3 -85 15 -85 12 0 15 16 15 85 0 69 -3 85 -15 85
-12 0 -15 -16 -15 -85z"/>
<path d="M1030 383 c0 -5 11 -42 24 -83 29 -92 51 -100 75 -28 9 26 19 49 22
52 3 3 13 -19 23 -50 24 -77 44 -70 73 26 27 88 27 90 10 90 -8 0 -21 -26 -32
-62 l-18 -63 -19 63 c-24 76 -46 80 -65 12 -22 -77 -24 -78 -44 -12 -13 39
-25 62 -34 62 -8 0 -15 -3 -15 -7z"/>
</g>
</svg>
