<svg width="17" height="17" viewBox="0 0 17 17" fill="none" xmlns="http://www.w3.org/2000/svg">
<path d="M4.14112 0.78125C3.83033 0.78125 3.52418 0.892578 3.26905 1.09668L3.23194 1.11523L3.21339 1.13379L1.35792 3.04492L1.37647 3.06348C0.803595 3.59229 0.627326 4.38318 0.875495 5.06738C0.877814 5.07202 0.873175 5.0813 0.875495 5.08594C1.37879 6.52625 2.66602 9.30713 5.18018 11.8213C7.70362 14.3447 10.5216 15.5809 11.9155 16.126H11.9341C12.6554 16.3672 13.437 16.1956 13.9937 15.7178L15.8677 13.8438C16.3594 13.3521 16.3594 12.4985 15.8677 12.0068L13.4556 9.59473L13.437 9.55762C12.9453 9.06592 12.0732 9.06592 11.5815 9.55762L10.394 10.7451C9.96497 10.5387 8.94214 10.0099 7.96338 9.0752C6.99158 8.14746 6.49524 7.08057 6.31202 6.66309L7.49952 5.47559C7.99817 4.97693 8.00745 4.14661 7.48096 3.65723L7.49952 3.63867L7.44385 3.58301L5.06885 1.13379L5.0503 1.11523L5.01319 1.09668C4.75806 0.892578 4.45191 0.78125 4.14112 0.78125ZM4.14112 1.96875C4.18519 1.96875 4.22925 1.98962 4.271 2.02441L6.646 4.45508L6.70167 4.51074C6.69703 4.5061 6.73646 4.56873 6.66456 4.64062L5.18018 6.125L4.90186 6.38477L5.03174 6.75586C5.03174 6.75586 5.71363 8.58118 7.14698 9.94727L7.27686 10.0586C8.65687 11.318 10.2827 12.0068 10.2827 12.0068L10.6538 12.1738L12.4165 10.4111C12.5186 10.3091 12.5 10.3091 12.6021 10.4111L15.0327 12.8418C15.1348 12.9438 15.1348 12.9067 15.0327 13.0088L13.2144 14.8271C12.9407 15.0614 12.6508 15.1101 12.3052 14.9941C10.96 14.4653 8.34607 13.3173 6.01514 10.9863C3.66566 8.63684 2.43873 5.97192 1.98878 4.67773C1.89832 4.43652 1.96326 4.07935 2.17432 3.89844L2.21143 3.86133L4.01124 2.02441C4.05298 1.98962 4.09705 1.96875 4.14112 1.96875Z" fill="black" fill-opacity="0.99"/>
</svg>
