<svg width="65" height="55" viewBox="0 0 65 55" fill="none" xmlns="http://www.w3.org/2000/svg">
<path d="M33.6849 0.607717C31.8078 0.545107 29.9294 0.712983 28.0759 1.11512C26.4898 1.46123 24.9054 1.98108 23.3683 2.66002C22.7607 2.92894 22.2926 3.41794 22.0536 4.03795C21.939 4.33426 21.8865 4.64511 21.8882 4.95387C16.846 7.6854 12.7302 12.3145 10.2585 18.0539C8.91056 18.0805 7.82197 19.1711 7.82197 20.5115V21.0821C3.6313 22.2881 0.656738 26.1465 0.656738 30.4991C0.656738 34.8516 3.6313 38.7125 7.82197 39.9176V40.4882C7.82197 41.8461 8.93757 42.9491 10.3087 42.9491H11.1452C12.5164 42.9491 13.632 41.8453 13.632 40.4882V20.5115C13.632 19.4582 12.9586 18.5655 12.0174 18.2144C14.3248 13.1265 18.0013 9.01625 22.4783 6.52957C23.1722 7.35459 24.3474 7.66934 25.3833 7.21367C26.6133 6.66919 27.8746 6.25471 29.1345 5.98164C33.0098 5.13753 37.0526 5.61096 40.8274 7.35147C41.1561 7.50336 41.5063 7.58166 41.8682 7.58166C42.3654 7.58166 42.8412 7.42819 43.2412 7.16342C47.3398 9.74804 50.6883 13.7201 52.8073 18.5565C52.2081 19.0063 51.8136 19.7106 51.8136 20.5115V40.4882C51.8136 41.3639 52.2812 42.1283 52.9775 42.5649C52.5758 43.7949 50.4812 49.0959 44.1815 50.5958C43.8096 49.53 42.8039 48.7591 41.6137 48.7591H32.9619C31.4571 48.7591 30.232 49.9834 30.232 51.489V51.8408C30.232 53.3455 31.4571 54.5707 32.9619 54.5707H41.612C42.9683 54.5707 44.0882 53.575 44.2982 52.2768C51.7425 50.6309 54.1946 44.1733 54.5921 42.9507H55.1352C56.5064 42.9507 57.622 41.8453 57.622 40.4882V39.9176C61.8126 38.7116 64.7888 34.8516 64.7888 30.4991C64.7888 26.1465 61.8126 22.2881 57.622 21.0821V20.5115C57.622 19.1536 56.5064 18.0491 55.1352 18.0491H54.3895C52.1593 12.8831 48.6033 8.62545 44.2334 5.8325C44.6019 4.65639 44.0593 3.35978 42.9105 2.83024C39.9345 1.45762 36.8134 0.712067 33.6849 0.607717ZM33.6622 1.43772C36.6798 1.53916 39.6908 2.25916 42.5636 3.58404C43.3936 3.96667 43.7576 4.95466 43.3758 5.78549C43.0048 6.59059 41.9853 6.97116 41.1727 6.59766C38.5043 5.3676 35.7061 4.74313 32.9181 4.74313C31.5901 4.74313 30.265 4.88478 28.9578 5.16947C27.6439 5.45582 26.3276 5.88811 25.0461 6.455C24.2095 6.82601 23.2286 6.44381 22.8576 5.60717C22.6783 5.2013 22.6682 4.75119 22.8284 4.33785C22.9886 3.92451 23.298 3.59876 23.7038 3.42031C25.1895 2.76295 26.7213 2.26095 28.2526 1.92729C30.0395 1.53885 31.8517 1.37685 33.6622 1.43772ZM10.3087 19.7091H11.1452C11.6009 19.7091 11.972 20.0699 11.972 20.5115V40.4882C11.972 40.9306 11.6009 41.2891 11.1452 41.2891H10.3087C9.85306 41.2891 9.48197 40.9298 9.48197 40.4882V39.2708C9.48197 38.8799 9.20968 38.5416 8.82705 38.4586C5.0547 37.6469 2.31674 34.2988 2.31674 30.4991C2.31674 26.7583 4.97092 23.4622 8.65197 22.5849V30.9141C8.65197 31.1431 8.83789 31.3291 9.06697 31.3291C9.29605 31.3291 9.48197 31.1431 9.48197 30.9141V21.7841C9.48197 21.7749 9.47711 21.7673 9.47711 21.7581C9.47711 21.7482 9.48197 21.7397 9.48197 21.7289V20.5115C9.48197 20.0691 9.85306 19.7091 10.3087 19.7091ZM54.2987 19.7091H55.1352C55.5909 19.7091 55.962 20.0699 55.962 20.5115V21.7289C55.962 21.7397 55.9668 21.7473 55.9668 21.7581C55.966 21.7673 55.962 21.7749 55.962 21.7841V30.9141C55.962 31.1431 56.1479 31.3291 56.377 31.3291C56.6061 31.3291 56.792 31.1431 56.792 30.9141V22.5865C60.473 23.463 63.1288 26.7599 63.1288 30.5007C63.1288 34.3004 60.3909 37.6469 56.6185 38.4586C56.2359 38.5408 55.962 38.879 55.962 39.2708V40.4882C55.962 40.9306 55.5909 41.2907 55.1352 41.2907H54.2987C53.8431 41.2907 53.472 40.9298 53.472 40.4882V20.5115C53.472 20.0691 53.8431 19.7091 54.2987 19.7091ZM9.06697 32.9891C8.83789 32.9891 8.65197 33.175 8.65197 33.4041V34.2341C8.65197 34.4631 8.83789 34.6491 9.06697 34.6491C9.29605 34.6491 9.48197 34.4631 9.48197 34.2341V33.4041C9.48197 33.175 9.29605 32.9891 9.06697 32.9891ZM56.377 32.9891C56.1479 32.9891 55.962 33.175 55.962 33.4041V34.2341C55.962 34.4631 56.1479 34.6491 56.377 34.6491C56.6061 34.6491 56.792 34.4631 56.792 34.2341V33.4041C56.792 33.175 56.6061 32.9891 56.377 32.9891ZM8.84326 35.3234C8.73432 35.3245 8.62737 35.3638 8.55309 35.4385C8.47839 35.5132 8.42826 35.6208 8.42826 35.7287C8.42826 35.8366 8.47921 35.944 8.55309 36.027C8.62778 36.1017 8.73536 36.1437 8.84326 36.1437C8.95116 36.1437 9.05937 36.1017 9.14154 36.027C9.21624 35.944 9.25826 35.8366 9.25826 35.7287C9.25826 35.6208 9.21624 35.5132 9.14154 35.4385C9.06228 35.3597 8.9522 35.3224 8.84326 35.3234ZM56.0706 35.3234C55.9907 35.34 55.917 35.3804 55.8631 35.4385C55.8216 35.48 55.7956 35.5217 55.7707 35.5715C55.7466 35.6213 55.7383 35.6789 55.7383 35.7287C55.7383 35.7868 55.7466 35.836 55.7707 35.8941C55.7956 35.9439 55.8224 35.9855 55.8631 36.027C55.9378 36.1017 56.0454 36.1437 56.1533 36.1437C56.2114 36.1437 56.2607 36.1346 56.3105 36.1097C56.3603 36.0931 56.4102 36.0602 56.4434 36.027C56.4849 35.9855 56.5184 35.9439 56.5342 35.8941C56.5591 35.836 56.5666 35.7868 56.5666 35.7287C56.5666 35.6789 56.5591 35.6213 56.5342 35.5715C56.5184 35.5217 56.4849 35.48 56.4434 35.4385C56.4102 35.397 56.3595 35.371 56.3105 35.3461C56.2358 35.3129 56.1505 35.3068 56.0706 35.3234ZM32.9619 49.5891H41.612C42.6595 49.5891 43.512 50.4415 43.512 51.489V51.8408C43.512 52.8882 42.6595 53.7407 41.612 53.7407H32.9619C31.9144 53.7407 31.062 52.8882 31.062 51.8408V51.489C31.062 50.4415 31.9144 49.5891 32.9619 49.5891Z" fill="url(#paint0_linear_1_140)"/>
<defs>
<linearGradient id="paint0_linear_1_140" x1="32.7228" y1="0.594971" x2="32.7228" y2="54.5707" gradientUnits="userSpaceOnUse">
<stop stop-color="#5FC998"/>
<stop offset="1" stop-color="#19A364"/>
</linearGradient>
</defs>
</svg>
