<svg width="74" height="61" viewBox="0 0 74 61" fill="none" xmlns="http://www.w3.org/2000/svg">
<path d="M10.4359 0C4.68343 0 0 4.70519 0 10.4844V50.5156C0 56.2948 4.68343 61 10.4359 61H63.5641C69.3166 61 74 56.2948 74 50.5156V10.4844C74 4.70519 69.3166 0 63.5641 0H10.4359ZM10.4359 1.90625H63.5641C68.2912 1.90625 72.1026 5.73534 72.1026 10.4844V50.5156C72.1026 55.2647 68.2912 59.0938 63.5641 59.0938H10.4359C5.70882 59.0938 1.89744 55.2647 1.89744 50.5156V10.4844C1.89744 5.73534 5.70882 1.90625 10.4359 1.90625ZM13.7564 6.67188C9.83231 6.67188 6.64103 9.87798 6.64103 13.8203V47.1797C6.64103 51.122 9.83231 54.3281 13.7564 54.3281H60.2436C64.1677 54.3281 67.359 51.122 67.359 47.1797C67.3599 47.1165 67.3483 47.0538 67.3248 46.9952C67.3014 46.9366 67.2666 46.8833 67.2224 46.8383C67.1783 46.7933 67.1257 46.7576 67.0677 46.7333C67.0097 46.7089 66.9475 46.6963 66.8846 46.6963C66.8218 46.6963 66.7595 46.7089 66.7015 46.7333C66.6435 46.7576 66.5909 46.7933 66.5468 46.8383C66.5027 46.8833 66.4679 46.9366 66.4444 46.9952C66.421 47.0538 66.4094 47.1165 66.4103 47.1797C66.4103 50.6069 63.655 53.375 60.2436 53.375H13.7564C10.345 53.375 7.58974 50.6069 7.58974 47.1797V13.8203C7.58974 10.3931 10.345 7.625 13.7564 7.625H27.9872C28.05 7.62589 28.1124 7.61423 28.1708 7.59068C28.2291 7.56713 28.2822 7.53217 28.327 7.48783C28.3717 7.44348 28.4073 7.39065 28.4315 7.33238C28.4558 7.27412 28.4683 7.21159 28.4683 7.14844C28.4683 7.08528 28.4558 7.02275 28.4315 6.96449C28.4073 6.90623 28.3717 6.85339 28.327 6.80905C28.2822 6.76471 28.2291 6.72975 28.1708 6.7062C28.1124 6.68265 28.05 6.67098 27.9872 6.67188H13.7564ZM29.8846 6.67188C29.8218 6.67098 29.7593 6.68265 29.701 6.7062C29.6427 6.72975 29.5896 6.76471 29.5448 6.80905C29.5001 6.85339 29.4645 6.90623 29.4403 6.96449C29.416 7.02275 29.4035 7.08528 29.4035 7.14844C29.4035 7.21159 29.416 7.27412 29.4403 7.33238C29.4645 7.39065 29.5001 7.44348 29.5448 7.48783C29.5896 7.53217 29.6427 7.56713 29.701 7.59068C29.7593 7.61423 29.8218 7.62589 29.8846 7.625H35.5769C35.6398 7.62589 35.7022 7.61423 35.7605 7.59068C35.8189 7.56713 35.8719 7.53217 35.9167 7.48783C35.9615 7.44348 35.997 7.39065 36.0213 7.33238C36.0455 7.27412 36.058 7.21159 36.058 7.14844C36.058 7.08528 36.0455 7.02275 36.0213 6.96449C35.997 6.90623 35.9615 6.85339 35.9167 6.80905C35.8719 6.76471 35.8189 6.72975 35.7605 6.7062C35.7022 6.68265 35.6398 6.67098 35.5769 6.67188H29.8846ZM37.4744 6.67188C37.4115 6.67098 37.3491 6.68265 37.2908 6.7062C37.2324 6.72975 37.1793 6.76471 37.1346 6.80905C37.0898 6.85339 37.0543 6.90623 37.03 6.96449C37.0057 7.02275 36.9932 7.08528 36.9932 7.14844C36.9932 7.21159 37.0057 7.27412 37.03 7.33238C37.0543 7.39065 37.0898 7.44348 37.1346 7.48783C37.1793 7.53217 37.2324 7.56713 37.2908 7.59068C37.3491 7.61423 37.4115 7.62589 37.4744 7.625H40.3205C40.3834 7.62589 40.4458 7.61423 40.5041 7.59068C40.5624 7.56713 40.6155 7.53217 40.6603 7.48783C40.7051 7.44348 40.7406 7.39065 40.7649 7.33238C40.7891 7.27412 40.8016 7.21159 40.8016 7.14844C40.8016 7.08528 40.7891 7.02275 40.7649 6.96449C40.7406 6.90623 40.7051 6.85339 40.6603 6.80905C40.6155 6.76471 40.5624 6.72975 40.5041 6.7062C40.4458 6.68265 40.3834 6.67098 40.3205 6.67188H37.4744ZM17.5513 14.2969C17.4884 14.296 17.426 14.3076 17.3677 14.3312C17.3094 14.3547 17.2563 14.3897 17.2115 14.434C17.1667 14.4784 17.1312 14.5312 17.1069 14.5895C17.0827 14.6478 17.0702 14.7103 17.0702 14.7734C17.0702 14.8366 17.0827 14.8991 17.1069 14.9574C17.1312 15.0156 17.1667 15.0685 17.2115 15.1128C17.2563 15.1572 17.3094 15.1921 17.3677 15.2157C17.426 15.2392 17.4884 15.2509 17.5513 15.25H44.1154C44.1782 15.2509 44.2407 15.2392 44.299 15.2157C44.3573 15.1921 44.4104 15.1572 44.4552 15.1128C44.4999 15.0685 44.5355 15.0156 44.5597 14.9574C44.584 14.8991 44.5965 14.8366 44.5965 14.7734C44.5965 14.7103 44.584 14.6478 44.5597 14.5895C44.5355 14.5312 44.4999 14.4784 44.4552 14.434C44.4104 14.3897 44.3573 14.3547 44.299 14.3312C44.2407 14.3076 44.1782 14.296 44.1154 14.2969H17.5513ZM46.9615 14.2969C46.8987 14.296 46.8363 14.3076 46.7779 14.3312C46.7196 14.3547 46.6665 14.3897 46.6218 14.434C46.577 14.4784 46.5414 14.5312 46.5172 14.5895C46.4929 14.6478 46.4804 14.7103 46.4804 14.7734C46.4804 14.8366 46.4929 14.8991 46.5172 14.9574C46.5414 15.0156 46.577 15.0685 46.6218 15.1128C46.6665 15.1572 46.7196 15.1921 46.7779 15.2157C46.8363 15.2392 46.8987 15.2509 46.9615 15.25H56.4487C56.5116 15.2509 56.574 15.2392 56.6323 15.2157C56.6906 15.1921 56.7437 15.1572 56.7885 15.1128C56.8333 15.0685 56.8688 15.0156 56.8931 14.9574C56.9173 14.8991 56.9298 14.8366 56.9298 14.7734C56.9298 14.7103 56.9173 14.6478 56.8931 14.5895C56.8688 14.5312 56.8333 14.4784 56.7885 14.434C56.7437 14.3897 56.6906 14.3547 56.6323 14.3312C56.574 14.3076 56.5116 14.296 56.4487 14.2969H46.9615ZM24.1923 19.0625C24.1294 19.0616 24.067 19.0733 24.0087 19.0968C23.9504 19.1204 23.8973 19.1553 23.8525 19.1997C23.8078 19.244 23.7722 19.2969 23.748 19.3551C23.7237 19.4134 23.7112 19.4759 23.7112 19.5391C23.7112 19.6022 23.7237 19.6647 23.748 19.723C23.7722 19.7813 23.8078 19.8341 23.8525 19.8785C23.8973 19.9228 23.9504 19.9578 24.0087 19.9813C24.067 20.0049 24.1294 20.0165 24.1923 20.0156H51.7051C51.768 20.0165 51.8304 20.0049 51.8887 19.9813C51.9471 19.9578 52.0002 19.9228 52.0449 19.8785C52.0897 19.8341 52.1252 19.7813 52.1495 19.723C52.1737 19.6647 52.1862 19.6022 52.1862 19.5391C52.1862 19.4759 52.1737 19.4134 52.1495 19.3551C52.1252 19.2969 52.0897 19.244 52.0449 19.1997C52.0002 19.1553 51.9471 19.1204 51.8887 19.0968C51.8304 19.0733 51.768 19.0616 51.7051 19.0625H24.1923ZM36.9852 22.875C36.8672 22.8788 36.7549 22.9266 36.6702 23.009L34.3743 25.2411L31.2113 24.7906C31.0895 24.7732 30.9658 24.8041 30.8662 24.8767C30.7667 24.9493 30.6991 25.0579 30.6777 25.1796L30.1255 28.3424L27.3034 29.8447C27.1945 29.9027 27.1123 30.001 27.0743 30.1188C27.0362 30.2366 27.0453 30.3646 27.0996 30.4758L28.5023 33.3594L27.0996 36.243C27.0453 36.3541 27.0362 36.4822 27.0743 36.6C27.1123 36.7178 27.1945 36.816 27.3034 36.874L30.1162 38.3726L24.8056 43.7079C24.7484 43.7653 24.7068 43.8365 24.6846 43.9146C24.6625 43.9928 24.6607 44.0753 24.6792 44.1544C24.6978 44.2335 24.7362 44.3065 24.7907 44.3665C24.8453 44.4265 24.9142 44.4715 24.9909 44.4972L27.8186 45.4428L28.7599 48.2836C28.7854 48.3607 28.8302 48.4299 28.8899 48.4847C28.9496 48.5395 29.0223 48.5781 29.101 48.5968C29.1797 48.6154 29.2619 48.6135 29.3397 48.5913C29.4175 48.5691 29.4884 48.5272 29.5455 48.4698L35.4565 42.5313L36.6702 43.7097C36.7586 43.7957 36.8769 43.8438 37 43.8438C37.1231 43.8438 37.2414 43.7957 37.3298 43.7097L38.5435 42.5313L44.4545 48.4698C44.5116 48.5272 44.5825 48.5691 44.6603 48.5913C44.7381 48.6135 44.8203 48.6154 44.899 48.5968C44.9777 48.5781 45.0504 48.5395 45.1101 48.4847C45.1698 48.4299 45.2146 48.3607 45.2401 48.2836L46.1814 45.4428L49.0091 44.4972C49.0858 44.4715 49.1547 44.4265 49.2093 44.3665C49.2638 44.3065 49.3022 44.2335 49.3208 44.1544C49.3393 44.0753 49.3375 43.9928 49.3154 43.9146C49.2932 43.8365 49.2516 43.7653 49.1944 43.7079L43.8838 38.3726L46.6966 36.874C46.8055 36.816 46.8877 36.7178 46.9257 36.6C46.9638 36.4822 46.9547 36.3541 46.9004 36.243L45.4977 33.3594L46.9004 30.4758C46.9547 30.3646 46.9638 30.2366 46.9257 30.1188C46.8877 30.001 46.8055 29.9027 46.6966 29.8447L43.8745 28.3424L43.3223 25.1796C43.3009 25.0579 43.2333 24.9493 43.1338 24.8767C43.0342 24.8041 42.9105 24.7732 42.7887 24.7906L39.6257 25.2411L37.3298 23.009C37.2842 22.9647 37.2302 22.9299 37.171 22.9069C37.1118 22.8839 37.0486 22.873 36.9852 22.875V22.875ZM37 24.0143L39.1328 26.0881C39.1848 26.1384 39.2475 26.1761 39.3162 26.1984C39.385 26.2206 39.4578 26.2268 39.5293 26.2165L42.4681 25.7995L42.9795 28.7352C42.9921 28.8069 43.0209 28.8746 43.0636 28.9333C43.1063 28.9921 43.1619 29.0402 43.226 29.074L45.8461 30.4721L44.5434 33.1509C44.512 33.2158 44.4956 33.2871 44.4956 33.3594C44.4956 33.4316 44.512 33.5029 44.5434 33.5679L45.8461 36.2467L43.226 37.6447C43.1619 37.6786 43.1063 37.7267 43.0636 37.7854C43.0209 37.8441 42.9921 37.9119 42.9795 37.9835L42.4681 40.9192L39.5293 40.5022C39.4578 40.4919 39.385 40.4981 39.3162 40.5204C39.2475 40.5426 39.1848 40.5804 39.1328 40.6307L37 42.7045L34.8672 40.6307C34.8152 40.5804 34.7525 40.5426 34.6838 40.5204C34.615 40.4981 34.5422 40.4919 34.4707 40.5022L31.5319 40.9192L31.0205 37.9835C31.0079 37.9119 30.9791 37.8441 30.9364 37.7854C30.8937 37.7267 30.8381 37.6786 30.774 37.6447L28.1539 36.2467L29.4566 33.5679C29.488 33.5029 29.5044 33.4316 29.5044 33.3594C29.5044 33.2871 29.488 33.2158 29.4566 33.1509L28.1539 30.4721L30.774 29.074C30.8381 29.0402 30.8937 28.9921 30.9364 28.9333C30.9791 28.8746 31.0079 28.8069 31.0205 28.7352L31.5319 25.7995L34.4707 26.2165C34.5422 26.2268 34.615 26.2206 34.6838 26.1984C34.7525 26.1761 34.8152 26.1384 34.8672 26.0881L37 24.0143ZM37.0019 27.1641C33.6015 27.1641 30.8352 29.9432 30.8352 33.3594C30.8352 36.7755 33.6015 39.5547 37.0019 39.5547C38.9134 39.5547 40.6263 38.6782 41.7566 37.3022C41.8001 37.2546 41.8335 37.1985 41.8547 37.1375C41.876 37.0765 41.8847 37.0118 41.8803 36.9473C41.8759 36.8828 41.8584 36.8199 41.8291 36.7624C41.7997 36.7049 41.759 36.654 41.7094 36.6128C41.6598 36.5716 41.6024 36.5409 41.5407 36.5227C41.479 36.5045 41.4142 36.4991 41.3503 36.5068C41.2864 36.5145 41.2248 36.5352 41.1691 36.5676C41.1134 36.6 41.0649 36.6435 41.0265 36.6953C40.0695 37.8604 38.6252 38.6016 37.0019 38.6016C34.1141 38.6016 31.7839 36.2605 31.7839 33.3594C31.7839 30.4582 34.1141 28.1172 37.0019 28.1172C37.1575 28.1172 37.3143 28.1262 37.4744 28.1414C37.5364 28.1473 37.599 28.1408 37.6586 28.1224C37.7181 28.1039 37.7735 28.0739 37.8215 28.034C37.8695 27.994 37.9092 27.945 37.9384 27.8896C37.9675 27.8343 37.9855 27.7737 37.9914 27.7114C37.9972 27.649 37.9908 27.5861 37.9724 27.5263C37.9541 27.4665 37.9242 27.4108 37.8844 27.3626C37.8447 27.3144 37.7958 27.2745 37.7407 27.2452C37.6857 27.2159 37.6254 27.1978 37.5633 27.192C37.3818 27.1748 37.1953 27.1641 37.0019 27.1641ZM39.5775 27.7896C39.4705 27.7902 39.3669 27.8271 39.2834 27.8944C39.2 27.9616 39.1416 28.0552 39.1178 28.16C39.094 28.2648 39.1061 28.3746 39.1522 28.4716C39.1983 28.5686 39.2757 28.647 39.3718 28.6943C40.0111 29.0237 40.5751 29.4749 41.0265 30.0234C41.0662 30.0717 41.1149 30.1117 41.1699 30.141C41.225 30.1704 41.2852 30.1886 41.3473 30.1946C41.4093 30.2005 41.4719 30.1942 41.5315 30.1758C41.591 30.1575 41.6464 30.1275 41.6945 30.0877C41.7426 30.0478 41.7823 29.9989 41.8116 29.9436C41.8408 29.8883 41.8589 29.8277 41.8648 29.7654C41.8707 29.7031 41.8644 29.6402 41.8462 29.5804C41.8279 29.5205 41.7981 29.4648 41.7584 29.4166C41.2231 28.766 40.5569 28.2327 39.8054 27.8454C39.7353 27.8079 39.6569 27.7887 39.5775 27.7896V27.7896ZM42.4774 31.3172C42.4031 31.3165 42.3297 31.3332 42.2631 31.3662C42.1964 31.3991 42.1384 31.4473 42.0937 31.5069C42.049 31.5665 42.0189 31.6358 42.0057 31.7092C41.9925 31.7827 41.9967 31.8582 42.0178 31.9297C42.1047 32.2399 42.1663 32.5572 42.1957 32.8828C42.2013 32.9452 42.2191 33.0058 42.248 33.0612C42.2769 33.1167 42.3164 33.1659 42.3642 33.206C42.4121 33.2461 42.4673 33.2763 42.5268 33.295C42.5862 33.3137 42.6488 33.3204 42.7108 33.3148C42.7729 33.3091 42.8332 33.2913 42.8884 33.2622C42.9436 33.2332 42.9926 33.1935 43.0325 33.1454C43.0724 33.0974 43.1025 33.0419 43.1211 32.9821C43.1397 32.9224 43.1463 32.8595 43.1407 32.7972C43.1056 32.408 43.0323 32.0317 42.9313 31.6709C42.9046 31.5702 42.8457 31.4811 42.7637 31.4172C42.6817 31.3533 42.5811 31.3182 42.4774 31.3172V31.3172ZM30.3238 39.5119L30.6777 41.5391C30.6991 41.6608 30.7667 41.7694 30.8662 41.842C30.9658 41.9146 31.0895 41.9455 31.2113 41.9282L34.3743 41.4777L34.7746 41.8686L29.4177 47.2504L28.6431 44.916C28.6198 44.8458 28.5806 44.782 28.5285 44.7296C28.4764 44.6773 28.4129 44.6378 28.3429 44.6144L26.0193 43.8363L30.3238 39.5119ZM43.6762 39.5119L47.9807 43.8363L45.6571 44.6144C45.5871 44.6378 45.5236 44.6773 45.4715 44.7296C45.4194 44.782 45.3802 44.8458 45.3569 44.916L44.5823 47.2504L39.2254 41.8686L39.6257 41.4777L42.7887 41.9282C42.9105 41.9455 43.0342 41.9146 43.1338 41.842C43.2333 41.7694 43.3009 41.6608 43.3223 41.5391L43.6762 39.5119Z" fill="url(#paint0_linear_1_128)"/>
<defs>
<linearGradient id="paint0_linear_1_128" x1="37" y1="0" x2="37" y2="61" gradientUnits="userSpaceOnUse">
<stop stop-color="#5FC998"/>
<stop offset="1" stop-color="#19A364"/>
</linearGradient>
</defs>
</svg>
