<svg width="65" height="65" viewBox="0 0 65 65" fill="none" xmlns="http://www.w3.org/2000/svg">
<path d="M32.0749 0.199951C29.8058 0.199951 27.9911 1.86824 27.5742 4.01997C26.7396 3.24802 25.6447 2.74995 24.4249 2.74995C21.8531 2.74995 19.7499 4.85321 19.7499 7.42495V11.25H4.44987C2.11279 11.25 0.199875 13.1629 0.199875 15.5V39.2999C0.199875 41.637 2.11279 43.5499 4.44987 43.5499H16.7085L22.2999 54.7992V63.9499C22.2983 64.0626 22.3191 64.1744 22.3611 64.2789C22.4031 64.3835 22.4655 64.4786 22.5445 64.5588C22.6236 64.639 22.7179 64.7027 22.8218 64.7462C22.9257 64.7897 23.0372 64.8121 23.1499 64.8121C23.2625 64.8121 23.374 64.7897 23.478 64.7462C23.5819 64.7027 23.6761 64.639 23.7552 64.5588C23.8343 64.4786 23.8967 64.3835 23.9387 64.2789C23.9807 64.1744 24.0015 64.0626 23.9999 63.9499V54.5999C23.9996 54.4685 23.969 54.339 23.9102 54.2214L11.4474 29.1464C11.4406 29.1324 11.4334 29.1186 11.4258 29.1049C11.3038 28.89 11.2499 28.7069 11.2499 28.6749C11.2499 27.9608 12.4177 26.5499 14.3311 26.5499C16.4626 26.5499 17.457 27.1702 19.0858 29.2062C19.0906 29.2122 19.3194 29.5173 19.627 29.9367C19.9347 30.356 20.3526 30.927 20.8406 31.5968C21.8167 32.9364 23.0776 34.6725 24.3253 36.3914C26.8205 39.8291 29.2609 43.198 29.2609 43.198C29.3397 43.307 29.4433 43.3957 29.563 43.4569C29.6828 43.5181 29.8154 43.55 29.9499 43.5499H50.3499V49.5C50.3499 51.361 48.8768 52.8504 47.0262 52.8916C46.9964 52.889 46.9665 52.8879 46.9366 52.8883C46.8954 52.8892 46.8544 52.8931 46.8137 52.8999H41.4249C41.3686 52.8992 41.3126 52.9096 41.2604 52.9306C41.2081 52.9516 41.1605 52.9827 41.1204 53.0223C41.0803 53.0618 41.0485 53.1089 41.0267 53.1609C41.005 53.2129 40.9938 53.2686 40.9938 53.3249C40.9938 53.3813 41.005 53.437 41.0267 53.489C41.0485 53.541 41.0803 53.5881 41.1204 53.6276C41.1605 53.6672 41.2081 53.6983 41.2604 53.7193C41.3126 53.7403 41.3686 53.7507 41.4249 53.75H46.0882C46.0886 53.795 46.0924 53.84 46.0999 53.8844V63.9499C46.0983 64.0626 46.1191 64.1744 46.1611 64.2789C46.2031 64.3835 46.2654 64.4786 46.3445 64.5588C46.4236 64.639 46.5179 64.7027 46.6218 64.7462C46.7257 64.7897 46.8372 64.8121 46.9499 64.8121C47.0625 64.8121 47.174 64.7897 47.278 64.7462C47.3819 64.7027 47.4761 64.639 47.5552 64.5588C47.6343 64.4786 47.6967 64.3835 47.7387 64.2789C47.7807 64.1744 47.8015 64.0626 47.7999 63.9499V54.5219C50.2038 54.1137 52.0499 52.0161 52.0499 49.5V43.5499H60.5499C62.887 43.5499 64.7999 41.637 64.7999 39.2999V15.5C64.7999 13.1629 62.887 11.25 60.5499 11.25H52.0283C51.8117 8.87569 49.8032 6.99995 47.3749 6.99995C46.2305 6.99995 45.2147 7.46318 44.3999 8.1521V7.42495C44.3999 4.85321 42.2966 2.74995 39.7249 2.74995C38.505 2.74995 37.4101 3.24802 36.5756 4.01997C36.1587 1.86824 34.3439 0.199951 32.0749 0.199951ZM32.0749 1.89995C33.7276 1.89995 35.0499 3.22219 35.0499 4.87495V6.99995V7.42495V11.25H29.0999V7.42495V6.99995V4.87495C29.0999 3.22219 30.4221 1.89995 32.0749 1.89995ZM24.4249 4.44995C26.0776 4.44995 27.3999 5.77219 27.3999 7.42495V11.25H21.4499V7.42495C21.4499 5.77219 22.7721 4.44995 24.4249 4.44995ZM39.7249 4.44995C41.3776 4.44995 42.6999 5.77219 42.6999 7.42495V11.25H36.7499V7.42495C36.7499 5.77219 38.0721 4.44995 39.7249 4.44995ZM47.3749 8.69995C48.882 8.69995 50.1028 9.80302 50.3084 11.25H44.4414C44.6469 9.80302 45.8678 8.69995 47.3749 8.69995ZM4.44987 12.95H20.4571C20.5489 12.9651 20.6426 12.9651 20.7343 12.95H28.1071C28.1989 12.9651 28.2926 12.9651 28.3843 12.95H35.7571C35.8489 12.9651 35.9426 12.9651 36.0343 12.95H60.5499C61.9681 12.95 63.0999 14.0817 63.0999 15.5V39.2999C63.0999 40.7182 61.9681 41.8499 60.5499 41.8499H51.331C51.2833 41.842 51.235 41.8381 51.1866 41.8383C51.1454 41.8392 51.1044 41.8431 51.0637 41.8499H30.3832C30.2603 41.6803 28.8993 39.8041 27.9178 38.45H55.0249C55.1376 38.4499 55.2457 38.4052 55.3254 38.3255C55.4051 38.2458 55.4499 38.1377 55.4499 38.0249C55.4499 35.9079 57.1578 34.2 59.2749 34.2C59.3876 34.1999 59.4957 34.1552 59.5754 34.0755C59.6551 33.9958 59.6999 33.8877 59.6999 33.7749V21.025C59.6999 20.9122 59.6551 20.8041 59.5754 20.7244C59.4957 20.6447 59.3876 20.6 59.2749 20.6C57.1578 20.6 55.4499 18.892 55.4499 16.775C55.4499 16.6622 55.4051 16.5541 55.3254 16.4744C55.2457 16.3947 55.1376 16.35 55.0249 16.35H51.6249C51.5686 16.3492 51.5126 16.3596 51.4604 16.3806C51.4081 16.4016 51.3605 16.4327 51.3204 16.4723C51.2803 16.5118 51.2485 16.5589 51.2267 16.6109C51.205 16.6629 51.1938 16.7186 51.1938 16.775C51.1938 16.8313 51.205 16.887 51.2267 16.939C51.2485 16.991 51.2803 17.0381 51.3204 17.0776C51.3605 17.1172 51.4081 17.1483 51.4604 17.1693C51.5126 17.1903 51.5686 17.2007 51.6249 17.2H54.6862C54.8979 19.4211 56.6287 21.1519 58.8499 21.3636V33.4363C56.6287 33.648 54.8979 35.3788 54.6862 37.5999H27.3019C26.5855 36.6119 26.5107 36.5067 25.7015 35.3919C24.4536 33.6727 23.1908 31.9369 22.2135 30.5958C21.7249 29.9252 21.308 29.3527 20.9983 28.9306C20.6886 28.5085 20.518 28.274 20.4139 28.1437C18.6427 25.9297 16.8747 24.85 14.3311 24.85C11.6341 24.85 9.54987 26.6266 9.54987 28.6749C9.54987 29.2465 9.78307 29.6567 9.94665 29.945L13.7517 37.5999H10.3135C10.1018 35.3788 8.37101 33.648 6.14987 33.4363V21.3636C8.37101 21.1519 10.1018 19.4211 10.3135 17.2H43.9749C44.0312 17.2007 44.0871 17.1903 44.1394 17.1693C44.1916 17.1483 44.2392 17.1172 44.2793 17.0776C44.3194 17.0381 44.3513 16.991 44.373 16.939C44.3947 16.887 44.4059 16.8313 44.4059 16.775C44.4059 16.7186 44.3947 16.6629 44.373 16.6109C44.3513 16.5589 44.3194 16.5118 44.2793 16.4723C44.2392 16.4327 44.1916 16.4016 44.1394 16.3806C44.0871 16.3596 44.0312 16.3492 43.9749 16.35H9.97487C9.86216 16.35 9.75407 16.3947 9.67437 16.4744C9.59467 16.5541 9.54988 16.6622 9.54987 16.775C9.54987 18.892 7.84196 20.6 5.72487 20.6C5.61216 20.6 5.50407 20.6447 5.42437 20.7244C5.34467 20.8041 5.29989 20.9122 5.29987 21.025V33.7749C5.29989 33.8877 5.34467 33.9958 5.42437 34.0755C5.50407 34.1552 5.61216 34.1999 5.72487 34.2C7.84196 34.2 9.54987 35.9079 9.54987 38.0249C9.54988 38.1377 9.59467 38.2458 9.67437 38.3255C9.75407 38.4052 9.86216 38.4499 9.97487 38.45H14.1734L15.8634 41.8499H4.44987C3.03166 41.8499 1.89987 40.7182 1.89987 39.2999V15.5C1.89987 14.0817 3.03166 12.95 4.44987 12.95ZM45.6749 16.35C45.6186 16.3492 45.5626 16.3596 45.5104 16.3806C45.4581 16.4016 45.4105 16.4327 45.3704 16.4723C45.3303 16.5118 45.2985 16.5589 45.2767 16.6109C45.255 16.6629 45.2438 16.7186 45.2438 16.775C45.2438 16.8313 45.255 16.887 45.2767 16.939C45.2985 16.991 45.3303 17.0381 45.3704 17.0776C45.4105 17.1172 45.4581 17.1483 45.5104 17.1693C45.5626 17.1903 45.6186 17.2007 45.6749 17.2H46.5249C46.5812 17.2007 46.6371 17.1903 46.6894 17.1693C46.7416 17.1483 46.7892 17.1172 46.8293 17.0776C46.8694 17.0381 46.9013 16.991 46.923 16.939C46.9447 16.887 46.9559 16.8313 46.9559 16.775C46.9559 16.7186 46.9447 16.6629 46.923 16.6109C46.9013 16.5589 46.8694 16.5118 46.8293 16.4723C46.7892 16.4327 46.7416 16.4016 46.6894 16.3806C46.6371 16.3596 46.5812 16.3492 46.5249 16.35H45.6749ZM32.4999 19.75C28.2799 19.75 24.8499 23.18 24.8499 27.4C24.8499 31.6199 28.2799 35.0499 32.4999 35.0499C36.7198 35.0499 40.1499 31.6199 40.1499 27.4C40.1499 23.18 36.7198 19.75 32.4999 19.75ZM32.4999 20.6C36.2604 20.6 39.2999 23.6394 39.2999 27.4C39.2999 31.1605 36.2604 34.2 32.4999 34.2C28.7393 34.2 25.6999 31.1605 25.6999 27.4C25.6999 23.6394 28.7393 20.6 32.4999 20.6ZM50.3499 24.85C49.5353 24.85 48.8711 25.1707 48.439 25.6568C48.007 26.1429 47.7999 26.7743 47.7999 27.4C47.7999 28.0256 48.007 28.657 48.439 29.1431C48.8711 29.6292 49.5353 29.9499 50.3499 29.9499C51.1645 29.9499 51.8287 29.6292 52.2607 29.1431C52.6928 28.657 52.8999 28.0256 52.8999 27.4C52.8999 26.7743 52.6928 26.1429 52.2607 25.6568C51.8287 25.1707 51.1645 24.85 50.3499 24.85ZM50.3499 25.6999C50.952 25.6999 51.3503 25.9104 51.6265 26.2212C51.9028 26.532 52.0499 26.9631 52.0499 27.4C52.0499 27.8368 51.9028 28.2679 51.6265 28.5787C51.3503 28.8895 50.952 29.1 50.3499 29.1C49.7478 29.1 49.3495 28.8895 49.0732 28.5787C48.7969 28.2679 48.6499 27.8368 48.6499 27.4C48.6499 26.9631 48.7969 26.532 49.0732 26.2212C49.3495 25.9104 49.7478 25.6999 50.3499 25.6999ZM38.8749 52.8999C38.8186 52.8992 38.7626 52.9096 38.7104 52.9306C38.6581 52.9516 38.6105 52.9827 38.5704 53.0223C38.5303 53.0618 38.4985 53.1089 38.4767 53.1609C38.455 53.2129 38.4438 53.2686 38.4438 53.3249C38.4438 53.3813 38.455 53.437 38.4767 53.489C38.4985 53.541 38.5303 53.5881 38.5704 53.6276C38.6105 53.6672 38.6581 53.6983 38.7104 53.7193C38.7626 53.7403 38.8186 53.7507 38.8749 53.75H39.7249C39.7812 53.7507 39.8371 53.7403 39.8894 53.7193C39.9416 53.6983 39.9892 53.6672 40.0293 53.6276C40.0694 53.5881 40.1013 53.541 40.123 53.489C40.1447 53.437 40.1559 53.3813 40.1559 53.3249C40.1559 53.2686 40.1447 53.2129 40.123 53.1609C40.1013 53.1089 40.0694 53.0618 40.0293 53.0223C39.9892 52.9827 39.9416 52.9516 39.8894 52.9306C39.8371 52.9096 39.7812 52.8992 39.7249 52.8999H38.8749Z" fill="url(#paint0_linear_1_136)"/>
<defs>
<linearGradient id="paint0_linear_1_136" x1="32.4999" y1="0.199951" x2="32.4999" y2="64.8121" gradientUnits="userSpaceOnUse">
<stop stop-color="#5FC998"/>
<stop offset="1" stop-color="#19A364"/>
</linearGradient>
</defs>
</svg>
