<svg width="20" height="21" viewBox="0 0 20 21" fill="none" xmlns="http://www.w3.org/2000/svg">
<path d="M2.59375 0.875C1.40894 0.875 0.4375 1.84644 0.4375 3.03125V14.5312C0.4375 15.7161 1.40894 16.6875 2.59375 16.6875H4.75V20.1858L10.0002 16.6875H16.9688C18.1536 16.6875 19.125 15.7161 19.125 14.5312V3.03125C19.125 1.84644 18.1536 0.875 16.9688 0.875H2.59375ZM2.59375 2.3125H16.9688C17.373 2.3125 17.6875 2.62695 17.6875 3.03125V14.5312C17.6875 14.9355 17.373 15.25 16.9688 15.25H9.56225L6.1875 17.5017V15.25H2.59375C2.18945 15.25 1.875 14.9355 1.875 14.5312V3.03125C1.875 2.62695 2.18945 2.3125 2.59375 2.3125Z" fill="#C4C4C4"/>
</svg>
