<svg width="13" height="17" viewBox="0 0 13 17" fill="none" xmlns="http://www.w3.org/2000/svg">
<path d="M6.46909 -0.0107346C6.45847 -0.00807839 6.44784 -0.00409403 6.43722 -0.000109643C6.43323 -0.000109643 6.43058 -0.000109643 6.42659 -0.000109643C6.41597 0.00254661 6.40534 0.006531 6.39472 0.0105154C3.06777 0.0676248 0.380969 2.77966 0.380969 6.11989V8.39364C0.361047 8.46005 0.361047 8.52911 0.380969 8.59552V10.8799C0.380969 14.256 3.12488 16.9999 6.50097 16.9999C9.87706 16.9999 12.621 14.256 12.621 10.8799V8.56364C12.6303 8.51849 12.6303 8.47067 12.621 8.42552V6.11989C12.621 2.77966 9.93417 0.0676248 6.60722 0.0105154C6.60058 0.006531 6.59261 0.00254661 6.58597 -0.000109643C6.57933 -0.000109643 6.57136 -0.000109643 6.56472 -0.000109643C6.53417 -0.00807839 6.50097 -0.0120628 6.46909 -0.0107346ZM6.16097 0.70114V8.15989H1.06097V6.11989C1.06097 3.22723 3.31347 0.877781 6.16097 0.70114ZM6.84097 0.70114C9.68847 0.877781 11.941 3.22723 11.941 6.11989V8.15989H6.84097V0.70114ZM1.06097 8.83989H11.941V10.8799C11.941 13.8881 9.50917 16.3199 6.50097 16.3199C3.49277 16.3199 1.06097 13.8881 1.06097 10.8799V8.83989Z" fill="white" stroke="white" stroke-width="0.5"/>
</svg>
