<svg width="15" height="15" viewBox="0 0 15 15" fill="none" xmlns="http://www.w3.org/2000/svg">
<path d="M9.09448 0.59375C6.16638 0.59375 3.78198 2.97815 3.78198 5.90625C3.78198 7.17834 4.22815 8.3446 4.97729 9.25977L0.743896 13.4932L1.50757 14.2568L5.74097 10.0234C6.65613 10.7726 7.82239 11.2188 9.09448 11.2188C12.0226 11.2188 14.407 8.83435 14.407 5.90625C14.407 2.97815 12.0226 0.59375 9.09448 0.59375ZM9.09448 1.65625C11.4478 1.65625 13.3445 3.55298 13.3445 5.90625C13.3445 8.25952 11.4478 10.1562 9.09448 10.1562C6.74121 10.1562 4.84448 8.25952 4.84448 5.90625C4.84448 3.55298 6.74121 1.65625 9.09448 1.65625Z" fill="#3F9994"/>
</svg>
