<svg width="20" height="20" viewBox="0 0 20 20" fill="none" xmlns="http://www.w3.org/2000/svg">
<path d="M10 0.5C7.52735 0.5 5.5 2.52734 5.5 5H2.5C2.10157 5 1.77344 5.31055 1.75 5.70898L1 19.209C0.988286 19.4141 1.06446 19.6191 1.20508 19.7656C1.34571 19.918 1.54493 20 1.75 20H18.25C18.4551 20 18.6543 19.918 18.7949 19.7656C18.9356 19.6191 19.0117 19.4141 19 19.209L18.25 5.70898C18.2266 5.31055 17.8984 5 17.5 5H14.5C14.5 2.52734 12.4727 0.5 10 0.5ZM10 2C11.6523 2 13 3.34766 13 5H7C7 3.34766 8.34766 2 10 2ZM3.20899 6.5H5.5V9.5H7V6.5H13V9.5H14.5V6.5H16.791L17.4531 18.5H2.54688L3.20899 6.5Z" fill="white"/>
</svg>
