<svg width="17" height="18" viewBox="0 0 17 18" fill="none" xmlns="http://www.w3.org/2000/svg">
<path d="M8.49908 0.3125C6.33551 0.3125 4.56158 2.08643 4.56158 4.25H1.93658C1.58795 4.25 1.30084 4.52173 1.28033 4.87036L0.624078 16.6829C0.613825 16.8623 0.680475 17.0417 0.803522 17.1699C0.926569 17.3032 1.10088 17.375 1.28033 17.375H15.7178C15.8973 17.375 16.0716 17.3032 16.1946 17.1699C16.3177 17.0417 16.3843 16.8623 16.3741 16.6829L15.7178 4.87036C15.6973 4.52173 15.4102 4.25 15.0616 4.25H12.4366C12.4366 2.08643 10.6627 0.3125 8.49908 0.3125ZM8.49908 1.625C9.94488 1.625 11.1241 2.8042 11.1241 4.25H5.87408C5.87408 2.8042 7.05328 1.625 8.49908 1.625ZM2.55694 5.5625H4.56158V8.1875H5.87408V5.5625H11.1241V8.1875H12.4366V5.5625H14.4412L15.0206 16.0625H1.97759L2.55694 5.5625Z" fill="#19A364"/>
</svg>
