<svg width="561" height="407" viewBox="0 0 561 407" fill="none" xmlns="http://www.w3.org/2000/svg">
<g filter="url(#filter0_d_1_512)">
<mask id="mask0_1_512" style="mask-type:alpha" maskUnits="userSpaceOnUse" x="4" y="0" width="553" height="407">
<rect x="4" width="553" height="407" rx="20" fill="url(#paint0_linear_1_512)"/>
</mask>
<g mask="url(#mask0_1_512)">
<g filter="url(#filter1_f_1_512)">
<circle cx="-25" cy="152" r="119" fill="#FFB800" fill-opacity="0.64"/>
</g>
<path fill-rule="evenodd" clip-rule="evenodd" d="M476.931 22.1968C534.209 33.3855 550.802 101.526 585.552 148.498C617.541 191.737 677.657 225.992 666.679 278.678C655.636 331.675 589.826 345.526 540.089 366.686C494.793 385.956 447.531 409.861 401.938 391.309C353.517 371.607 327.813 322.766 310.624 273.317C289.738 213.231 262.901 145.347 298.012 92.3299C335.264 36.0794 410.798 9.27848 476.931 22.1968Z" fill="url(#paint1_linear_1_512)"/>
<g filter="url(#filter2_d_1_512)">
<path fill-rule="evenodd" clip-rule="evenodd" d="M572.379 31.3464C589.152 60.4214 610.189 95.3392 593.798 124.631C577.59 153.598 536.408 147.743 503.794 153.916C471.63 160.003 433.139 183.046 410.606 159.3C388.199 135.685 417.141 99.3767 421.422 67.1052C424.751 42.0087 414.193 13.4311 432.304 -4.25834C452.295 -23.7846 483.364 -26.7339 510.448 -19.8497C537.759 -12.9077 558.297 6.93752 572.379 31.3464Z" fill="#05C66E"/>
</g>
<g filter="url(#filter3_d_1_512)">
<path fill-rule="evenodd" clip-rule="evenodd" d="M276.413 116.411C276.399 101.963 276.05 84.4204 288.454 77.0131C300.721 69.6882 314.826 80.7155 328.318 85.4167C341.623 90.053 360.93 89.7224 364.236 103.419C367.524 117.04 348.931 124.369 340.404 135.488C333.773 144.135 331.575 157.063 321.02 159.773C309.369 162.764 297.146 157.192 288.521 148.808C279.824 140.354 276.424 128.541 276.413 116.411Z" fill="#05C66E"/>
</g>
<g filter="url(#filter4_d_1_512)">
<path fill-rule="evenodd" clip-rule="evenodd" d="M500.717 376.866C491.572 365.571 480.076 352.126 490.032 336.261C499.878 320.572 523.489 317.752 542.379 310.48C561.009 303.307 583.581 287.377 596.137 295.412C608.623 303.402 591.314 324.229 588.279 339.852C585.918 352.001 591.492 363.901 580.75 374.589C568.893 386.387 550.95 391.948 535.475 392.388C519.871 392.832 508.395 386.348 500.717 376.866Z" fill="#07D175"/>
</g>
<path d="M431.352 229.039C431.646 228.745 431.646 228.268 431.352 227.973C431.058 227.679 430.581 227.679 430.286 227.973C429.992 228.268 429.992 228.745 430.286 229.039C430.581 229.333 431.058 229.333 431.352 229.039Z" fill="white"/>
<path d="M454.544 252.231C454.851 251.924 454.851 251.426 454.544 251.119C454.237 250.812 453.739 250.812 453.432 251.119C453.125 251.426 453.125 251.924 453.432 252.231C453.739 252.538 454.237 252.538 454.544 252.231Z" fill="white"/>
<path d="M477.736 275.423C478.056 275.103 478.056 274.584 477.736 274.264C477.416 273.944 476.897 273.944 476.577 274.264C476.257 274.584 476.257 275.103 476.577 275.423C476.897 275.743 477.416 275.743 477.736 275.423Z" fill="white"/>
<path d="M500.881 298.568C501.188 298.261 501.188 297.763 500.881 297.456C500.574 297.149 500.076 297.149 499.769 297.456C499.462 297.763 499.462 298.261 499.769 298.568C500.076 298.875 500.574 298.875 500.881 298.568Z" fill="white"/>
<path d="M524.027 321.714C524.321 321.419 524.321 320.942 524.027 320.648C523.732 320.354 523.255 320.354 522.961 320.648C522.667 320.942 522.667 321.419 522.961 321.714C523.255 322.008 523.732 322.008 524.027 321.714Z" fill="white"/>
<path d="M431.398 182.748C431.718 182.428 431.718 181.909 431.398 181.589C431.078 181.27 430.56 181.27 430.24 181.589C429.92 181.909 429.92 182.428 430.24 182.748C430.56 183.068 431.078 183.068 431.398 182.748Z" fill="white"/>
<path d="M454.602 205.951C454.941 205.612 454.941 205.062 454.602 204.723C454.263 204.384 453.713 204.384 453.374 204.723C453.035 205.062 453.035 205.612 453.374 205.951C453.713 206.29 454.263 206.29 454.602 205.951Z" fill="white"/>
<path d="M477.805 229.155C478.164 228.797 478.164 228.216 477.805 227.857C477.447 227.499 476.866 227.499 476.508 227.857C476.15 228.216 476.15 228.797 476.508 229.155C476.866 229.513 477.447 229.513 477.805 229.155Z" fill="white"/>
<path d="M501.009 252.358C501.386 251.981 501.386 251.369 501.009 250.991C500.631 250.614 500.019 250.614 499.642 250.991C499.264 251.369 499.264 251.981 499.642 252.358C500.019 252.736 500.631 252.736 501.009 252.358Z" fill="white"/>
<path d="M524.143 275.492C524.501 275.134 524.501 274.553 524.143 274.195C523.784 273.836 523.203 273.836 522.845 274.195C522.487 274.553 522.487 275.134 522.845 275.492C523.203 275.85 523.784 275.85 524.143 275.492Z" fill="white"/>
<path d="M547.277 298.626C547.616 298.287 547.616 297.737 547.277 297.398C546.937 297.059 546.388 297.059 546.049 297.398C545.71 297.737 545.71 298.287 546.049 298.626C546.388 298.965 546.937 298.965 547.277 298.626Z" fill="white"/>
<path d="M570.411 321.76C570.73 321.44 570.73 320.922 570.411 320.602C570.091 320.282 569.572 320.282 569.252 320.602C568.932 320.922 568.932 321.44 569.252 321.76C569.572 322.08 570.091 322.08 570.411 321.76Z" fill="white"/>
<path d="M431.398 136.411C431.718 136.091 431.718 135.572 431.398 135.252C431.078 134.932 430.56 134.932 430.24 135.252C429.92 135.572 429.92 136.091 430.24 136.411C430.56 136.73 431.078 136.73 431.398 136.411Z" fill="white"/>
<path d="M454.613 159.626C454.959 159.28 454.959 158.72 454.613 158.374C454.268 158.029 453.708 158.029 453.362 158.374C453.017 158.72 453.017 159.28 453.362 159.626C453.708 159.971 454.268 159.971 454.613 159.626Z" fill="white"/>
<path d="M477.84 182.852C478.217 182.475 478.217 181.863 477.84 181.485C477.463 181.108 476.851 181.108 476.473 181.485C476.096 181.863 476.096 182.475 476.473 182.852C476.851 183.23 477.463 183.23 477.84 182.852Z" fill="white"/>
<path d="M501.067 206.079C501.476 205.669 501.476 205.005 501.067 204.596C500.657 204.187 499.993 204.187 499.584 204.596C499.174 205.005 499.174 205.669 499.584 206.079C499.993 206.488 500.657 206.488 501.067 206.079Z" fill="white"/>
<path d="M524.293 229.305C524.735 228.864 524.735 228.148 524.293 227.707C523.852 227.265 523.136 227.265 522.695 227.707C522.253 228.148 522.253 228.864 522.695 229.305C523.136 229.747 523.852 229.747 524.293 229.305Z" fill="white"/>
<path d="M547.404 252.416C547.813 252.007 547.813 251.343 547.404 250.933C546.995 250.524 546.331 250.524 545.921 250.933C545.512 251.343 545.512 252.007 545.921 252.416C546.331 252.826 546.995 252.826 547.404 252.416Z" fill="white"/>
<path d="M570.515 275.527C570.892 275.149 570.892 274.537 570.515 274.16C570.137 273.783 569.525 273.783 569.148 274.16C568.77 274.537 568.77 275.149 569.148 275.527C569.525 275.904 570.137 275.904 570.515 275.527Z" fill="white"/>
<path d="M593.626 298.638C593.971 298.292 593.971 297.732 593.626 297.387C593.28 297.041 592.72 297.041 592.374 297.387C592.029 297.732 592.029 298.292 592.374 298.638C592.72 298.983 593.28 298.983 593.626 298.638Z" fill="white"/>
<path d="M616.748 321.76C617.068 321.44 617.068 320.922 616.748 320.602C616.428 320.282 615.909 320.282 615.589 320.602C615.27 320.922 615.27 321.44 615.589 321.76C615.909 322.08 616.428 322.08 616.748 321.76Z" fill="white"/>
<path d="M431.352 90.0268C431.646 89.7325 431.646 89.2553 431.352 88.961C431.058 88.6667 430.581 88.6667 430.286 88.961C429.992 89.2553 429.992 89.7325 430.286 90.0268C430.581 90.3211 431.058 90.3211 431.352 90.0268Z" fill="white"/>
<path d="M454.602 113.277C454.941 112.937 454.941 112.388 454.602 112.049C454.263 111.71 453.713 111.71 453.374 112.049C453.035 112.388 453.035 112.937 453.374 113.277C453.713 113.616 454.263 113.616 454.602 113.277Z" fill="white"/>
<path d="M477.84 136.515C478.217 136.137 478.217 135.525 477.84 135.148C477.463 134.77 476.851 134.77 476.473 135.148C476.096 135.525 476.096 136.137 476.473 136.515C476.851 136.892 477.463 136.892 477.84 136.515Z" fill="white"/>
<path d="M501.09 159.765C501.512 159.342 501.512 158.658 501.09 158.235C500.668 157.813 499.983 157.813 499.561 158.235C499.138 158.658 499.138 159.342 499.561 159.765C499.983 160.187 500.668 160.187 501.09 159.765Z" fill="white"/>
<path d="M524.328 183.003C524.789 182.542 524.789 181.795 524.328 181.335C523.867 180.874 523.12 180.874 522.66 181.335C522.199 181.795 522.199 182.542 522.66 183.003C523.12 183.463 523.867 183.463 524.328 183.003Z" fill="white"/>
<path d="M547.566 206.241C548.065 205.742 548.065 204.933 547.566 204.434C547.067 203.935 546.258 203.935 545.759 204.434C545.26 204.933 545.26 205.742 545.759 206.241C546.258 206.74 547.067 206.74 547.566 206.241Z" fill="white"/>
<path d="M570.665 229.34C571.126 228.88 571.126 228.133 570.665 227.672C570.205 227.211 569.458 227.211 568.997 227.672C568.537 228.133 568.537 228.88 568.997 229.34C569.458 229.801 570.205 229.801 570.665 229.34Z" fill="white"/>
<path d="M593.765 252.439C594.187 252.017 594.187 251.332 593.765 250.91C593.342 250.488 592.658 250.488 592.235 250.91C591.813 251.332 591.813 252.017 592.235 252.439C592.658 252.862 593.342 252.862 593.765 252.439Z" fill="white"/>
<path d="M616.852 275.527C617.23 275.149 617.23 274.537 616.852 274.16C616.475 273.783 615.863 273.783 615.485 274.16C615.108 274.537 615.108 275.149 615.485 275.527C615.863 275.904 616.475 275.904 616.852 275.527Z" fill="white"/>
<path d="M639.951 298.626C640.29 298.287 640.29 297.737 639.951 297.398C639.612 297.059 639.062 297.059 638.723 297.398C638.384 297.737 638.384 298.287 638.723 298.626C639.062 298.965 639.612 298.965 639.951 298.626Z" fill="white"/>
<path d="M663.039 321.714C663.333 321.419 663.333 320.942 663.039 320.648C662.745 320.354 662.267 320.354 661.973 320.648C661.679 320.942 661.679 321.419 661.973 321.714C662.268 322.008 662.745 322.008 663.039 321.714Z" fill="white"/>
<path d="M454.544 66.8813C454.851 66.5742 454.851 66.0763 454.544 65.7692C454.237 65.4621 453.739 65.4621 453.432 65.7692C453.125 66.0763 453.125 66.5742 453.432 66.8813C453.739 67.1884 454.237 67.1884 454.544 66.8813Z" fill="white"/>
<path d="M477.805 90.1426C478.164 89.7844 478.164 89.2035 477.805 88.8452C477.447 88.4869 476.866 88.4869 476.508 88.8452C476.15 89.2035 476.15 89.7844 476.508 90.1426C476.866 90.5009 477.447 90.5009 477.805 90.1426Z" fill="white"/>
<path d="M501.067 113.404C501.476 112.995 501.476 112.331 501.067 111.921C500.657 111.512 499.993 111.512 499.584 111.921C499.174 112.331 499.174 112.995 499.584 113.404C499.993 113.813 500.657 113.813 501.067 113.404Z" fill="white"/>
<path d="M524.328 136.665C524.789 136.205 524.789 135.458 524.328 134.997C523.867 134.537 523.12 134.537 522.66 134.997C522.199 135.458 522.199 136.205 522.66 136.665C523.12 137.126 523.867 137.126 524.328 136.665Z" fill="white"/>
<path d="M547.589 159.927C548.101 159.415 548.101 158.585 547.589 158.073C547.078 157.561 546.248 157.561 545.736 158.073C545.224 158.585 545.224 159.415 545.736 159.927C546.248 160.439 547.078 160.439 547.589 159.927Z" fill="white"/>
<path d="M570.851 183.188C571.414 182.625 571.414 181.712 570.851 181.149C570.288 180.586 569.375 180.586 568.812 181.149C568.249 181.712 568.249 182.625 568.812 183.188C569.375 183.751 570.288 183.751 570.851 183.188Z" fill="white"/>
<path d="M593.927 206.264C594.439 205.752 594.439 204.922 593.927 204.411C593.415 203.899 592.585 203.899 592.073 204.411C591.561 204.922 591.561 205.752 592.073 206.264C592.585 206.776 593.415 206.776 593.927 206.264Z" fill="white"/>
<path d="M617.003 229.34C617.463 228.88 617.463 228.133 617.003 227.672C616.542 227.211 615.795 227.211 615.335 227.672C614.874 228.133 614.874 228.88 615.335 229.34C615.795 229.801 616.542 229.801 617.003 229.34Z" fill="white"/>
<path d="M640.079 252.416C640.488 252.007 640.488 251.343 640.079 250.933C639.669 250.524 639.005 250.524 638.596 250.933C638.187 251.343 638.187 252.007 638.596 252.416C639.005 252.826 639.669 252.826 640.079 252.416Z" fill="white"/>
<path d="M663.155 275.492C663.513 275.134 663.513 274.553 663.155 274.195C662.797 273.836 662.216 273.836 661.857 274.195C661.499 274.553 661.499 275.134 661.857 275.492C662.216 275.85 662.797 275.85 663.155 275.492Z" fill="white"/>
<path d="M686.231 298.568C686.538 298.261 686.538 297.763 686.231 297.456C685.924 297.149 685.426 297.149 685.119 297.456C684.812 297.763 684.812 298.261 685.119 298.568C685.426 298.875 685.924 298.875 686.231 298.568Z" fill="white"/>
<path d="M477.736 43.7357C478.056 43.4159 478.056 42.8972 477.736 42.5773C477.416 42.2574 476.897 42.2574 476.577 42.5773C476.257 42.8972 476.257 43.4159 476.577 43.7357C476.897 44.0556 477.416 44.0556 477.736 43.7357Z" fill="white"/>
<path d="M501.009 67.0087C501.386 66.6312 501.386 66.0192 501.009 65.6417C500.631 65.2643 500.019 65.2643 499.642 65.6417C499.264 66.0192 499.264 66.6312 499.642 67.0087C500.019 67.3862 500.631 67.3862 501.009 67.0087Z" fill="white"/>
<path d="M524.293 90.2932C524.735 89.8518 524.735 89.136 524.293 88.6946C523.852 88.2531 523.136 88.2531 522.695 88.6946C522.253 89.136 522.253 89.8518 522.695 90.2932C523.136 90.7347 523.852 90.7347 524.293 90.2932Z" fill="white"/>
<path d="M547.566 113.566C548.065 113.067 548.065 112.258 547.566 111.759C547.067 111.26 546.258 111.26 545.759 111.759C545.26 112.258 545.26 113.067 545.759 113.566C546.258 114.065 547.067 114.065 547.566 113.566Z" fill="white"/>
<path d="M570.851 136.851C571.414 136.288 571.414 135.375 570.851 134.812C570.288 134.249 569.375 134.249 568.812 134.812C568.249 135.375 568.249 136.288 568.812 136.851C569.375 137.414 570.288 137.414 570.851 136.851Z" fill="white"/>
<path d="M594.135 160.135C594.762 159.508 594.762 158.492 594.135 157.865C593.508 157.238 592.492 157.238 591.865 157.865C591.238 158.492 591.238 159.508 591.865 160.135C592.492 160.762 593.508 160.762 594.135 160.135Z" fill="white"/>
<path d="M617.188 183.188C617.751 182.625 617.751 181.712 617.188 181.149C616.625 180.586 615.712 180.586 615.149 181.149C614.586 181.712 614.586 182.625 615.149 183.188C615.712 183.751 616.625 183.751 617.188 183.188Z" fill="white"/>
<path d="M640.241 206.241C640.74 205.742 640.74 204.933 640.241 204.434C639.742 203.935 638.933 203.935 638.434 204.434C637.935 204.933 637.935 205.742 638.434 206.241C638.933 206.74 639.742 206.74 640.241 206.241Z" fill="white"/>
<path d="M663.305 229.305C663.747 228.864 663.747 228.148 663.305 227.707C662.864 227.265 662.148 227.265 661.707 227.707C661.265 228.148 661.265 228.864 661.707 229.305C662.148 229.747 662.864 229.747 663.305 229.305Z" fill="white"/>
<path d="M686.358 252.358C686.736 251.981 686.736 251.369 686.358 250.991C685.981 250.614 685.369 250.614 684.991 250.991C684.614 251.369 684.614 251.981 684.991 252.358C685.369 252.736 685.981 252.736 686.358 252.358Z" fill="white"/>
<path d="M709.423 275.423C709.743 275.103 709.743 274.584 709.423 274.264C709.103 273.944 708.584 273.944 708.264 274.264C707.944 274.584 707.944 275.103 708.264 275.423C708.584 275.743 709.103 275.743 709.423 275.423Z" fill="white"/>
<path d="M500.881 20.5439C501.188 20.2368 501.188 19.7389 500.881 19.4318C500.574 19.1247 500.076 19.1247 499.769 19.4318C499.462 19.7389 499.462 20.2368 499.769 20.5439C500.076 20.851 500.574 20.851 500.881 20.5439Z" fill="white"/>
<path d="M524.143 43.8052C524.501 43.447 524.501 42.8661 524.143 42.5078C523.784 42.1495 523.203 42.1495 522.845 42.5078C522.487 42.8661 522.487 43.447 522.845 43.8052C523.203 44.1635 523.784 44.1635 524.143 43.8052Z" fill="white"/>
<path d="M547.404 67.0666C547.813 66.6572 547.813 65.9933 547.404 65.5838C546.995 65.1744 546.331 65.1744 545.921 65.5838C545.512 65.9933 545.512 66.6572 545.921 67.0666C546.331 67.4761 546.995 67.4761 547.404 67.0666Z" fill="white"/>
<path d="M570.665 90.328C571.126 89.8673 571.126 89.1205 570.665 88.6598C570.205 88.1992 569.458 88.1992 568.997 88.6598C568.537 89.1205 568.537 89.8673 568.997 90.328C569.458 90.7886 570.205 90.7886 570.665 90.328Z" fill="white"/>
<path d="M593.927 113.589C594.439 113.078 594.439 112.248 593.927 111.736C593.415 111.224 592.585 111.224 592.073 111.736C591.561 112.248 591.561 113.078 592.073 113.589C592.585 114.101 593.415 114.101 593.927 113.589Z" fill="white"/>
<path d="M617.188 136.851C617.751 136.288 617.751 135.375 617.188 134.812C616.625 134.249 615.712 134.249 615.149 134.812C614.586 135.375 614.586 136.288 615.149 136.851C615.712 137.414 616.625 137.414 617.188 136.851Z" fill="white"/>
<path d="M640.264 159.927C640.776 159.415 640.776 158.585 640.264 158.073C639.752 157.561 638.922 157.561 638.411 158.073C637.899 158.585 637.899 159.415 638.411 159.927C638.922 160.439 639.752 160.439 640.264 159.927Z" fill="white"/>
<path d="M663.34 183.003C663.801 182.542 663.801 181.795 663.34 181.335C662.88 180.874 662.133 180.874 661.672 181.335C661.211 181.795 661.211 182.542 661.672 183.003C662.133 183.463 662.88 183.463 663.34 183.003Z" fill="white"/>
<path d="M686.416 206.079C686.826 205.669 686.826 205.005 686.416 204.596C686.007 204.187 685.343 204.187 684.933 204.596C684.524 205.005 684.524 205.669 684.933 206.079C685.343 206.488 686.007 206.488 686.416 206.079Z" fill="white"/>
<path d="M709.492 229.155C709.85 228.797 709.85 228.216 709.492 227.857C709.134 227.499 708.553 227.499 708.195 227.857C707.836 228.216 707.836 228.797 708.195 229.155C708.553 229.513 709.134 229.513 709.492 229.155Z" fill="white"/>
<path d="M732.568 252.231C732.875 251.924 732.875 251.426 732.568 251.119C732.261 250.812 731.763 250.812 731.456 251.119C731.149 251.426 731.149 251.924 731.456 252.231C731.763 252.538 732.261 252.538 732.568 252.231Z" fill="white"/>
<path d="M524.027 -2.64798C524.321 -2.94228 524.321 -3.41945 524.027 -3.71375C523.732 -4.00805 523.255 -4.00804 522.961 -3.71374C522.667 -3.41944 522.667 -2.94228 522.961 -2.64798C523.255 -2.35367 523.732 -2.35368 524.027 -2.64798Z" fill="white"/>
<path d="M547.277 20.6018C547.616 20.2627 547.616 19.7129 547.277 19.3739C546.937 19.0348 546.388 19.0348 546.049 19.3739C545.71 19.7129 545.71 20.2627 546.049 20.6018C546.388 20.9409 546.937 20.9409 547.277 20.6018Z" fill="white"/>
<path d="M570.515 43.84C570.892 43.4625 570.892 42.8505 570.515 42.4731C570.137 42.0956 569.525 42.0956 569.148 42.473C568.77 42.8505 568.77 43.4625 569.148 43.84C569.525 44.2175 570.137 44.2175 570.515 43.84Z" fill="white"/>
<path d="M593.765 67.0898C594.187 66.6675 594.187 65.9829 593.765 65.5606C593.342 65.1384 592.658 65.1384 592.235 65.5606C591.813 65.9829 591.813 66.6675 592.235 67.0898C592.658 67.5121 593.342 67.5121 593.765 67.0898Z" fill="white"/>
<path d="M617.003 90.328C617.463 89.8673 617.463 89.1205 617.003 88.6598C616.542 88.1992 615.795 88.1992 615.335 88.6598C614.874 89.1205 614.874 89.8673 615.335 90.328C615.795 90.7886 616.542 90.7886 617.003 90.328Z" fill="white"/>
<path d="M640.241 113.566C640.74 113.067 640.74 112.258 640.241 111.759C639.742 111.26 638.933 111.26 638.434 111.759C637.935 112.258 637.935 113.067 638.434 113.566C638.933 114.065 639.742 114.065 640.241 113.566Z" fill="white"/>
<path d="M663.34 136.665C663.801 136.205 663.801 135.458 663.34 134.997C662.88 134.537 662.133 134.537 661.672 134.997C661.211 135.458 661.211 136.205 661.672 136.665C662.133 137.126 662.88 137.126 663.34 136.665Z" fill="white"/>
<path d="M686.439 159.765C686.862 159.342 686.862 158.658 686.439 158.235C686.017 157.813 685.332 157.813 684.91 158.235C684.488 158.658 684.488 159.342 684.91 159.765C685.332 160.187 686.017 160.187 686.439 159.765Z" fill="white"/>
<path d="M709.527 182.852C709.904 182.475 709.904 181.863 709.527 181.485C709.149 181.108 708.537 181.108 708.16 181.485C707.783 181.863 707.783 182.475 708.16 182.852C708.537 183.23 709.149 183.23 709.527 182.852Z" fill="white"/>
<path d="M732.626 205.951C732.965 205.612 732.965 205.062 732.626 204.723C732.287 204.384 731.737 204.384 731.398 204.723C731.059 205.062 731.059 205.612 731.398 205.951C731.737 206.29 732.287 206.29 732.626 205.951Z" fill="white"/>
<path d="M755.714 229.039C756.008 228.745 756.008 228.267 755.714 227.973C755.419 227.679 754.942 227.679 754.648 227.973C754.354 228.267 754.354 228.745 754.648 229.039C754.942 229.333 755.419 229.333 755.714 229.039Z" fill="white"/>
<path d="M570.411 -2.60165C570.73 -2.92154 570.73 -3.44019 570.411 -3.76008C570.091 -4.07997 569.572 -4.07997 569.252 -3.76008C568.932 -3.44019 568.932 -2.92154 569.252 -2.60165C569.572 -2.28175 570.091 -2.28175 570.411 -2.60165Z" fill="white"/>
<path d="M593.626 20.6134C593.971 20.2679 593.971 19.7078 593.626 19.3623C593.28 19.0168 592.72 19.0168 592.374 19.3623C592.029 19.7078 592.029 20.2679 592.374 20.6134C592.72 20.9589 593.28 20.9589 593.626 20.6134Z" fill="white"/>
<path d="M616.852 43.84C617.23 43.4625 617.23 42.8505 616.852 42.4731C616.475 42.0956 615.863 42.0956 615.485 42.4731C615.108 42.8505 615.108 43.4625 615.485 43.84C615.863 44.2175 616.475 44.2175 616.852 43.84Z" fill="white"/>
<path d="M640.079 67.0666C640.488 66.6572 640.488 65.9933 640.079 65.5838C639.669 65.1744 639.005 65.1744 638.596 65.5838C638.187 65.9933 638.187 66.6572 638.596 67.0666C639.005 67.4761 639.669 67.4761 640.079 67.0666Z" fill="white"/>
<path d="M663.305 90.2932C663.747 89.8518 663.747 89.136 663.305 88.6946C662.864 88.2531 662.148 88.2531 661.707 88.6946C661.265 89.136 661.265 89.8518 661.707 90.2932C662.148 90.7347 662.864 90.7347 663.305 90.2932Z" fill="white"/>
<path d="M686.416 113.404C686.826 112.995 686.826 112.331 686.416 111.921C686.007 111.512 685.343 111.512 684.933 111.921C684.524 112.331 684.524 112.995 684.933 113.404C685.343 113.813 686.007 113.813 686.416 113.404Z" fill="white"/>
<path d="M709.527 136.515C709.904 136.137 709.904 135.525 709.527 135.148C709.149 134.77 708.537 134.77 708.16 135.148C707.783 135.525 707.783 136.137 708.16 136.515C708.537 136.892 709.149 136.892 709.527 136.515Z" fill="white"/>
<path d="M732.638 159.626C732.983 159.28 732.983 158.72 732.638 158.374C732.292 158.029 731.732 158.029 731.387 158.374C731.041 158.72 731.041 159.28 731.387 159.626C731.732 159.971 732.292 159.971 732.638 159.626Z" fill="white"/>
<path d="M755.76 182.748C756.08 182.428 756.08 181.909 755.76 181.589C755.44 181.27 754.922 181.27 754.602 181.589C754.282 181.909 754.282 182.428 754.602 182.748C754.922 183.068 755.44 183.068 755.76 182.748Z" fill="white"/>
<path d="M616.748 -2.60165C617.068 -2.92154 617.068 -3.44019 616.748 -3.76008C616.428 -4.07997 615.909 -4.07997 615.589 -3.76008C615.27 -3.44019 615.27 -2.92154 615.589 -2.60165C615.909 -2.28175 616.428 -2.28175 616.748 -2.60165Z" fill="white"/>
<path d="M639.951 20.6018C640.29 20.2627 640.29 19.7129 639.951 19.3739C639.612 19.0348 639.062 19.0348 638.723 19.3739C638.384 19.7129 638.384 20.2627 638.723 20.6018C639.062 20.9409 639.612 20.9409 639.951 20.6018Z" fill="white"/>
<path d="M663.155 43.8052C663.513 43.447 663.513 42.8661 663.155 42.5078C662.797 42.1495 662.216 42.1495 661.857 42.5078C661.499 42.8661 661.499 43.447 661.857 43.8052C662.216 44.1635 662.797 44.1635 663.155 43.8052Z" fill="white"/>
<path d="M686.358 67.0087C686.736 66.6312 686.736 66.0192 686.358 65.6417C685.981 65.2643 685.369 65.2643 684.991 65.6417C684.614 66.0192 684.614 66.6312 684.991 67.0087C685.369 67.3862 685.981 67.3862 686.358 67.0087Z" fill="white"/>
<path d="M709.492 90.1426C709.85 89.7844 709.85 89.2035 709.492 88.8452C709.134 88.4869 708.553 88.4869 708.195 88.8452C707.836 89.2035 707.836 89.7844 708.195 90.1426C708.553 90.5009 709.134 90.5009 709.492 90.1426Z" fill="white"/>
<path d="M732.626 113.277C732.965 112.937 732.965 112.388 732.626 112.049C732.287 111.71 731.737 111.71 731.398 112.049C731.059 112.388 731.059 112.937 731.398 113.277C731.737 113.616 732.287 113.616 732.626 113.277Z" fill="white"/>
<path d="M755.76 136.411C756.08 136.091 756.08 135.572 755.76 135.252C755.44 134.932 754.922 134.932 754.602 135.252C754.282 135.572 754.282 136.091 754.602 136.411C754.922 136.73 755.44 136.73 755.76 136.411Z" fill="white"/>
<path d="M663.039 -2.64798C663.333 -2.94229 663.333 -3.41945 663.039 -3.71375C662.745 -4.00805 662.268 -4.00804 661.973 -3.71374C661.679 -3.41944 661.679 -2.94228 661.973 -2.64798C662.267 -2.35367 662.745 -2.35368 663.039 -2.64798Z" fill="white"/>
<path d="M686.231 20.5439C686.538 20.2368 686.538 19.7389 686.231 19.4318C685.924 19.1247 685.426 19.1247 685.119 19.4318C684.812 19.7389 684.812 20.2368 685.119 20.5439C685.426 20.851 685.924 20.851 686.231 20.5439Z" fill="white"/>
<path d="M709.423 43.7357C709.743 43.4159 709.743 42.8972 709.423 42.5773C709.103 42.2574 708.584 42.2574 708.264 42.5773C707.944 42.8972 707.944 43.4159 708.264 43.7357C708.584 44.0556 709.103 44.0556 709.423 43.7357Z" fill="white"/>
<path d="M732.568 66.8813C732.875 66.5742 732.875 66.0763 732.568 65.7692C732.261 65.4621 731.763 65.4621 731.456 65.7692C731.149 66.0763 731.149 66.5742 731.456 66.8813C731.763 67.1884 732.261 67.1884 732.568 66.8813Z" fill="white"/>
<path d="M755.714 90.0268C756.008 89.7325 756.008 89.2553 755.714 88.961C755.419 88.6667 754.942 88.6667 754.648 88.961C754.354 89.2553 754.354 89.7325 754.648 90.0268C754.942 90.3211 755.419 90.3211 755.714 90.0268Z" fill="white"/>
</g>
</g>
<defs>
<filter id="filter0_d_1_512" x="0" y="0" width="561" height="406" filterUnits="userSpaceOnUse" color-interpolation-filters="sRGB">
<feFlood flood-opacity="0" result="BackgroundImageFix"/>
<feColorMatrix in="SourceAlpha" type="matrix" values="0 0 0 0 0 0 0 0 0 0 0 0 0 0 0 0 0 0 127 0" result="hardAlpha"/>
<feOffset dy="4"/>
<feGaussianBlur stdDeviation="2"/>
<feComposite in2="hardAlpha" operator="out"/>
<feColorMatrix type="matrix" values="0 0 0 0 0 0 0 0 0 0 0 0 0 0 0 0 0 0 0.25 0"/>
<feBlend mode="normal" in2="BackgroundImageFix" result="effect1_dropShadow_1_512"/>
<feBlend mode="normal" in="SourceGraphic" in2="effect1_dropShadow_1_512" result="shape"/>
</filter>
<filter id="filter1_f_1_512" x="-344" y="-167" width="638" height="638" filterUnits="userSpaceOnUse" color-interpolation-filters="sRGB">
<feFlood flood-opacity="0" result="BackgroundImageFix"/>
<feBlend mode="normal" in="SourceGraphic" in2="BackgroundImageFix" result="shape"/>
<feGaussianBlur stdDeviation="100" result="effect1_foregroundBlur_1_512"/>
</filter>
<filter id="filter2_d_1_512" x="361.189" y="-44.2173" width="279.538" height="275.032" filterUnits="userSpaceOnUse" color-interpolation-filters="sRGB">
<feFlood flood-opacity="0" result="BackgroundImageFix"/>
<feColorMatrix in="SourceAlpha" type="matrix" values="0 0 0 0 0 0 0 0 0 0 0 0 0 0 0 0 0 0 127 0" result="hardAlpha"/>
<feOffset dy="20"/>
<feGaussianBlur stdDeviation="20.5"/>
<feComposite in2="hardAlpha" operator="out"/>
<feColorMatrix type="matrix" values="0 0 0 0 0 0 0 0 0 0 0 0 0 0 0 0 0 0 0.16 0"/>
<feBlend mode="normal" in2="BackgroundImageFix" result="effect1_dropShadow_1_512"/>
<feBlend mode="normal" in="SourceGraphic" in2="effect1_dropShadow_1_512" result="shape"/>
</filter>
<filter id="filter3_d_1_512" x="235.409" y="53.569" width="170.212" height="168.021" filterUnits="userSpaceOnUse" color-interpolation-filters="sRGB">
<feFlood flood-opacity="0" result="BackgroundImageFix"/>
<feColorMatrix in="SourceAlpha" type="matrix" values="0 0 0 0 0 0 0 0 0 0 0 0 0 0 0 0 0 0 127 0" result="hardAlpha"/>
<feOffset dy="20"/>
<feGaussianBlur stdDeviation="20.5"/>
<feComposite in2="hardAlpha" operator="out"/>
<feColorMatrix type="matrix" values="0 0 0 0 0 0 0 0 0 0 0 0 0 0 0 0 0 0 0.16 0"/>
<feBlend mode="normal" in2="BackgroundImageFix" result="effect1_dropShadow_1_512"/>
<feBlend mode="normal" in="SourceGraphic" in2="effect1_dropShadow_1_512" result="shape"/>
</filter>
<filter id="filter4_d_1_512" x="445.19" y="272.202" width="196.418" height="181.208" filterUnits="userSpaceOnUse" color-interpolation-filters="sRGB">
<feFlood flood-opacity="0" result="BackgroundImageFix"/>
<feColorMatrix in="SourceAlpha" type="matrix" values="0 0 0 0 0 0 0 0 0 0 0 0 0 0 0 0 0 0 127 0" result="hardAlpha"/>
<feOffset dy="20"/>
<feGaussianBlur stdDeviation="20.5"/>
<feComposite in2="hardAlpha" operator="out"/>
<feColorMatrix type="matrix" values="0 0 0 0 0 0 0 0 0 0 0 0 0 0 0 0 0 0 0.16 0"/>
<feBlend mode="normal" in2="BackgroundImageFix" result="effect1_dropShadow_1_512"/>
<feBlend mode="normal" in="SourceGraphic" in2="effect1_dropShadow_1_512" result="shape"/>
</filter>
<linearGradient id="paint0_linear_1_512" x1="280.5" y1="0" x2="280.5" y2="407" gradientUnits="userSpaceOnUse">
<stop stop-color="#03A65B"/>
<stop offset="1" stop-color="#35EF99"/>
</linearGradient>
<linearGradient id="paint1_linear_1_512" x1="195.267" y1="347.413" x2="675.248" y2="282.647" gradientUnits="userSpaceOnUse">
<stop stop-color="#0DCA74"/>
<stop offset="1" stop-color="#10C170"/>
</linearGradient>
</defs>
</svg>
