<svg width="438" height="729" viewBox="0 0 438 729" fill="none" xmlns="http://www.w3.org/2000/svg">
<mask id="mask0_1_611" style="mask-type:alpha" maskUnits="userSpaceOnUse" x="0" y="0" width="438" height="729">
<rect width="438" height="729" rx="30" fill="url(#paint0_linear_1_611)"/>
</mask>
<g mask="url(#mask0_1_611)">
<g filter="url(#filter0_f_1_611)">
<circle cx="344" cy="568" r="163" fill="#FFB800" fill-opacity="0.56"/>
</g>
<path fill-rule="evenodd" clip-rule="evenodd" d="M332.931 334.197C390.209 345.386 406.802 413.526 441.552 460.498C473.541 503.737 533.657 537.992 522.679 590.678C511.636 643.675 445.826 657.526 396.089 678.686C350.793 697.956 303.531 721.861 257.938 703.309C209.517 683.607 183.813 634.766 166.624 585.317C145.738 525.231 118.901 457.347 154.012 404.33C191.264 348.079 266.798 321.278 332.931 334.197Z" fill="url(#paint1_linear_1_611)"/>
<g filter="url(#filter1_d_1_611)">
<path fill-rule="evenodd" clip-rule="evenodd" d="M425.379 358.346C442.152 387.421 463.189 422.339 446.798 451.631C430.59 480.598 389.408 474.743 356.794 480.916C324.63 487.003 286.139 510.046 263.606 486.3C241.199 462.685 270.141 426.377 274.422 394.105C277.751 369.009 267.193 340.431 285.304 322.742C305.295 303.215 336.364 300.266 363.448 307.15C390.759 314.092 411.297 333.938 425.379 358.346Z" fill="#05C66E"/>
</g>
<g filter="url(#filter2_d_1_611)">
<path fill-rule="evenodd" clip-rule="evenodd" d="M129.413 443.412C129.399 428.964 129.05 411.421 141.454 404.013C153.721 396.688 167.826 407.716 181.318 412.417C194.623 417.053 213.93 416.723 217.236 430.419C220.524 444.04 201.931 451.37 193.404 462.489C186.773 471.136 184.575 484.063 174.02 486.773C162.369 489.764 150.146 484.193 141.521 475.809C132.824 467.354 129.424 455.541 129.413 443.412Z" fill="#05C66E"/>
</g>
<g filter="url(#filter3_d_1_611)">
<path fill-rule="evenodd" clip-rule="evenodd" d="M353.717 703.866C344.572 692.571 333.076 679.126 343.032 663.261C352.878 647.572 376.489 644.752 395.379 637.48C414.009 630.307 436.581 614.377 449.137 622.412C461.623 630.402 444.314 651.229 441.279 666.852C438.918 679.001 444.492 690.901 433.75 701.589C421.893 713.387 403.95 718.948 388.475 719.388C372.871 719.832 361.395 713.348 353.717 703.866Z" fill="#07D175"/>
</g>
<path d="M295.352 61.0389C295.646 60.7446 295.646 60.2675 295.352 59.9732C295.058 59.6789 294.581 59.6789 294.286 59.9732C293.992 60.2675 293.992 60.7446 294.286 61.0389C294.581 61.3333 295.058 61.3333 295.352 61.0389Z" fill="white"/>
<path d="M318.544 84.2308C318.851 83.9237 318.851 83.4258 318.544 83.1187C318.237 82.8116 317.739 82.8116 317.432 83.1187C317.125 83.4258 317.125 83.9237 317.432 84.2308C317.739 84.5379 318.237 84.5379 318.544 84.2308Z" fill="white"/>
<path d="M341.736 107.423C342.056 107.103 342.056 106.584 341.736 106.264C341.416 105.944 340.897 105.944 340.577 106.264C340.257 106.584 340.257 107.103 340.577 107.423C340.897 107.743 341.416 107.743 341.736 107.423Z" fill="white"/>
<path d="M364.881 130.568C365.188 130.261 365.188 129.763 364.881 129.456C364.574 129.149 364.076 129.149 363.769 129.456C363.462 129.763 363.462 130.261 363.769 130.568C364.076 130.875 364.574 130.875 364.881 130.568Z" fill="white"/>
<path d="M388.027 153.714C388.321 153.419 388.321 152.942 388.027 152.648C387.732 152.354 387.255 152.354 386.961 152.648C386.667 152.942 386.667 153.419 386.961 153.714C387.255 154.008 387.732 154.008 388.027 153.714Z" fill="white"/>
<path d="M295.398 14.7479C295.718 14.428 295.718 13.9094 295.398 13.5895C295.078 13.2696 294.56 13.2696 294.24 13.5895C293.92 13.9094 293.92 14.428 294.24 14.7479C294.56 15.0678 295.078 15.0678 295.398 14.7479Z" fill="white"/>
<path d="M318.602 37.9513C318.941 37.6123 318.941 37.0625 318.602 36.7234C318.263 36.3843 317.713 36.3843 317.374 36.7234C317.035 37.0625 317.035 37.6123 317.374 37.9513C317.713 38.2904 318.263 38.2904 318.602 37.9513Z" fill="white"/>
<path d="M341.805 61.1548C342.164 60.7965 342.164 60.2156 341.805 59.8574C341.447 59.4991 340.866 59.4991 340.508 59.8574C340.15 60.2156 340.15 60.7965 340.508 61.1548C340.866 61.5131 341.447 61.5131 341.805 61.1548Z" fill="white"/>
<path d="M365.009 84.3582C365.386 83.9808 365.386 83.3688 365.009 82.9913C364.631 82.6138 364.019 82.6138 363.642 82.9913C363.264 83.3688 363.264 83.9808 363.642 84.3582C364.019 84.7357 364.631 84.7357 365.009 84.3582Z" fill="white"/>
<path d="M388.143 107.492C388.501 107.134 388.501 106.553 388.143 106.195C387.784 105.836 387.203 105.836 386.845 106.195C386.487 106.553 386.487 107.134 386.845 107.492C387.203 107.85 387.784 107.85 388.143 107.492Z" fill="white"/>
<path d="M411.277 130.626C411.616 130.287 411.616 129.737 411.277 129.398C410.937 129.059 410.388 129.059 410.049 129.398C409.71 129.737 409.71 130.287 410.049 130.626C410.388 130.965 410.937 130.965 411.277 130.626Z" fill="white"/>
<path d="M434.411 153.76C434.73 153.44 434.73 152.922 434.411 152.602C434.091 152.282 433.572 152.282 433.252 152.602C432.932 152.922 432.932 153.44 433.252 153.76C433.572 154.08 434.091 154.08 434.411 153.76Z" fill="white"/>
<path d="M295.398 -31.5895C295.718 -31.9094 295.718 -32.428 295.398 -32.7479C295.078 -33.0678 294.56 -33.0678 294.24 -32.7479C293.92 -32.428 293.92 -31.9094 294.24 -31.5895C294.56 -31.2696 295.078 -31.2696 295.398 -31.5895Z" fill="white"/>
<path d="M318.613 -8.37445C318.959 -8.71994 318.959 -9.28008 318.613 -9.62555C318.268 -9.97104 317.708 -9.97104 317.362 -9.62555C317.017 -9.28008 317.017 -8.71994 317.362 -8.37445C317.708 -8.02896 318.268 -8.02896 318.613 -8.37445Z" fill="white"/>
<path d="M341.84 14.8522C342.217 14.4747 342.217 13.8627 341.84 13.4852C341.463 13.1077 340.851 13.1077 340.473 13.4852C340.096 13.8627 340.096 14.4747 340.473 14.8522C340.851 15.2296 341.463 15.2296 341.84 14.8522Z" fill="white"/>
<path d="M365.067 38.0788C365.476 37.6693 365.476 37.0054 365.067 36.596C364.657 36.1865 363.993 36.1865 363.584 36.596C363.174 37.0054 363.174 37.6693 363.584 38.0788C363.993 38.4883 364.657 38.4883 365.067 38.0788Z" fill="white"/>
<path d="M388.293 61.3054C388.735 60.864 388.735 60.1482 388.293 59.7067C387.852 59.2653 387.136 59.2653 386.695 59.7067C386.253 60.1482 386.253 60.864 386.695 61.3054C387.136 61.7469 387.852 61.7469 388.293 61.3054Z" fill="white"/>
<path d="M411.404 84.4162C411.813 84.0067 411.813 83.3428 411.404 82.9334C410.995 82.5239 410.331 82.5239 409.921 82.9334C409.512 83.3428 409.512 84.0067 409.921 84.4162C410.331 84.8256 410.995 84.8256 411.404 84.4162Z" fill="white"/>
<path d="M434.515 107.527C434.892 107.149 434.892 106.537 434.515 106.16C434.137 105.783 433.525 105.783 433.148 106.16C432.77 106.537 432.77 107.149 433.148 107.527C433.525 107.904 434.137 107.904 434.515 107.527Z" fill="white"/>
<path d="M457.626 130.638C457.971 130.292 457.971 129.732 457.626 129.387C457.28 129.041 456.72 129.041 456.374 129.387C456.029 129.732 456.029 130.292 456.374 130.638C456.72 130.983 457.28 130.983 457.626 130.638Z" fill="white"/>
<path d="M480.748 153.76C481.068 153.44 481.068 152.922 480.748 152.602C480.428 152.282 479.909 152.282 479.589 152.602C479.27 152.922 479.27 153.44 479.589 153.76C479.909 154.08 480.428 154.08 480.748 153.76Z" fill="white"/>
<path d="M295.352 -77.9732C295.646 -78.2675 295.646 -78.7447 295.352 -79.039C295.058 -79.3333 294.581 -79.3333 294.286 -79.039C293.992 -78.7447 293.992 -78.2675 294.286 -77.9732C294.581 -77.6789 295.058 -77.6789 295.352 -77.9732Z" fill="white"/>
<path d="M318.602 -54.7234C318.941 -55.0625 318.941 -55.6123 318.602 -55.9514C318.263 -56.2905 317.713 -56.2905 317.374 -55.9514C317.035 -55.6123 317.035 -55.0625 317.374 -54.7234C317.713 -54.3843 318.263 -54.3843 318.602 -54.7234Z" fill="white"/>
<path d="M341.84 -31.4852C342.217 -31.8627 342.217 -32.4747 341.84 -32.8522C341.463 -33.2296 340.851 -33.2297 340.473 -32.8522C340.096 -32.4747 340.096 -31.8627 340.473 -31.4852C340.851 -31.1077 341.463 -31.1077 341.84 -31.4852Z" fill="white"/>
<path d="M365.09 -8.23544C365.512 -8.6577 365.512 -9.34233 365.09 -9.76459C364.668 -10.1868 363.983 -10.1868 363.561 -9.76459C363.138 -9.34233 363.138 -8.6577 363.561 -8.23544C363.983 -7.81317 364.668 -7.81317 365.09 -8.23544Z" fill="white"/>
<path d="M388.328 15.0028C388.789 14.5421 388.789 13.7953 388.328 13.3346C387.867 12.874 387.12 12.874 386.66 13.3346C386.199 13.7953 386.199 14.5421 386.66 15.0028C387.12 15.4634 387.867 15.4634 388.328 15.0028Z" fill="white"/>
<path d="M411.566 38.241C412.065 37.7419 412.065 36.9328 411.566 36.4338C411.067 35.9348 410.258 35.9348 409.759 36.4338C409.26 36.9328 409.26 37.7419 409.759 38.241C410.258 38.74 411.067 38.74 411.566 38.241Z" fill="white"/>
<path d="M434.665 61.3401C435.126 60.8795 435.126 60.1326 434.665 59.672C434.205 59.2113 433.458 59.2113 432.997 59.672C432.537 60.1326 432.537 60.8795 432.997 61.3401C433.458 61.8008 434.205 61.8008 434.665 61.3401Z" fill="white"/>
<path d="M457.765 84.4393C458.187 84.0171 458.187 83.3324 457.765 82.9102C457.342 82.4879 456.658 82.4879 456.235 82.9102C455.813 83.3324 455.813 84.0171 456.235 84.4393C456.658 84.8616 457.342 84.8616 457.765 84.4393Z" fill="white"/>
<path d="M480.852 107.527C481.23 107.149 481.23 106.537 480.852 106.16C480.475 105.783 479.863 105.783 479.485 106.16C479.108 106.537 479.108 107.149 479.485 107.527C479.863 107.904 480.475 107.904 480.852 107.527Z" fill="white"/>
<path d="M503.951 130.626C504.29 130.287 504.29 129.737 503.951 129.398C503.612 129.059 503.062 129.059 502.723 129.398C502.384 129.737 502.384 130.287 502.723 130.626C503.062 130.965 503.612 130.965 503.951 130.626Z" fill="white"/>
<path d="M527.039 153.714C527.333 153.419 527.333 152.942 527.039 152.648C526.745 152.354 526.267 152.354 525.973 152.648C525.679 152.942 525.679 153.419 525.973 153.714C526.268 154.008 526.745 154.008 527.039 153.714Z" fill="white"/>
<path d="M318.544 -101.119C318.851 -101.426 318.851 -101.924 318.544 -102.231C318.237 -102.538 317.739 -102.538 317.432 -102.231C317.125 -101.924 317.125 -101.426 317.432 -101.119C317.739 -100.812 318.237 -100.812 318.544 -101.119Z" fill="white"/>
<path d="M341.805 -77.8574C342.164 -78.2156 342.164 -78.7965 341.805 -79.1548C341.447 -79.5131 340.866 -79.5131 340.508 -79.1548C340.15 -78.7965 340.15 -78.2156 340.508 -77.8574C340.866 -77.4991 341.447 -77.4991 341.805 -77.8574Z" fill="white"/>
<path d="M365.067 -54.596C365.476 -55.0055 365.476 -55.6693 365.067 -56.0788C364.657 -56.4883 363.993 -56.4883 363.584 -56.0788C363.174 -55.6693 363.174 -55.0055 363.584 -54.596C363.993 -54.1865 364.657 -54.1865 365.067 -54.596Z" fill="white"/>
<path d="M388.328 -31.3346C388.789 -31.7953 388.789 -32.5421 388.328 -33.0028C387.867 -33.4634 387.12 -33.4634 386.66 -33.0028C386.199 -32.5421 386.199 -31.7953 386.66 -31.3346C387.12 -30.874 387.867 -30.874 388.328 -31.3346Z" fill="white"/>
<path d="M411.589 -8.07324C412.101 -8.58508 412.101 -9.41493 411.589 -9.92676C411.078 -10.4386 410.248 -10.4386 409.736 -9.92676C409.224 -9.41493 409.224 -8.58508 409.736 -8.07324C410.248 -7.56142 411.078 -7.56142 411.589 -8.07324Z" fill="white"/>
<path d="M434.851 15.1881C435.414 14.6251 435.414 13.7123 434.851 13.1493C434.288 12.5863 433.375 12.5863 432.812 13.1493C432.249 13.7123 432.249 14.6251 432.812 15.1881C433.375 15.7511 434.288 15.7511 434.851 15.1881Z" fill="white"/>
<path d="M457.927 38.2641C458.439 37.7523 458.439 36.9225 457.927 36.4106C457.415 35.8988 456.585 35.8988 456.073 36.4106C455.561 36.9225 455.561 37.7523 456.073 38.2641C456.585 38.776 457.415 38.776 457.927 38.2641Z" fill="white"/>
<path d="M481.003 61.3401C481.463 60.8795 481.463 60.1326 481.003 59.672C480.542 59.2113 479.795 59.2113 479.335 59.672C478.874 60.1326 478.874 60.8795 479.335 61.3401C479.795 61.8008 480.542 61.8008 481.003 61.3401Z" fill="white"/>
<path d="M504.079 84.4162C504.488 84.0067 504.488 83.3428 504.079 82.9334C503.669 82.5239 503.005 82.5239 502.596 82.9334C502.187 83.3428 502.187 84.0067 502.596 84.4162C503.005 84.8256 503.669 84.8256 504.079 84.4162Z" fill="white"/>
<path d="M527.155 107.492C527.513 107.134 527.513 106.553 527.155 106.195C526.797 105.836 526.216 105.836 525.857 106.195C525.499 106.553 525.499 107.134 525.857 107.492C526.216 107.85 526.797 107.85 527.155 107.492Z" fill="white"/>
<path d="M550.231 130.568C550.538 130.261 550.538 129.763 550.231 129.456C549.924 129.149 549.426 129.149 549.119 129.456C548.812 129.763 548.812 130.261 549.119 130.568C549.426 130.875 549.924 130.875 550.231 130.568Z" fill="white"/>
<path d="M341.736 -124.264C342.056 -124.584 342.056 -125.103 341.736 -125.423C341.416 -125.743 340.897 -125.743 340.577 -125.423C340.257 -125.103 340.257 -124.584 340.577 -124.264C340.897 -123.944 341.416 -123.944 341.736 -124.264Z" fill="white"/>
<path d="M365.009 -100.991C365.386 -101.369 365.386 -101.981 365.009 -102.358C364.631 -102.736 364.019 -102.736 363.642 -102.358C363.264 -101.981 363.264 -101.369 363.642 -100.991C364.019 -100.614 364.631 -100.614 365.009 -100.991Z" fill="white"/>
<path d="M388.293 -77.7068C388.735 -78.1482 388.735 -78.864 388.293 -79.3054C387.852 -79.7469 387.136 -79.7469 386.695 -79.3054C386.253 -78.864 386.253 -78.1482 386.695 -77.7068C387.136 -77.2653 387.852 -77.2653 388.293 -77.7068Z" fill="white"/>
<path d="M411.566 -54.4338C412.065 -54.9329 412.065 -55.7419 411.566 -56.241C411.067 -56.74 410.258 -56.74 409.759 -56.241C409.26 -55.7419 409.26 -54.9329 409.759 -54.4338C410.258 -53.9348 411.067 -53.9348 411.566 -54.4338Z" fill="white"/>
<path d="M434.851 -31.1493C435.414 -31.7123 435.414 -32.6251 434.851 -33.1881C434.288 -33.7511 433.375 -33.7511 432.812 -33.1881C432.249 -32.6251 432.249 -31.7123 432.812 -31.1493C433.375 -30.5863 434.288 -30.5863 434.851 -31.1493Z" fill="white"/>
<path d="M458.135 -7.86475C458.762 -8.49173 458.762 -9.50829 458.135 -10.1353C457.508 -10.7623 456.492 -10.7623 455.865 -10.1353C455.238 -9.50829 455.238 -8.49173 455.865 -7.86475C456.492 -7.23775 457.508 -7.23775 458.135 -7.86475Z" fill="white"/>
<path d="M481.188 15.1881C481.751 14.6251 481.751 13.7123 481.188 13.1493C480.625 12.5863 479.712 12.5862 479.149 13.1493C478.586 13.7123 478.586 14.6251 479.149 15.1881C479.712 15.7511 480.625 15.7511 481.188 15.1881Z" fill="white"/>
<path d="M504.241 38.241C504.74 37.7419 504.74 36.9328 504.241 36.4338C503.742 35.9348 502.933 35.9348 502.434 36.4338C501.935 36.9328 501.935 37.7419 502.434 38.241C502.933 38.74 503.742 38.74 504.241 38.241Z" fill="white"/>
<path d="M527.305 61.3054C527.747 60.864 527.747 60.1482 527.305 59.7067C526.864 59.2653 526.148 59.2653 525.707 59.7067C525.265 60.1482 525.265 60.864 525.707 61.3054C526.148 61.7469 526.864 61.7469 527.305 61.3054Z" fill="white"/>
<path d="M550.358 84.3582C550.736 83.9808 550.736 83.3688 550.358 82.9913C549.981 82.6138 549.369 82.6138 548.991 82.9913C548.614 83.3688 548.614 83.9808 548.991 84.3582C549.369 84.7357 549.981 84.7357 550.358 84.3582Z" fill="white"/>
<path d="M573.423 107.423C573.743 107.103 573.743 106.584 573.423 106.264C573.103 105.944 572.584 105.944 572.264 106.264C571.944 106.584 571.944 107.103 572.264 107.423C572.584 107.743 573.103 107.743 573.423 107.423Z" fill="white"/>
<path d="M364.881 -147.456C365.188 -147.763 365.188 -148.261 364.881 -148.568C364.574 -148.875 364.076 -148.875 363.769 -148.568C363.462 -148.261 363.462 -147.763 363.769 -147.456C364.076 -147.149 364.574 -147.149 364.881 -147.456Z" fill="white"/>
<path d="M388.143 -124.195C388.501 -124.553 388.501 -125.134 388.143 -125.492C387.784 -125.85 387.203 -125.85 386.845 -125.492C386.487 -125.134 386.487 -124.553 386.845 -124.195C387.203 -123.836 387.784 -123.836 388.143 -124.195Z" fill="white"/>
<path d="M411.404 -100.933C411.813 -101.343 411.813 -102.007 411.404 -102.416C410.995 -102.826 410.331 -102.826 409.921 -102.416C409.512 -102.007 409.512 -101.343 409.921 -100.933C410.331 -100.524 410.995 -100.524 411.404 -100.933Z" fill="white"/>
<path d="M434.665 -77.672C435.126 -78.1327 435.126 -78.8795 434.665 -79.3402C434.205 -79.8008 433.458 -79.8008 432.997 -79.3402C432.537 -78.8795 432.537 -78.1327 432.997 -77.672C433.458 -77.2114 434.205 -77.2114 434.665 -77.672Z" fill="white"/>
<path d="M457.927 -54.4106C458.439 -54.9225 458.439 -55.7523 457.927 -56.2641C457.415 -56.776 456.585 -56.776 456.073 -56.2641C455.561 -55.7523 455.561 -54.9225 456.073 -54.4106C456.585 -53.8988 457.415 -53.8988 457.927 -54.4106Z" fill="white"/>
<path d="M481.188 -31.1493C481.751 -31.7123 481.751 -32.6251 481.188 -33.1881C480.625 -33.7511 479.712 -33.7511 479.149 -33.1881C478.586 -32.6251 478.586 -31.7123 479.149 -31.1493C479.712 -30.5863 480.625 -30.5863 481.188 -31.1493Z" fill="white"/>
<path d="M504.264 -8.07324C504.776 -8.58508 504.776 -9.41493 504.264 -9.92676C503.752 -10.4386 502.922 -10.4386 502.411 -9.92676C501.899 -9.41493 501.899 -8.58508 502.411 -8.07324C502.922 -7.56142 503.752 -7.56142 504.264 -8.07324Z" fill="white"/>
<path d="M527.34 15.0028C527.801 14.5421 527.801 13.7953 527.34 13.3346C526.88 12.874 526.133 12.874 525.672 13.3346C525.211 13.7953 525.211 14.5421 525.672 15.0028C526.133 15.4634 526.88 15.4634 527.34 15.0028Z" fill="white"/>
<path d="M550.416 38.0788C550.826 37.6693 550.826 37.0054 550.416 36.596C550.007 36.1865 549.343 36.1865 548.933 36.596C548.524 37.0054 548.524 37.6693 548.933 38.0788C549.343 38.4883 550.007 38.4883 550.416 38.0788Z" fill="white"/>
<path d="M573.492 61.1548C573.85 60.7965 573.85 60.2156 573.492 59.8574C573.134 59.4991 572.553 59.4991 572.195 59.8574C571.836 60.2156 571.836 60.7965 572.195 61.1548C572.553 61.5131 573.134 61.5131 573.492 61.1548Z" fill="white"/>
<path d="M596.568 84.2308C596.875 83.9237 596.875 83.4258 596.568 83.1187C596.261 82.8116 595.763 82.8116 595.456 83.1187C595.149 83.4258 595.149 83.9237 595.456 84.2308C595.763 84.5379 596.261 84.5379 596.568 84.2308Z" fill="white"/>
<path d="M388.027 -170.648C388.321 -170.942 388.321 -171.419 388.027 -171.714C387.732 -172.008 387.255 -172.008 386.961 -171.714C386.667 -171.419 386.667 -170.942 386.961 -170.648C387.255 -170.354 387.732 -170.354 388.027 -170.648Z" fill="white"/>
<path d="M411.277 -147.398C411.616 -147.737 411.616 -148.287 411.277 -148.626C410.937 -148.965 410.388 -148.965 410.049 -148.626C409.71 -148.287 409.71 -147.737 410.049 -147.398C410.388 -147.059 410.937 -147.059 411.277 -147.398Z" fill="white"/>
<path d="M434.515 -124.16C434.892 -124.537 434.892 -125.149 434.515 -125.527C434.137 -125.904 433.525 -125.904 433.148 -125.527C432.77 -125.149 432.77 -124.537 433.148 -124.16C433.525 -123.783 434.137 -123.783 434.515 -124.16Z" fill="white"/>
<path d="M457.765 -100.91C458.187 -101.332 458.187 -102.017 457.765 -102.439C457.342 -102.862 456.658 -102.862 456.235 -102.439C455.813 -102.017 455.813 -101.332 456.235 -100.91C456.658 -100.488 457.342 -100.488 457.765 -100.91Z" fill="white"/>
<path d="M481.003 -77.672C481.463 -78.1327 481.463 -78.8795 481.003 -79.3402C480.542 -79.8008 479.795 -79.8008 479.335 -79.3402C478.874 -78.8795 478.874 -78.1327 479.335 -77.672C479.795 -77.2114 480.542 -77.2114 481.003 -77.672Z" fill="white"/>
<path d="M504.241 -54.4338C504.74 -54.9329 504.74 -55.7419 504.241 -56.241C503.742 -56.74 502.933 -56.74 502.434 -56.241C501.935 -55.7419 501.935 -54.9329 502.434 -54.4338C502.933 -53.9348 503.742 -53.9348 504.241 -54.4338Z" fill="white"/>
<path d="M527.34 -31.3346C527.801 -31.7953 527.801 -32.5421 527.34 -33.0028C526.88 -33.4634 526.133 -33.4634 525.672 -33.0028C525.211 -32.5421 525.211 -31.7953 525.672 -31.3346C526.133 -30.874 526.88 -30.874 527.34 -31.3346Z" fill="white"/>
<path d="M550.439 -8.23544C550.862 -8.6577 550.862 -9.34233 550.439 -9.76459C550.017 -10.1868 549.332 -10.1868 548.91 -9.76459C548.488 -9.34233 548.488 -8.6577 548.91 -8.23544C549.332 -7.81317 550.017 -7.81317 550.439 -8.23544Z" fill="white"/>
<path d="M573.527 14.8522C573.904 14.4747 573.904 13.8627 573.527 13.4852C573.149 13.1077 572.537 13.1077 572.16 13.4852C571.783 13.8627 571.783 14.4747 572.16 14.8522C572.537 15.2296 573.149 15.2296 573.527 14.8522Z" fill="white"/>
<path d="M596.626 37.9513C596.965 37.6123 596.965 37.0625 596.626 36.7234C596.287 36.3843 595.737 36.3843 595.398 36.7234C595.059 37.0625 595.059 37.6123 595.398 37.9513C595.737 38.2904 596.287 38.2904 596.626 37.9513Z" fill="white"/>
<path d="M619.714 61.039C620.008 60.7447 620.008 60.2675 619.714 59.9732C619.419 59.6789 618.942 59.6789 618.648 59.9732C618.354 60.2675 618.354 60.7447 618.648 61.039C618.942 61.3333 619.419 61.3333 619.714 61.039Z" fill="white"/>
<path d="M434.411 -170.602C434.73 -170.922 434.73 -171.44 434.411 -171.76C434.091 -172.08 433.572 -172.08 433.252 -171.76C432.932 -171.44 432.932 -170.922 433.252 -170.602C433.572 -170.282 434.091 -170.282 434.411 -170.602Z" fill="white"/>
<path d="M457.626 -147.387C457.971 -147.732 457.971 -148.292 457.626 -148.638C457.28 -148.983 456.72 -148.983 456.374 -148.638C456.029 -148.292 456.029 -147.732 456.374 -147.387C456.72 -147.041 457.28 -147.041 457.626 -147.387Z" fill="white"/>
<path d="M480.852 -124.16C481.23 -124.537 481.23 -125.149 480.852 -125.527C480.475 -125.904 479.863 -125.904 479.485 -125.527C479.108 -125.149 479.108 -124.537 479.485 -124.16C479.863 -123.783 480.475 -123.783 480.852 -124.16Z" fill="white"/>
<path d="M504.079 -100.933C504.488 -101.343 504.488 -102.007 504.079 -102.416C503.669 -102.826 503.005 -102.826 502.596 -102.416C502.187 -102.007 502.187 -101.343 502.596 -100.933C503.005 -100.524 503.669 -100.524 504.079 -100.933Z" fill="white"/>
<path d="M527.305 -77.7068C527.747 -78.1482 527.747 -78.864 527.305 -79.3054C526.864 -79.7469 526.148 -79.7469 525.707 -79.3054C525.265 -78.864 525.265 -78.1482 525.707 -77.7068C526.148 -77.2653 526.864 -77.2653 527.305 -77.7068Z" fill="white"/>
<path d="M550.416 -54.596C550.826 -55.0055 550.826 -55.6693 550.416 -56.0788C550.007 -56.4883 549.343 -56.4883 548.933 -56.0788C548.524 -55.6693 548.524 -55.0055 548.933 -54.596C549.343 -54.1865 550.007 -54.1865 550.416 -54.596Z" fill="white"/>
<path d="M573.527 -31.4852C573.904 -31.8627 573.904 -32.4747 573.527 -32.8522C573.149 -33.2296 572.537 -33.2296 572.16 -32.8522C571.783 -32.4747 571.783 -31.8627 572.16 -31.4852C572.537 -31.1077 573.149 -31.1077 573.527 -31.4852Z" fill="white"/>
<path d="M596.638 -8.37447C596.983 -8.71996 596.983 -9.28008 596.638 -9.62555C596.292 -9.97104 595.732 -9.97104 595.387 -9.62555C595.041 -9.28008 595.041 -8.71996 595.387 -8.37447C595.732 -8.02898 596.292 -8.02898 596.638 -8.37447Z" fill="white"/>
<path d="M619.76 14.7479C620.08 14.428 620.08 13.9094 619.76 13.5895C619.44 13.2696 618.922 13.2696 618.602 13.5895C618.282 13.9094 618.282 14.428 618.602 14.7479C618.922 15.0678 619.44 15.0678 619.76 14.7479Z" fill="white"/>
<path d="M480.748 -170.602C481.068 -170.922 481.068 -171.44 480.748 -171.76C480.428 -172.08 479.909 -172.08 479.589 -171.76C479.27 -171.44 479.27 -170.922 479.589 -170.602C479.909 -170.282 480.428 -170.282 480.748 -170.602Z" fill="white"/>
<path d="M503.951 -147.398C504.29 -147.737 504.29 -148.287 503.951 -148.626C503.612 -148.965 503.062 -148.965 502.723 -148.626C502.384 -148.287 502.384 -147.737 502.723 -147.398C503.062 -147.059 503.612 -147.059 503.951 -147.398Z" fill="white"/>
<path d="M527.155 -124.195C527.513 -124.553 527.513 -125.134 527.155 -125.492C526.797 -125.85 526.216 -125.85 525.857 -125.492C525.499 -125.134 525.499 -124.553 525.857 -124.195C526.216 -123.836 526.797 -123.836 527.155 -124.195Z" fill="white"/>
<path d="M550.358 -100.991C550.736 -101.369 550.736 -101.981 550.358 -102.358C549.981 -102.736 549.369 -102.736 548.991 -102.358C548.614 -101.981 548.614 -101.369 548.991 -100.991C549.369 -100.614 549.981 -100.614 550.358 -100.991Z" fill="white"/>
<path d="M573.492 -77.8574C573.85 -78.2156 573.85 -78.7965 573.492 -79.1548C573.134 -79.5131 572.553 -79.5131 572.195 -79.1548C571.836 -78.7965 571.836 -78.2156 572.195 -77.8574C572.553 -77.4991 573.134 -77.4991 573.492 -77.8574Z" fill="white"/>
<path d="M596.626 -54.7234C596.965 -55.0625 596.965 -55.6123 596.626 -55.9514C596.287 -56.2905 595.737 -56.2905 595.398 -55.9514C595.059 -55.6123 595.059 -55.0625 595.398 -54.7234C595.737 -54.3843 596.287 -54.3843 596.626 -54.7234Z" fill="white"/>
<path d="M619.76 -31.5895C620.08 -31.9094 620.08 -32.428 619.76 -32.7479C619.44 -33.0678 618.922 -33.0678 618.602 -32.7479C618.282 -32.428 618.282 -31.9094 618.602 -31.5895C618.922 -31.2696 619.44 -31.2696 619.76 -31.5895Z" fill="white"/>
<path d="M527.039 -170.648C527.333 -170.942 527.333 -171.419 527.039 -171.714C526.745 -172.008 526.268 -172.008 525.973 -171.714C525.679 -171.419 525.679 -170.942 525.973 -170.648C526.267 -170.354 526.745 -170.354 527.039 -170.648Z" fill="white"/>
<path d="M550.231 -147.456C550.538 -147.763 550.538 -148.261 550.231 -148.568C549.924 -148.875 549.426 -148.875 549.119 -148.568C548.812 -148.261 548.812 -147.763 549.119 -147.456C549.426 -147.149 549.924 -147.149 550.231 -147.456Z" fill="white"/>
<path d="M573.423 -124.264C573.743 -124.584 573.743 -125.103 573.423 -125.423C573.103 -125.743 572.584 -125.743 572.264 -125.423C571.944 -125.103 571.944 -124.584 572.264 -124.264C572.584 -123.944 573.103 -123.944 573.423 -124.264Z" fill="white"/>
<path d="M596.568 -101.119C596.875 -101.426 596.875 -101.924 596.568 -102.231C596.261 -102.538 595.763 -102.538 595.456 -102.231C595.149 -101.924 595.149 -101.426 595.456 -101.119C595.763 -100.812 596.261 -100.812 596.568 -101.119Z" fill="white"/>
<path d="M619.714 -77.9732C620.008 -78.2675 620.008 -78.7447 619.714 -79.039C619.419 -79.3333 618.942 -79.3333 618.648 -79.039C618.354 -78.7447 618.354 -78.2675 618.648 -77.9732C618.942 -77.6789 619.419 -77.6789 619.714 -77.9732Z" fill="white"/>
<g filter="url(#filter4_f_1_611)">
<circle cx="147" cy="2" r="119" fill="#FFB800" fill-opacity="0.45"/>
</g>
</g>
<defs>
<filter id="filter0_f_1_611" x="-19" y="205" width="726" height="726" filterUnits="userSpaceOnUse" color-interpolation-filters="sRGB">
<feFlood flood-opacity="0" result="BackgroundImageFix"/>
<feBlend mode="normal" in="SourceGraphic" in2="BackgroundImageFix" result="shape"/>
<feGaussianBlur stdDeviation="100" result="effect1_foregroundBlur_1_611"/>
</filter>
<filter id="filter1_d_1_611" x="214.189" y="282.783" width="279.538" height="275.032" filterUnits="userSpaceOnUse" color-interpolation-filters="sRGB">
<feFlood flood-opacity="0" result="BackgroundImageFix"/>
<feColorMatrix in="SourceAlpha" type="matrix" values="0 0 0 0 0 0 0 0 0 0 0 0 0 0 0 0 0 0 127 0" result="hardAlpha"/>
<feOffset dy="20"/>
<feGaussianBlur stdDeviation="20.5"/>
<feComposite in2="hardAlpha" operator="out"/>
<feColorMatrix type="matrix" values="0 0 0 0 0 0 0 0 0 0 0 0 0 0 0 0 0 0 0.16 0"/>
<feBlend mode="normal" in2="BackgroundImageFix" result="effect1_dropShadow_1_611"/>
<feBlend mode="normal" in="SourceGraphic" in2="effect1_dropShadow_1_611" result="shape"/>
</filter>
<filter id="filter2_d_1_611" x="88.4095" y="380.569" width="170.212" height="168.021" filterUnits="userSpaceOnUse" color-interpolation-filters="sRGB">
<feFlood flood-opacity="0" result="BackgroundImageFix"/>
<feColorMatrix in="SourceAlpha" type="matrix" values="0 0 0 0 0 0 0 0 0 0 0 0 0 0 0 0 0 0 127 0" result="hardAlpha"/>
<feOffset dy="20"/>
<feGaussianBlur stdDeviation="20.5"/>
<feComposite in2="hardAlpha" operator="out"/>
<feColorMatrix type="matrix" values="0 0 0 0 0 0 0 0 0 0 0 0 0 0 0 0 0 0 0.16 0"/>
<feBlend mode="normal" in2="BackgroundImageFix" result="effect1_dropShadow_1_611"/>
<feBlend mode="normal" in="SourceGraphic" in2="effect1_dropShadow_1_611" result="shape"/>
</filter>
<filter id="filter3_d_1_611" x="298.19" y="599.202" width="196.418" height="181.208" filterUnits="userSpaceOnUse" color-interpolation-filters="sRGB">
<feFlood flood-opacity="0" result="BackgroundImageFix"/>
<feColorMatrix in="SourceAlpha" type="matrix" values="0 0 0 0 0 0 0 0 0 0 0 0 0 0 0 0 0 0 127 0" result="hardAlpha"/>
<feOffset dy="20"/>
<feGaussianBlur stdDeviation="20.5"/>
<feComposite in2="hardAlpha" operator="out"/>
<feColorMatrix type="matrix" values="0 0 0 0 0 0 0 0 0 0 0 0 0 0 0 0 0 0 0.16 0"/>
<feBlend mode="normal" in2="BackgroundImageFix" result="effect1_dropShadow_1_611"/>
<feBlend mode="normal" in="SourceGraphic" in2="effect1_dropShadow_1_611" result="shape"/>
</filter>
<filter id="filter4_f_1_611" x="-172" y="-317" width="638" height="638" filterUnits="userSpaceOnUse" color-interpolation-filters="sRGB">
<feFlood flood-opacity="0" result="BackgroundImageFix"/>
<feBlend mode="normal" in="SourceGraphic" in2="BackgroundImageFix" result="shape"/>
<feGaussianBlur stdDeviation="100" result="effect1_foregroundBlur_1_611"/>
</filter>
<linearGradient id="paint0_linear_1_611" x1="219" y1="0" x2="219" y2="729" gradientUnits="userSpaceOnUse">
<stop stop-color="#03A65B"/>
<stop offset="1" stop-color="#35EF99"/>
</linearGradient>
<linearGradient id="paint1_linear_1_611" x1="51.2671" y1="659.413" x2="531.248" y2="594.647" gradientUnits="userSpaceOnUse">
<stop stop-color="#0DCA74"/>
<stop offset="1" stop-color="#10C170"/>
</linearGradient>
</defs>
</svg>
