<svg width="24" height="24" viewBox="0 0 24 24" fill="none" xmlns="http://www.w3.org/2000/svg">
<path d="M7.32055 0.55957C3.59215 0.55957 0.560547 3.59117 0.560547 7.31957V16.6796C0.560547 20.408 3.59215 23.4396 7.32055 23.4396H16.6805C20.4089 23.4396 23.4405 20.408 23.4405 16.6796V7.31957C23.4405 3.59117 20.4089 0.55957 16.6805 0.55957H7.32055ZM18.2405 4.71957C18.8125 4.71957 19.2805 5.18757 19.2805 5.75957C19.2805 6.33157 18.8125 6.79957 18.2405 6.79957C17.6685 6.79957 17.2005 6.33157 17.2005 5.75957C17.2005 5.18757 17.6685 4.71957 18.2405 4.71957ZM12.0005 6.27957C15.1569 6.27957 17.7205 8.84317 17.7205 11.9996C17.7205 15.156 15.1569 17.7196 12.0005 17.7196C8.84415 17.7196 6.28055 15.156 6.28055 11.9996C6.28055 8.84317 8.84415 6.27957 12.0005 6.27957ZM12.0005 7.31957C9.42135 7.31957 7.32055 9.42037 7.32055 11.9996C7.32055 14.5788 9.42135 16.6796 12.0005 16.6796C14.5797 16.6796 16.6805 14.5788 16.6805 11.9996C16.6805 9.42037 14.5797 7.31957 12.0005 7.31957Z" fill="#ED864C"/>
</svg>
