<svg width="553" height="368" viewBox="0 0 553 368" fill="none" xmlns="http://www.w3.org/2000/svg">
<rect width="553" height="368" rx="20" fill="url(#paint0_linear_1_148)"/>
<mask id="mask0_1_148" style="mask-type:alpha" maskUnits="userSpaceOnUse" x="0" y="0" width="553" height="368">
<rect width="553" height="368" rx="20" fill="url(#paint1_linear_1_148)"/>
</mask>
<g mask="url(#mask0_1_148)">
<path fill-rule="evenodd" clip-rule="evenodd" d="M160.931 -32.8032C218.209 -21.6145 234.802 46.5259 269.552 93.4979C301.541 136.737 361.657 170.992 350.679 223.678C339.636 276.675 273.826 290.526 224.089 311.686C178.793 330.956 131.531 354.861 85.9379 336.309C37.5175 316.607 11.8126 267.766 -5.37576 218.317C-26.2621 158.231 -53.0991 90.3471 -17.9881 37.3299C19.2643 -18.9206 94.7983 -45.7215 160.931 -32.8032Z" fill="url(#paint2_linear_1_148)"/>
<g filter="url(#filter0_d_1_148)">
<path fill-rule="evenodd" clip-rule="evenodd" d="M253.379 -8.65355C270.152 20.4214 291.189 55.3392 274.799 84.6315C258.59 113.598 217.408 107.743 184.794 113.916C152.63 120.003 114.139 143.046 91.6065 119.3C69.1988 95.6849 98.1409 59.3767 102.422 27.1052C105.751 2.00869 95.1929 -26.5689 113.304 -44.2583C133.295 -63.7846 164.364 -66.7339 191.448 -59.8497C218.759 -52.9077 239.298 -33.0625 253.379 -8.65355Z" fill="#05C66E"/>
</g>
<g filter="url(#filter1_d_1_148)">
<path fill-rule="evenodd" clip-rule="evenodd" d="M-42.5873 76.4113C-42.6007 61.9635 -42.9501 44.4204 -30.5455 37.0131C-18.2789 29.6882 -4.17398 40.7155 9.31765 45.4167C22.6232 50.053 41.9301 49.7224 45.2361 63.4192C48.5239 77.0402 29.9307 84.3694 21.4038 95.4885C14.7727 104.135 12.5745 117.063 2.01994 119.773C-9.63059 122.764 -21.8537 117.192 -30.4786 108.808C-39.1758 100.354 -42.5759 88.5405 -42.5873 76.4113Z" fill="#05C66E"/>
</g>
<g filter="url(#filter2_d_1_148)">
<path fill-rule="evenodd" clip-rule="evenodd" d="M181.717 336.866C172.572 325.571 161.076 312.126 171.032 296.261C180.878 280.572 204.489 277.752 223.379 270.48C242.009 263.307 264.581 247.377 277.137 255.412C289.623 263.402 272.314 284.229 269.279 299.852C266.918 312.001 272.492 323.901 261.75 334.589C249.893 346.387 231.95 351.948 216.475 352.388C200.871 352.832 189.395 346.348 181.717 336.866Z" fill="#07D175"/>
</g>
<path d="M35.352 108.039C35.6463 107.745 35.6463 107.268 35.352 106.973C35.0577 106.679 34.5806 106.679 34.2863 106.973C33.992 107.268 33.992 107.745 34.2863 108.039C34.5806 108.333 35.0577 108.333 35.352 108.039Z" fill="white"/>
<path d="M58.5439 131.231C58.851 130.924 58.851 130.426 58.5439 130.119C58.2368 129.812 57.7389 129.812 57.4318 130.119C57.1247 130.426 57.1247 130.924 57.4318 131.231C57.7389 131.538 58.2368 131.538 58.5439 131.231Z" fill="white"/>
<path d="M81.7357 154.423C82.0556 154.103 82.0556 153.584 81.7357 153.264C81.4159 152.944 80.8972 152.944 80.5773 153.264C80.2574 153.584 80.2574 154.103 80.5773 154.423C80.8972 154.743 81.4159 154.743 81.7357 154.423Z" fill="white"/>
<path d="M104.881 177.568C105.188 177.261 105.188 176.763 104.881 176.456C104.574 176.149 104.076 176.149 103.769 176.456C103.462 176.763 103.462 177.261 103.769 177.568C104.076 177.875 104.574 177.875 104.881 177.568Z" fill="white"/>
<path d="M128.027 200.714C128.321 200.419 128.321 199.942 128.027 199.648C127.732 199.354 127.255 199.354 126.961 199.648C126.667 199.942 126.667 200.419 126.961 200.714C127.255 201.008 127.732 201.008 128.027 200.714Z" fill="white"/>
<path d="M35.3984 61.7479C35.7182 61.428 35.7182 60.9094 35.3984 60.5895C35.0785 60.2696 34.5598 60.2696 34.2399 60.5895C33.92 60.9094 33.92 61.428 34.2399 61.7479C34.5598 62.0678 35.0785 62.0678 35.3984 61.7479Z" fill="white"/>
<path d="M58.6018 84.9513C58.9409 84.6123 58.9409 84.0625 58.6018 83.7234C58.2627 83.3843 57.7129 83.3843 57.3739 83.7234C57.0348 84.0625 57.0348 84.6123 57.3739 84.9513C57.7129 85.2904 58.2627 85.2904 58.6018 84.9513Z" fill="white"/>
<path d="M81.8052 108.155C82.1635 107.797 82.1635 107.216 81.8052 106.857C81.447 106.499 80.8661 106.499 80.5078 106.857C80.1495 107.216 80.1495 107.797 80.5078 108.155C80.8661 108.513 81.447 108.513 81.8052 108.155Z" fill="white"/>
<path d="M105.009 131.358C105.386 130.981 105.386 130.369 105.009 129.991C104.631 129.614 104.019 129.614 103.642 129.991C103.264 130.369 103.264 130.981 103.642 131.358C104.019 131.736 104.631 131.736 105.009 131.358Z" fill="white"/>
<path d="M128.143 154.492C128.501 154.134 128.501 153.553 128.143 153.195C127.784 152.836 127.203 152.836 126.845 153.195C126.487 153.553 126.487 154.134 126.845 154.492C127.203 154.85 127.784 154.85 128.143 154.492Z" fill="white"/>
<path d="M151.277 177.626C151.616 177.287 151.616 176.737 151.277 176.398C150.937 176.059 150.388 176.059 150.049 176.398C149.71 176.737 149.71 177.287 150.049 177.626C150.388 177.965 150.937 177.965 151.277 177.626Z" fill="white"/>
<path d="M174.411 200.76C174.73 200.44 174.73 199.922 174.411 199.602C174.091 199.282 173.572 199.282 173.252 199.602C172.932 199.922 172.932 200.44 173.252 200.76C173.572 201.08 174.091 201.08 174.411 200.76Z" fill="white"/>
<path d="M35.3984 15.4105C35.7182 15.0906 35.7182 14.572 35.3984 14.2521C35.0785 13.9322 34.5598 13.9322 34.2399 14.2521C33.92 14.572 33.92 15.0906 34.2399 15.4105C34.5598 15.7304 35.0785 15.7304 35.3984 15.4105Z" fill="white"/>
<path d="M58.6134 38.6255C58.9589 38.2801 58.9589 37.7199 58.6134 37.3745C58.2679 37.029 57.7078 37.029 57.3623 37.3745C57.0168 37.7199 57.0168 38.2801 57.3623 38.6255C57.7078 38.971 58.2679 38.971 58.6134 38.6255Z" fill="white"/>
<path d="M81.84 61.8522C82.2175 61.4747 82.2175 60.8627 81.84 60.4852C81.4625 60.1077 80.8505 60.1077 80.4731 60.4852C80.0956 60.8627 80.0956 61.4747 80.473 61.8522C80.8505 62.2296 81.4625 62.2296 81.84 61.8522Z" fill="white"/>
<path d="M105.067 85.0788C105.476 84.6693 105.476 84.0054 105.067 83.596C104.657 83.1865 103.993 83.1865 103.584 83.596C103.174 84.0054 103.174 84.6693 103.584 85.0788C103.993 85.4883 104.657 85.4883 105.067 85.0788Z" fill="white"/>
<path d="M128.293 108.305C128.735 107.864 128.735 107.148 128.293 106.707C127.852 106.265 127.136 106.265 126.695 106.707C126.253 107.148 126.253 107.864 126.695 108.305C127.136 108.747 127.852 108.747 128.293 108.305Z" fill="white"/>
<path d="M151.404 131.416C151.813 131.007 151.813 130.343 151.404 129.933C150.995 129.524 150.331 129.524 149.921 129.933C149.512 130.343 149.512 131.007 149.921 131.416C150.331 131.826 150.995 131.826 151.404 131.416Z" fill="white"/>
<path d="M174.515 154.527C174.892 154.149 174.892 153.537 174.515 153.16C174.137 152.783 173.525 152.783 173.148 153.16C172.77 153.537 172.77 154.149 173.148 154.527C173.525 154.904 174.137 154.904 174.515 154.527Z" fill="white"/>
<path d="M197.626 177.638C197.971 177.292 197.971 176.732 197.626 176.387C197.28 176.041 196.72 176.041 196.374 176.387C196.029 176.732 196.029 177.292 196.374 177.638C196.72 177.983 197.28 177.983 197.626 177.638Z" fill="white"/>
<path d="M220.748 200.76C221.068 200.44 221.068 199.922 220.748 199.602C220.428 199.282 219.909 199.282 219.589 199.602C219.27 199.922 219.27 200.44 219.589 200.76C219.909 201.08 220.428 201.08 220.748 200.76Z" fill="white"/>
<path d="M35.352 -30.9732C35.6463 -31.2675 35.6463 -31.7447 35.352 -32.039C35.0577 -32.3333 34.5806 -32.3333 34.2863 -32.039C33.992 -31.7447 33.992 -31.2675 34.2863 -30.9732C34.5806 -30.6789 35.0577 -30.6789 35.352 -30.9732Z" fill="white"/>
<path d="M58.6018 -7.72343C58.9409 -8.06251 58.9409 -8.61228 58.6018 -8.95136C58.2627 -9.29045 57.7129 -9.29045 57.3739 -8.95136C57.0348 -8.61228 57.0348 -8.06251 57.3739 -7.72343C57.7129 -7.38434 58.2627 -7.38434 58.6018 -7.72343Z" fill="white"/>
<path d="M81.84 15.5148C82.2175 15.1373 82.2175 14.5253 81.84 14.1478C81.4625 13.7704 80.8505 13.7703 80.473 14.1478C80.0956 14.5253 80.0956 15.1373 80.4731 15.5148C80.8505 15.8923 81.4625 15.8923 81.84 15.5148Z" fill="white"/>
<path d="M105.09 38.7646C105.512 38.3423 105.512 37.6577 105.09 37.2354C104.668 36.8132 103.983 36.8132 103.561 37.2354C103.138 37.6577 103.138 38.3423 103.561 38.7646C103.983 39.1868 104.668 39.1868 105.09 38.7646Z" fill="white"/>
<path d="M128.328 62.0028C128.789 61.5421 128.789 60.7953 128.328 60.3346C127.867 59.874 127.12 59.874 126.66 60.3346C126.199 60.7953 126.199 61.5421 126.66 62.0028C127.12 62.4634 127.867 62.4634 128.328 62.0028Z" fill="white"/>
<path d="M151.566 85.241C152.065 84.7419 152.065 83.9328 151.566 83.4338C151.067 82.9348 150.258 82.9348 149.759 83.4338C149.26 83.9328 149.26 84.7419 149.759 85.241C150.258 85.74 151.067 85.74 151.566 85.241Z" fill="white"/>
<path d="M174.665 108.34C175.126 107.88 175.126 107.133 174.665 106.672C174.205 106.211 173.458 106.211 172.997 106.672C172.537 107.133 172.537 107.88 172.997 108.34C173.458 108.801 174.205 108.801 174.665 108.34Z" fill="white"/>
<path d="M197.765 131.439C198.187 131.017 198.187 130.332 197.765 129.91C197.342 129.488 196.658 129.488 196.235 129.91C195.813 130.332 195.813 131.017 196.235 131.439C196.658 131.862 197.342 131.862 197.765 131.439Z" fill="white"/>
<path d="M220.852 154.527C221.23 154.149 221.23 153.537 220.852 153.16C220.475 152.783 219.863 152.783 219.485 153.16C219.108 153.537 219.108 154.149 219.485 154.527C219.863 154.904 220.475 154.904 220.852 154.527Z" fill="white"/>
<path d="M243.951 177.626C244.29 177.287 244.29 176.737 243.951 176.398C243.612 176.059 243.062 176.059 242.723 176.398C242.384 176.737 242.384 177.287 242.723 177.626C243.062 177.965 243.612 177.965 243.951 177.626Z" fill="white"/>
<path d="M267.039 200.714C267.333 200.419 267.333 199.942 267.039 199.648C266.745 199.354 266.267 199.354 265.973 199.648C265.679 199.942 265.679 200.419 265.973 200.714C266.268 201.008 266.745 201.008 267.039 200.714Z" fill="white"/>
<path d="M58.5439 -54.1187C58.851 -54.4258 58.851 -54.9237 58.5439 -55.2308C58.2368 -55.5379 57.7389 -55.5379 57.4318 -55.2308C57.1247 -54.9237 57.1247 -54.4258 57.4318 -54.1187C57.7389 -53.8116 58.2368 -53.8116 58.5439 -54.1187Z" fill="white"/>
<path d="M81.8052 -30.8574C82.1635 -31.2156 82.1635 -31.7965 81.8052 -32.1548C81.447 -32.5131 80.8661 -32.5131 80.5078 -32.1548C80.1495 -31.7965 80.1495 -31.2156 80.5078 -30.8574C80.8661 -30.4991 81.447 -30.4991 81.8052 -30.8574Z" fill="white"/>
<path d="M105.067 -7.59599C105.476 -8.00546 105.476 -8.66933 105.067 -9.0788C104.657 -9.48826 103.993 -9.48826 103.584 -9.0788C103.174 -8.66933 103.174 -8.00546 103.584 -7.59599C103.993 -7.18653 104.657 -7.18653 105.067 -7.59599Z" fill="white"/>
<path d="M128.328 15.6654C128.789 15.2047 128.789 14.4579 128.328 13.9972C127.867 13.5366 127.12 13.5366 126.66 13.9972C126.199 14.4579 126.199 15.2047 126.66 15.6654C127.12 16.126 127.867 16.126 128.328 15.6654Z" fill="white"/>
<path d="M151.589 38.9268C152.101 38.4149 152.101 37.5851 151.589 37.0732C151.078 36.5614 150.248 36.5614 149.736 37.0732C149.224 37.5851 149.224 38.4149 149.736 38.9268C150.248 39.4386 151.078 39.4386 151.589 38.9268Z" fill="white"/>
<path d="M174.851 62.1881C175.414 61.6251 175.414 60.7123 174.851 60.1493C174.288 59.5863 173.375 59.5863 172.812 60.1493C172.249 60.7123 172.249 61.6251 172.812 62.1881C173.375 62.7511 174.288 62.7511 174.851 62.1881Z" fill="white"/>
<path d="M197.927 85.2641C198.439 84.7523 198.439 83.9225 197.927 83.4106C197.415 82.8988 196.585 82.8988 196.073 83.4106C195.561 83.9225 195.561 84.7523 196.073 85.2641C196.585 85.776 197.415 85.776 197.927 85.2641Z" fill="white"/>
<path d="M221.003 108.34C221.463 107.88 221.463 107.133 221.003 106.672C220.542 106.211 219.795 106.211 219.335 106.672C218.874 107.133 218.874 107.88 219.335 108.34C219.795 108.801 220.542 108.801 221.003 108.34Z" fill="white"/>
<path d="M244.079 131.416C244.488 131.007 244.488 130.343 244.079 129.933C243.669 129.524 243.005 129.524 242.596 129.933C242.187 130.343 242.187 131.007 242.596 131.416C243.005 131.826 243.669 131.826 244.079 131.416Z" fill="white"/>
<path d="M267.155 154.492C267.513 154.134 267.513 153.553 267.155 153.195C266.797 152.836 266.216 152.836 265.857 153.195C265.499 153.553 265.499 154.134 265.857 154.492C266.216 154.85 266.797 154.85 267.155 154.492Z" fill="white"/>
<path d="M290.231 177.568C290.538 177.261 290.538 176.763 290.231 176.456C289.924 176.149 289.426 176.149 289.119 176.456C288.812 176.763 288.812 177.261 289.119 177.568C289.426 177.875 289.924 177.875 290.231 177.568Z" fill="white"/>
<path d="M81.7357 -77.2643C82.0556 -77.5841 82.0556 -78.1028 81.7357 -78.4227C81.4159 -78.7426 80.8972 -78.7426 80.5773 -78.4227C80.2574 -78.1028 80.2574 -77.5841 80.5773 -77.2643C80.8972 -76.9444 81.4159 -76.9444 81.7357 -77.2643Z" fill="white"/>
<path d="M105.009 -53.9913C105.386 -54.3688 105.386 -54.9808 105.009 -55.3583C104.631 -55.7357 104.019 -55.7357 103.642 -55.3583C103.264 -54.9808 103.264 -54.3688 103.642 -53.9913C104.019 -53.6138 104.631 -53.6138 105.009 -53.9913Z" fill="white"/>
<path d="M128.293 -30.7068C128.735 -31.1482 128.735 -31.864 128.293 -32.3054C127.852 -32.7469 127.136 -32.7469 126.695 -32.3054C126.253 -31.864 126.253 -31.1482 126.695 -30.7068C127.136 -30.2653 127.852 -30.2653 128.293 -30.7068Z" fill="white"/>
<path d="M151.566 -7.43382C152.065 -7.93285 152.065 -8.74194 151.566 -9.24097C151.067 -9.74001 150.258 -9.74 149.759 -9.24097C149.26 -8.74194 149.26 -7.93285 149.759 -7.43382C150.258 -6.93478 151.067 -6.93478 151.566 -7.43382Z" fill="white"/>
<path d="M174.851 15.8507C175.414 15.2877 175.414 14.3749 174.851 13.8119C174.288 13.2489 173.375 13.2489 172.812 13.8119C172.249 14.3749 172.249 15.2877 172.812 15.8507C173.375 16.4137 174.288 16.4137 174.851 15.8507Z" fill="white"/>
<path d="M198.135 39.1353C198.762 38.5083 198.762 37.4917 198.135 36.8647C197.508 36.2377 196.492 36.2377 195.865 36.8647C195.238 37.4917 195.238 38.5083 195.865 39.1353C196.492 39.7623 197.508 39.7623 198.135 39.1353Z" fill="white"/>
<path d="M221.188 62.1881C221.751 61.6251 221.751 60.7123 221.188 60.1493C220.625 59.5863 219.712 59.5862 219.149 60.1493C218.586 60.7123 218.586 61.6251 219.149 62.1881C219.712 62.7511 220.625 62.7511 221.188 62.1881Z" fill="white"/>
<path d="M244.241 85.241C244.74 84.7419 244.74 83.9328 244.241 83.4338C243.742 82.9348 242.933 82.9348 242.434 83.4338C241.935 83.9328 241.935 84.7419 242.434 85.241C242.933 85.74 243.742 85.74 244.241 85.241Z" fill="white"/>
<path d="M267.305 108.305C267.747 107.864 267.747 107.148 267.305 106.707C266.864 106.265 266.148 106.265 265.707 106.707C265.265 107.148 265.265 107.864 265.707 108.305C266.148 108.747 266.864 108.747 267.305 108.305Z" fill="white"/>
<path d="M290.358 131.358C290.736 130.981 290.736 130.369 290.358 129.991C289.981 129.614 289.369 129.614 288.991 129.991C288.614 130.369 288.614 130.981 288.991 131.358C289.369 131.736 289.981 131.736 290.358 131.358Z" fill="white"/>
<path d="M313.423 154.423C313.743 154.103 313.743 153.584 313.423 153.264C313.103 152.944 312.584 152.944 312.264 153.264C311.944 153.584 311.944 154.103 312.264 154.423C312.584 154.743 313.103 154.743 313.423 154.423Z" fill="white"/>
<path d="M104.881 -100.456C105.188 -100.763 105.188 -101.261 104.881 -101.568C104.574 -101.875 104.076 -101.875 103.769 -101.568C103.462 -101.261 103.462 -100.763 103.769 -100.456C104.076 -100.149 104.574 -100.149 104.881 -100.456Z" fill="white"/>
<path d="M128.143 -77.1948C128.501 -77.553 128.501 -78.1339 128.143 -78.4922C127.784 -78.8505 127.203 -78.8505 126.845 -78.4922C126.487 -78.1339 126.487 -77.553 126.845 -77.1948C127.203 -76.8365 127.784 -76.8365 128.143 -77.1948Z" fill="white"/>
<path d="M151.404 -53.9334C151.813 -54.3428 151.813 -55.0067 151.404 -55.4162C150.995 -55.8256 150.331 -55.8256 149.921 -55.4162C149.512 -55.0067 149.512 -54.3428 149.921 -53.9334C150.331 -53.5239 150.995 -53.5239 151.404 -53.9334Z" fill="white"/>
<path d="M174.665 -30.672C175.126 -31.1327 175.126 -31.8795 174.665 -32.3402C174.205 -32.8008 173.458 -32.8008 172.997 -32.3402C172.537 -31.8795 172.537 -31.1327 172.997 -30.672C173.458 -30.2114 174.205 -30.2114 174.665 -30.672Z" fill="white"/>
<path d="M197.927 -7.41064C198.439 -7.92248 198.439 -8.75231 197.927 -9.26414C197.415 -9.77597 196.585 -9.77597 196.073 -9.26414C195.561 -8.75231 195.561 -7.92248 196.073 -7.41064C196.585 -6.89882 197.415 -6.89882 197.927 -7.41064Z" fill="white"/>
<path d="M221.188 15.8507C221.751 15.2877 221.751 14.3749 221.188 13.8119C220.625 13.2489 219.712 13.2489 219.149 13.8119C218.586 14.3749 218.586 15.2877 219.149 15.8507C219.712 16.4137 220.625 16.4137 221.188 15.8507Z" fill="white"/>
<path d="M244.264 38.9268C244.776 38.4149 244.776 37.5851 244.264 37.0732C243.752 36.5614 242.922 36.5614 242.411 37.0732C241.899 37.5851 241.899 38.4149 242.411 38.9268C242.922 39.4386 243.752 39.4386 244.264 38.9268Z" fill="white"/>
<path d="M267.34 62.0028C267.801 61.5421 267.801 60.7953 267.34 60.3346C266.88 59.874 266.133 59.874 265.672 60.3346C265.211 60.7953 265.211 61.5421 265.672 62.0028C266.133 62.4634 266.88 62.4634 267.34 62.0028Z" fill="white"/>
<path d="M290.416 85.0788C290.826 84.6693 290.826 84.0054 290.416 83.596C290.007 83.1865 289.343 83.1865 288.933 83.596C288.524 84.0054 288.524 84.6693 288.933 85.0788C289.343 85.4883 290.007 85.4883 290.416 85.0788Z" fill="white"/>
<path d="M313.492 108.155C313.85 107.797 313.85 107.216 313.492 106.857C313.134 106.499 312.553 106.499 312.195 106.857C311.836 107.216 311.836 107.797 312.195 108.155C312.553 108.513 313.134 108.513 313.492 108.155Z" fill="white"/>
<path d="M336.568 131.231C336.875 130.924 336.875 130.426 336.568 130.119C336.261 129.812 335.763 129.812 335.456 130.119C335.149 130.426 335.149 130.924 335.456 131.231C335.763 131.538 336.261 131.538 336.568 131.231Z" fill="white"/>
<path d="M128.027 -123.648C128.321 -123.942 128.321 -124.419 128.027 -124.714C127.732 -125.008 127.255 -125.008 126.961 -124.714C126.667 -124.419 126.667 -123.942 126.961 -123.648C127.255 -123.354 127.732 -123.354 128.027 -123.648Z" fill="white"/>
<path d="M151.277 -100.398C151.616 -100.737 151.616 -101.287 151.277 -101.626C150.937 -101.965 150.388 -101.965 150.049 -101.626C149.71 -101.287 149.71 -100.737 150.049 -100.398C150.388 -100.059 150.937 -100.059 151.277 -100.398Z" fill="white"/>
<path d="M174.515 -77.16C174.892 -77.5375 174.892 -78.1495 174.515 -78.5269C174.137 -78.9044 173.525 -78.9044 173.148 -78.527C172.77 -78.1495 172.77 -77.5375 173.148 -77.16C173.525 -76.7825 174.137 -76.7825 174.515 -77.16Z" fill="white"/>
<path d="M197.765 -53.9102C198.187 -54.3325 198.187 -55.0171 197.765 -55.4394C197.342 -55.8616 196.658 -55.8616 196.235 -55.4394C195.813 -55.0171 195.813 -54.3325 196.235 -53.9102C196.658 -53.4879 197.342 -53.4879 197.765 -53.9102Z" fill="white"/>
<path d="M221.003 -30.672C221.463 -31.1327 221.463 -31.8795 221.003 -32.3402C220.542 -32.8008 219.795 -32.8008 219.335 -32.3402C218.874 -31.8795 218.874 -31.1327 219.335 -30.672C219.795 -30.2114 220.542 -30.2114 221.003 -30.672Z" fill="white"/>
<path d="M244.241 -7.43382C244.74 -7.93285 244.74 -8.74194 244.241 -9.24097C243.742 -9.74001 242.933 -9.74 242.434 -9.24097C241.935 -8.74194 241.935 -7.93285 242.434 -7.43382C242.933 -6.93478 243.742 -6.93478 244.241 -7.43382Z" fill="white"/>
<path d="M267.34 15.6654C267.801 15.2047 267.801 14.4579 267.34 13.9972C266.88 13.5366 266.133 13.5366 265.672 13.9972C265.211 14.4579 265.211 15.2047 265.672 15.6654C266.133 16.126 266.88 16.126 267.34 15.6654Z" fill="white"/>
<path d="M290.439 38.7646C290.862 38.3423 290.862 37.6577 290.439 37.2354C290.017 36.8132 289.332 36.8132 288.91 37.2354C288.488 37.6577 288.488 38.3423 288.91 38.7646C289.332 39.1868 290.017 39.1868 290.439 38.7646Z" fill="white"/>
<path d="M313.527 61.8522C313.904 61.4747 313.904 60.8627 313.527 60.4852C313.149 60.1077 312.537 60.1077 312.16 60.4852C311.783 60.8627 311.783 61.4747 312.16 61.8522C312.537 62.2296 313.149 62.2296 313.527 61.8522Z" fill="white"/>
<path d="M336.626 84.9513C336.965 84.6123 336.965 84.0625 336.626 83.7234C336.287 83.3843 335.737 83.3843 335.398 83.7234C335.059 84.0625 335.059 84.6123 335.398 84.9513C335.737 85.2904 336.287 85.2904 336.626 84.9513Z" fill="white"/>
<path d="M359.714 108.039C360.008 107.745 360.008 107.267 359.714 106.973C359.419 106.679 358.942 106.679 358.648 106.973C358.354 107.267 358.354 107.745 358.648 108.039C358.942 108.333 359.419 108.333 359.714 108.039Z" fill="white"/>
<path d="M174.411 -123.602C174.73 -123.922 174.73 -124.44 174.411 -124.76C174.091 -125.08 173.572 -125.08 173.252 -124.76C172.932 -124.44 172.932 -123.922 173.252 -123.602C173.572 -123.282 174.091 -123.282 174.411 -123.602Z" fill="white"/>
<path d="M197.626 -100.387C197.971 -100.732 197.971 -101.292 197.626 -101.638C197.28 -101.983 196.72 -101.983 196.374 -101.638C196.029 -101.292 196.029 -100.732 196.374 -100.387C196.72 -100.041 197.28 -100.041 197.626 -100.387Z" fill="white"/>
<path d="M220.852 -77.16C221.23 -77.5375 221.23 -78.1495 220.852 -78.5269C220.475 -78.9044 219.863 -78.9044 219.485 -78.5269C219.108 -78.1495 219.108 -77.5375 219.485 -77.16C219.863 -76.7825 220.475 -76.7825 220.852 -77.16Z" fill="white"/>
<path d="M244.079 -53.9334C244.488 -54.3428 244.488 -55.0067 244.079 -55.4162C243.669 -55.8256 243.005 -55.8256 242.596 -55.4162C242.187 -55.0067 242.187 -54.3428 242.596 -53.9334C243.005 -53.5239 243.669 -53.5239 244.079 -53.9334Z" fill="white"/>
<path d="M267.305 -30.7068C267.747 -31.1482 267.747 -31.864 267.305 -32.3054C266.864 -32.7469 266.148 -32.7469 265.707 -32.3054C265.265 -31.864 265.265 -31.1482 265.707 -30.7068C266.148 -30.2653 266.864 -30.2653 267.305 -30.7068Z" fill="white"/>
<path d="M290.416 -7.59599C290.826 -8.00546 290.826 -8.66933 290.416 -9.0788C290.007 -9.48826 289.343 -9.48826 288.933 -9.0788C288.524 -8.66933 288.524 -8.00546 288.933 -7.59599C289.343 -7.18653 290.007 -7.18653 290.416 -7.59599Z" fill="white"/>
<path d="M313.527 15.5148C313.904 15.1373 313.904 14.5253 313.527 14.1478C313.149 13.7704 312.537 13.7704 312.16 14.1478C311.783 14.5253 311.783 15.1373 312.16 15.5148C312.537 15.8923 313.149 15.8923 313.527 15.5148Z" fill="white"/>
<path d="M336.638 38.6255C336.983 38.28 336.983 37.7199 336.638 37.3745C336.292 37.029 335.732 37.029 335.387 37.3745C335.041 37.7199 335.041 38.28 335.387 38.6255C335.732 38.971 336.292 38.971 336.638 38.6255Z" fill="white"/>
<path d="M359.76 61.7479C360.08 61.428 360.08 60.9094 359.76 60.5895C359.44 60.2696 358.922 60.2696 358.602 60.5895C358.282 60.9094 358.282 61.428 358.602 61.7479C358.922 62.0678 359.44 62.0678 359.76 61.7479Z" fill="white"/>
<path d="M220.748 -123.602C221.068 -123.922 221.068 -124.44 220.748 -124.76C220.428 -125.08 219.909 -125.08 219.589 -124.76C219.27 -124.44 219.27 -123.922 219.589 -123.602C219.909 -123.282 220.428 -123.282 220.748 -123.602Z" fill="white"/>
<path d="M243.951 -100.398C244.29 -100.737 244.29 -101.287 243.951 -101.626C243.612 -101.965 243.062 -101.965 242.723 -101.626C242.384 -101.287 242.384 -100.737 242.723 -100.398C243.062 -100.059 243.612 -100.059 243.951 -100.398Z" fill="white"/>
<path d="M267.155 -77.1948C267.513 -77.553 267.513 -78.1339 267.155 -78.4922C266.797 -78.8505 266.216 -78.8505 265.857 -78.4922C265.499 -78.1339 265.499 -77.553 265.857 -77.1948C266.216 -76.8365 266.797 -76.8365 267.155 -77.1948Z" fill="white"/>
<path d="M290.358 -53.9913C290.736 -54.3688 290.736 -54.9808 290.358 -55.3583C289.981 -55.7357 289.369 -55.7357 288.991 -55.3583C288.614 -54.9808 288.614 -54.3688 288.991 -53.9913C289.369 -53.6138 289.981 -53.6138 290.358 -53.9913Z" fill="white"/>
<path d="M313.492 -30.8574C313.85 -31.2156 313.85 -31.7965 313.492 -32.1548C313.134 -32.5131 312.553 -32.5131 312.195 -32.1548C311.836 -31.7965 311.836 -31.2156 312.195 -30.8574C312.553 -30.4991 313.134 -30.4991 313.492 -30.8574Z" fill="white"/>
<path d="M336.626 -7.72343C336.965 -8.06251 336.965 -8.61228 336.626 -8.95136C336.287 -9.29045 335.737 -9.29045 335.398 -8.95136C335.059 -8.61228 335.059 -8.06251 335.398 -7.72343C335.737 -7.38434 336.287 -7.38434 336.626 -7.72343Z" fill="white"/>
<path d="M359.76 15.4105C360.08 15.0906 360.08 14.572 359.76 14.2521C359.44 13.9322 358.922 13.9322 358.602 14.2521C358.282 14.572 358.282 15.0906 358.602 15.4105C358.922 15.7304 359.44 15.7304 359.76 15.4105Z" fill="white"/>
<path d="M267.039 -123.648C267.333 -123.942 267.333 -124.419 267.039 -124.714C266.745 -125.008 266.268 -125.008 265.973 -124.714C265.679 -124.419 265.679 -123.942 265.973 -123.648C266.267 -123.354 266.745 -123.354 267.039 -123.648Z" fill="white"/>
<path d="M290.231 -100.456C290.538 -100.763 290.538 -101.261 290.231 -101.568C289.924 -101.875 289.426 -101.875 289.119 -101.568C288.812 -101.261 288.812 -100.763 289.119 -100.456C289.426 -100.149 289.924 -100.149 290.231 -100.456Z" fill="white"/>
<path d="M313.423 -77.2643C313.743 -77.5841 313.743 -78.1028 313.423 -78.4227C313.103 -78.7426 312.584 -78.7426 312.264 -78.4227C311.944 -78.1028 311.944 -77.5841 312.264 -77.2643C312.584 -76.9444 313.103 -76.9444 313.423 -77.2643Z" fill="white"/>
<path d="M336.568 -54.1187C336.875 -54.4258 336.875 -54.9237 336.568 -55.2308C336.261 -55.5379 335.763 -55.5379 335.456 -55.2308C335.149 -54.9237 335.149 -54.4258 335.456 -54.1187C335.763 -53.8116 336.261 -53.8116 336.568 -54.1187Z" fill="white"/>
<path d="M359.714 -30.9732C360.008 -31.2675 360.008 -31.7447 359.714 -32.039C359.419 -32.3333 358.942 -32.3333 358.648 -32.039C358.354 -31.7447 358.354 -31.2675 358.648 -30.9732C358.942 -30.6789 359.419 -30.6789 359.714 -30.9732Z" fill="white"/>
</g>
<defs>
<filter id="filter0_d_1_148" x="42.1891" y="-84.2173" width="279.538" height="275.032" filterUnits="userSpaceOnUse" color-interpolation-filters="sRGB">
<feFlood flood-opacity="0" result="BackgroundImageFix"/>
<feColorMatrix in="SourceAlpha" type="matrix" values="0 0 0 0 0 0 0 0 0 0 0 0 0 0 0 0 0 0 127 0" result="hardAlpha"/>
<feOffset dy="20"/>
<feGaussianBlur stdDeviation="20.5"/>
<feComposite in2="hardAlpha" operator="out"/>
<feColorMatrix type="matrix" values="0 0 0 0 0 0 0 0 0 0 0 0 0 0 0 0 0 0 0.16 0"/>
<feBlend mode="normal" in2="BackgroundImageFix" result="effect1_dropShadow_1_148"/>
<feBlend mode="normal" in="SourceGraphic" in2="effect1_dropShadow_1_148" result="shape"/>
</filter>
<filter id="filter1_d_1_148" x="-83.5906" y="13.5691" width="170.212" height="168.021" filterUnits="userSpaceOnUse" color-interpolation-filters="sRGB">
<feFlood flood-opacity="0" result="BackgroundImageFix"/>
<feColorMatrix in="SourceAlpha" type="matrix" values="0 0 0 0 0 0 0 0 0 0 0 0 0 0 0 0 0 0 127 0" result="hardAlpha"/>
<feOffset dy="20"/>
<feGaussianBlur stdDeviation="20.5"/>
<feComposite in2="hardAlpha" operator="out"/>
<feColorMatrix type="matrix" values="0 0 0 0 0 0 0 0 0 0 0 0 0 0 0 0 0 0 0.16 0"/>
<feBlend mode="normal" in2="BackgroundImageFix" result="effect1_dropShadow_1_148"/>
<feBlend mode="normal" in="SourceGraphic" in2="effect1_dropShadow_1_148" result="shape"/>
</filter>
<filter id="filter2_d_1_148" x="126.19" y="232.202" width="196.418" height="181.208" filterUnits="userSpaceOnUse" color-interpolation-filters="sRGB">
<feFlood flood-opacity="0" result="BackgroundImageFix"/>
<feColorMatrix in="SourceAlpha" type="matrix" values="0 0 0 0 0 0 0 0 0 0 0 0 0 0 0 0 0 0 127 0" result="hardAlpha"/>
<feOffset dy="20"/>
<feGaussianBlur stdDeviation="20.5"/>
<feComposite in2="hardAlpha" operator="out"/>
<feColorMatrix type="matrix" values="0 0 0 0 0 0 0 0 0 0 0 0 0 0 0 0 0 0 0.16 0"/>
<feBlend mode="normal" in2="BackgroundImageFix" result="effect1_dropShadow_1_148"/>
<feBlend mode="normal" in="SourceGraphic" in2="effect1_dropShadow_1_148" result="shape"/>
</filter>
<linearGradient id="paint0_linear_1_148" x1="276.5" y1="0" x2="276.5" y2="368" gradientUnits="userSpaceOnUse">
<stop stop-color="#03A65B"/>
<stop offset="1" stop-color="#35EF99"/>
</linearGradient>
<linearGradient id="paint1_linear_1_148" x1="276.5" y1="0" x2="276.5" y2="368" gradientUnits="userSpaceOnUse">
<stop stop-color="#03A65B"/>
<stop offset="1" stop-color="#35EF99"/>
</linearGradient>
<linearGradient id="paint2_linear_1_148" x1="-120.733" y1="292.413" x2="359.248" y2="227.647" gradientUnits="userSpaceOnUse">
<stop stop-color="#0DCA74"/>
<stop offset="1" stop-color="#10C170"/>
</linearGradient>
</defs>
</svg>
