<svg width="19" height="19" viewBox="0 0 19 19" fill="none" xmlns="http://www.w3.org/2000/svg">
<path d="M5.13965 1.78125C4.82886 1.78125 4.52271 1.89258 4.26758 2.09668L4.23047 2.11523L4.21192 2.13379L2.35645 4.04492L2.37501 4.06348C1.80213 4.59229 1.62586 5.38318 1.87403 6.06738C1.87635 6.07202 1.87171 6.0813 1.87403 6.08594C2.37733 7.52625 3.66456 10.3071 6.17872 12.8213C8.70215 15.3447 11.5201 16.5809 12.9141 17.126H12.9326C13.6539 17.3672 14.4356 17.1956 14.9922 16.7178L16.8662 14.8438C17.3579 14.3521 17.3579 13.4985 16.8662 13.0068L14.4541 10.5947L14.4356 10.5576C13.9439 10.0659 13.0718 10.0659 12.5801 10.5576L11.3926 11.7451C10.9635 11.5387 9.94068 11.0099 8.96192 10.0752C7.99012 9.14746 7.49378 8.08057 7.31055 7.66309L8.49805 6.47559C8.99671 5.97693 9.00599 5.14661 8.4795 4.65723L8.49805 4.63867L8.44239 4.58301L6.06739 2.13379L6.04883 2.11523L6.01172 2.09668C5.7566 1.89258 5.45045 1.78125 5.13965 1.78125ZM5.13965 2.96875C5.18372 2.96875 5.22779 2.98962 5.26954 3.02441L7.64454 5.45508L7.7002 5.51074C7.69556 5.5061 7.73499 5.56873 7.66309 5.64062L6.17872 7.125L5.9004 7.38477L6.03028 7.75586C6.03028 7.75586 6.71216 9.58118 8.14551 10.9473L8.2754 11.0586C9.6554 12.318 11.2813 13.0068 11.2813 13.0068L11.6523 13.1738L13.415 11.4111C13.5171 11.3091 13.4985 11.3091 13.6006 11.4111L16.0313 13.8418C16.1333 13.9438 16.1333 13.9067 16.0313 14.0088L14.2129 15.8271C13.9392 16.0614 13.6493 16.1101 13.3037 15.9941C11.9585 15.4653 9.34461 14.3173 7.01368 11.9863C4.66419 9.63684 3.43726 6.97192 2.98731 5.67773C2.89686 5.43652 2.9618 5.07935 3.17286 4.89844L3.20997 4.86133L5.00977 3.02441C5.05152 2.98962 5.09559 2.96875 5.13965 2.96875Z" fill="white"/>
</svg>
