<svg width="14" height="11" viewBox="0 0 14 11" fill="none" xmlns="http://www.w3.org/2000/svg">
<path d="M1.5 0C0.675781 0 0 0.675781 0 1.5V9.5C0 10.3242 0.675781 11 1.5 11H12.5C13.3242 11 14 10.3242 14 9.5V1.5C14 0.675781 13.3242 0 12.5 0H1.5ZM1.5 1H12.5C12.5352 1 12.5625 1.01172 12.5938 1.01953L7 4.89062L1.40625 1.01953C1.4375 1.01172 1.46484 1 1.5 1ZM1 1.95312L7 6.10938L13 1.95312V9.03516L9.85938 6.40625L9 7L12.5742 9.98438C12.5508 9.98828 12.5273 10 12.5 10H1.5C1.47266 10 1.44922 9.98828 1.42578 9.98438L5 7L4.14062 6.40625L1 9.03516V1.95312Z" fill="white" fill-opacity="0.96"/>
</svg>
