<svg width="11" height="17" viewBox="0 0 11 17" fill="none" xmlns="http://www.w3.org/2000/svg">
<path d="M5.5 0.78125C2.55676 0.78125 0.15625 3.18176 0.15625 6.125C0.15625 6.95996 0.494873 7.91785 0.954102 8.96387C1.41333 10.0099 2.00476 11.1208 2.60547 12.1553C3.80689 14.2264 5.01758 15.959 5.01758 15.959L5.5 16.6641L5.98242 15.959C5.98242 15.959 7.19312 14.2264 8.39453 12.1553C8.99524 11.1208 9.58667 10.0099 10.0459 8.96387C10.5051 7.91785 10.8438 6.95996 10.8438 6.125C10.8438 3.18176 8.44324 0.78125 5.5 0.78125ZM5.5 1.96875C7.8031 1.96875 9.65625 3.8219 9.65625 6.125C9.65625 6.60046 9.40112 7.50037 8.96973 8.48145C8.53833 9.46252 7.94226 10.5503 7.35547 11.5615C6.4231 13.1711 5.84326 14.0223 5.5 14.5303C5.15674 14.0223 4.5769 13.1711 3.64453 11.5615C3.05774 10.5503 2.46167 9.46252 2.03027 8.48145C1.59888 7.50037 1.34375 6.60046 1.34375 6.125C1.34375 3.8219 3.1969 1.96875 5.5 1.96875ZM5.5 4.9375C4.84363 4.9375 4.3125 5.46863 4.3125 6.125C4.3125 6.78137 4.84363 7.3125 5.5 7.3125C6.15637 7.3125 6.6875 6.78137 6.6875 6.125C6.6875 5.46863 6.15637 4.9375 5.5 4.9375Z" fill="#19A364"/>
</svg>
