<svg width="54" height="69" viewBox="0 0 54 69" fill="none" xmlns="http://www.w3.org/2000/svg">
<path d="M27.0151 0.000131012C26.8078 -0.00350281 26.6062 0.0685626 26.4477 0.202982C26.2892 0.337402 26.1845 0.525069 26.1529 0.73123C26.1529 0.73123 25.7679 3.28524 23.5597 5.91125C21.3515 8.53727 17.3651 11.2126 9.85714 11.2126C6.71905 11.2126 4.55269 10.792 3.18917 10.3854C1.82565 9.97891 1.33259 9.63244 1.33259 9.63244C1.2035 9.54588 1.05348 9.49619 0.898536 9.48867C0.743589 9.48115 0.589516 9.51608 0.452743 9.58973C0.31597 9.66339 0.201624 9.77301 0.121893 9.90691C0.0421612 10.0408 3.32308e-05 10.194 0 10.3501V45.7124C0 48.948 1.78322 51.9817 4.31417 54.7163C6.84513 57.451 10.1654 59.9209 13.4715 62.0206C20.0837 66.2199 26.6752 68.9357 26.6752 68.9357C26.8834 69.0214 27.1166 69.0214 27.3248 68.9357C27.3248 68.9357 33.9163 66.2199 40.5285 62.0206C43.8346 59.9209 47.1549 57.451 49.6858 54.7163C52.2168 51.9817 54 48.948 54 45.7124V10.3501C54 10.194 53.9578 10.0408 53.8781 9.90691C53.7984 9.77301 53.684 9.66339 53.5473 9.58973C53.4105 9.51608 53.2564 9.48115 53.1015 9.48867C52.9465 9.49619 52.7965 9.54588 52.6674 9.63244C52.6674 9.63244 52.1743 9.97891 50.8108 10.3854C49.4473 10.792 47.281 11.2126 44.1429 11.2126C36.6349 11.2126 32.6485 8.53727 30.4403 5.91125C28.2321 3.28524 27.8471 0.73123 27.8471 0.73123C27.8163 0.530224 27.716 0.346624 27.5637 0.212851C27.4115 0.0790785 27.2172 0.00373747 27.0151 0.000131012ZM27 3.5276C27.4509 4.57012 28.0839 5.78101 29.1311 7.02643C31.6372 10.0066 36.2222 12.9376 44.1429 12.9376C47.4333 12.9376 49.767 12.4956 51.2963 12.0397C51.948 11.8454 51.906 11.7968 52.2857 11.6253V45.7124C52.2857 48.2985 50.8011 50.9789 48.4302 53.5405C46.0594 56.1021 42.844 58.5107 39.6144 60.5617C33.4143 64.4993 27.4891 66.9864 27 67.1905C26.5109 66.9864 20.5857 64.4993 14.3856 60.5617C11.156 58.5107 7.94058 56.1021 5.56975 53.5405C3.19892 50.9789 1.71429 48.2985 1.71429 45.7124V11.6253C2.09395 11.7968 2.05198 11.8454 2.70368 12.0397C4.23302 12.4956 6.56667 12.9376 9.85714 12.9376C17.7778 12.9376 22.3628 10.0066 24.8689 7.02643C25.9161 5.78101 26.5491 4.57012 27 3.5276ZM26.9933 8.61834C26.8869 8.62008 26.785 8.66157 26.7073 8.73474C26.6297 8.8079 26.5818 8.90752 26.5731 9.01421C26.5731 9.01421 26.38 11.0228 24.5876 13.0841C22.7952 15.1454 19.4078 17.25 12.8571 17.25C8.68571 17.25 5.78404 15.5823 5.78404 15.5823C5.71889 15.5449 5.64512 15.5253 5.5701 15.5255C5.49508 15.5258 5.42143 15.5458 5.35653 15.5837C5.29162 15.6215 5.23773 15.6759 5.20023 15.7413C5.16273 15.8066 5.14295 15.8808 5.14286 15.9563V19.4063C5.14205 19.4634 5.15255 19.5201 5.17372 19.5732C5.1949 19.6262 5.22634 19.6745 5.26622 19.7152C5.30609 19.7559 5.35361 19.7882 5.40601 19.8102C5.4584 19.8323 5.51463 19.8437 5.57143 19.8437C5.62823 19.8437 5.68446 19.8323 5.73685 19.8102C5.78925 19.7882 5.83676 19.7559 5.87664 19.7152C5.91652 19.6745 5.94796 19.6262 5.96913 19.5732C5.99031 19.5201 6.0008 19.4634 6 19.4063V16.6032C6.76653 16.9939 9.12934 18.1125 12.8571 18.1125C19.5922 18.1125 23.2762 15.9047 25.2338 13.6535C25.8308 12.967 26.2526 12.2834 26.5714 11.6539V37.9499H6V36.6562C6.0009 36.5984 5.99025 36.541 5.9687 36.4875C5.94714 36.4339 5.91511 36.3853 5.87451 36.3444C5.83392 36.3036 5.78557 36.2714 5.73236 36.2497C5.67914 36.228 5.62214 36.2173 5.56473 36.2182C5.50845 36.2191 5.45289 36.2311 5.40123 36.2536C5.34957 36.2761 5.30282 36.3086 5.26364 36.3492C5.22447 36.3899 5.19364 36.438 5.17292 36.4906C5.15219 36.5433 5.14198 36.5995 5.14286 36.6562V45.7124C5.14286 47.172 5.95362 48.7015 7.25223 50.2691C8.55084 51.8367 10.3588 53.4481 12.4604 55.0297C16.6635 58.1927 22.0405 61.2264 26.8259 63.3716C26.8915 63.4009 26.9635 63.4132 27.0351 63.4073C27.1067 63.4013 27.1756 63.3774 27.2356 63.3377C27.2956 63.2979 27.3448 63.2436 27.3785 63.1798C27.4122 63.116 27.4294 63.0446 27.4286 62.9724V38.8124H48V45.7124C48 47.6354 45.9495 50.3076 42.7567 52.9694C39.5639 55.6312 35.2969 58.3135 31.0882 60.5112C31.036 60.536 30.9894 60.5711 30.951 60.6144C30.9127 60.6578 30.8834 60.7085 30.865 60.7634C30.8466 60.8184 30.8394 60.8766 30.8438 60.9344C30.8483 60.9923 30.8643 61.0487 30.8909 61.1001C30.9175 61.1516 30.9541 61.1972 30.9986 61.2341C31.0431 61.271 31.0946 61.2985 31.1499 61.3149C31.2052 61.3313 31.2632 61.3363 31.3205 61.3296C31.3778 61.323 31.4331 61.3047 31.4833 61.276C35.7346 59.056 40.0388 56.3557 43.3025 53.6348C46.5661 50.914 48.8571 48.2044 48.8571 45.7124V38.3811C48.858 38.3234 48.8474 38.266 48.8258 38.2125C48.8043 38.1589 48.7723 38.1103 48.7317 38.0694C48.6911 38.0286 48.6427 37.9963 48.5895 37.9747C48.5363 37.953 48.4793 37.9423 48.4219 37.9432C48.4005 37.9438 48.3793 37.9461 48.3583 37.9499H27.4286V9.07654C27.4323 9.01711 27.4237 8.95756 27.4034 8.90162C27.3831 8.84569 27.3515 8.79459 27.3106 8.75155C27.2697 8.70851 27.2204 8.67445 27.1658 8.65152C27.1112 8.6286 27.0525 8.6173 26.9933 8.61834ZM29.5647 13.4446C29.4797 13.4453 29.3967 13.4714 29.3264 13.5197C29.2562 13.568 29.2018 13.6362 29.1702 13.7157C29.1386 13.7952 29.1312 13.8823 29.149 13.9661C29.1668 14.0498 29.209 14.1263 29.2701 14.1858C31.3319 16.2425 34.9414 18.1125 41.1429 18.1125C44.8707 18.1125 47.2335 16.9939 48 16.6032V24.5812C47.9992 24.6384 48.0097 24.6951 48.0309 24.7481C48.052 24.8012 48.0835 24.8494 48.1234 24.8901C48.1632 24.9308 48.2108 24.9631 48.2631 24.9852C48.3155 25.0073 48.3718 25.0186 48.4286 25.0186C48.4854 25.0186 48.5416 25.0073 48.594 24.9852C48.6464 24.9631 48.6939 24.9308 48.7338 24.8901C48.7737 24.8494 48.8051 24.8012 48.8263 24.7481C48.8475 24.6951 48.8579 24.6384 48.8571 24.5812V15.9563C48.857 15.8808 48.8373 15.8066 48.7998 15.7413C48.7623 15.6759 48.7084 15.6215 48.6435 15.5837C48.5786 15.5458 48.5049 15.5258 48.4299 15.5255C48.3549 15.5253 48.2811 15.5449 48.216 15.5823C48.216 15.5823 45.3143 17.25 41.1429 17.25C35.1112 17.25 31.7658 15.4627 29.8728 13.5743C29.8327 13.5331 29.7847 13.5003 29.7318 13.478C29.6789 13.4558 29.6221 13.4444 29.5647 13.4446ZM5.56473 30.1807C5.50845 30.1816 5.45289 30.1936 5.40123 30.2161C5.34957 30.2386 5.30282 30.2711 5.26364 30.3118C5.22447 30.3524 5.19364 30.4005 5.17292 30.4531C5.15219 30.5058 5.14198 30.5621 5.14286 30.6187V31.4812C5.14205 31.5383 5.15255 31.5951 5.17372 31.6481C5.1949 31.7011 5.22634 31.7494 5.26622 31.7901C5.30609 31.8308 5.35361 31.8631 5.40601 31.8852C5.4584 31.9072 5.51463 31.9186 5.57143 31.9186C5.62823 31.9186 5.68446 31.9072 5.73685 31.8852C5.78925 31.8631 5.83676 31.8308 5.87664 31.7901C5.91652 31.7494 5.94796 31.7011 5.96913 31.6481C5.99031 31.5951 6.0008 31.5383 6 31.4812V30.6187C6.0009 30.5609 5.99025 30.5036 5.9687 30.45C5.94714 30.3965 5.91511 30.3478 5.87451 30.307C5.83392 30.2661 5.78557 30.2339 5.73236 30.2122C5.67914 30.1905 5.62214 30.1798 5.56473 30.1807ZM5.56473 32.7682C5.50845 32.7691 5.45289 32.7811 5.40123 32.8036C5.34957 32.8261 5.30282 32.8586 5.26364 32.8993C5.22447 32.9399 5.19364 32.988 5.17292 33.0406C5.15219 33.0933 5.14198 33.1495 5.14286 33.2062V34.9312C5.14205 34.9883 5.15255 35.0451 5.17372 35.0981C5.1949 35.1511 5.22634 35.1994 5.26622 35.2401C5.30609 35.2808 5.35361 35.3131 5.40601 35.3351C5.4584 35.3572 5.51463 35.3686 5.57143 35.3686C5.62823 35.3686 5.68446 35.3572 5.73685 35.3351C5.78925 35.3131 5.83676 35.2808 5.87664 35.2401C5.91652 35.1994 5.94796 35.1511 5.96913 35.0981C5.99031 35.0451 6.0008 34.9883 6 34.9312V33.2062C6.0009 33.1484 5.99025 33.0911 5.9687 33.0375C5.94714 32.984 5.91511 32.9353 5.87451 32.8945C5.83392 32.8536 5.78557 32.8214 5.73236 32.7997C5.67914 32.778 5.62214 32.7673 5.56473 32.7682ZM6 38.8124H26.5714V62.3036C21.9948 60.2021 16.9338 57.3186 12.9743 54.339C10.908 52.784 9.14279 51.2045 7.91016 49.7165C6.67752 48.2286 6 46.8389 6 45.7124V38.8124Z" fill="url(#paint0_linear_1_132)"/>
<defs>
<linearGradient id="paint0_linear_1_132" x1="27" y1="0" x2="27" y2="69" gradientUnits="userSpaceOnUse">
<stop stop-color="#5FC998"/>
<stop offset="1" stop-color="#19A364"/>
</linearGradient>
</defs>
</svg>
