<svg width="21" height="19" viewBox="0 0 21 19" fill="none" xmlns="http://www.w3.org/2000/svg">
<path d="M6.1875 0.875C3.27319 0.875 0.875489 3.07056 0.516114 5.88379C0.465576 6.11401 0.4375 6.35547 0.4375 6.625C0.4375 9.90991 2.94751 12.8748 5.34522 15.0759C7.7373 17.2827 10.1294 18.7371 10.1294 18.7371L10.5 18.9673L10.8706 18.7371C10.8706 18.7371 13.2627 17.2827 15.6604 15.0759C18.0525 12.8748 20.5625 9.90991 20.5625 6.625C20.5625 6.35547 20.5344 6.11963 20.4895 5.89502C20.1245 3.07056 17.7324 0.875 14.8125 0.875C13.0269 0.875 11.55 1.80713 10.5 3.0874C9.44995 1.80713 7.97315 0.875 6.1875 0.875ZM6.1875 2.3125C7.771 2.3125 9.12988 3.16602 9.88233 4.43506L10.5 5.47949L11.1177 4.43506C11.8701 3.16602 13.229 2.3125 14.8125 2.3125C17.0193 2.3125 18.8049 3.95776 19.0688 6.09717L19.0801 6.15332C19.1082 6.28809 19.125 6.4397 19.125 6.625C19.125 9.14062 16.9631 11.9258 14.6833 14.0203C12.5945 15.9463 10.8313 17.0188 10.5 17.2266C10.1687 17.0188 8.40552 15.9463 6.31104 14.0203C4.03686 11.9258 1.875 9.14062 1.875 6.625C1.875 6.43408 1.89185 6.28247 1.91992 6.15332L1.93115 6.11963V6.08594C2.20068 3.95776 3.98071 2.3125 6.1875 2.3125Z" fill="#19A364"/>
</svg>
