<svg width="40" height="44" viewBox="0 0 40 44" fill="none" xmlns="http://www.w3.org/2000/svg">
<path d="M20.0015 0.879883C15.1306 0.879883 11.2015 4.80895 11.2015 9.67988V11.4399H4.24399L4.16149 12.2099L0.641494 43.0099L0.531494 43.9999H39.4715L39.3615 43.0099L35.8415 12.2099L35.759 11.4399H28.8015V9.67988C28.8015 4.80895 24.8724 0.879883 20.0015 0.879883ZM20.0015 2.63988C23.9306 2.63988 27.0415 5.75082 27.0415 9.67988V11.4399H12.9615V9.67988C12.9615 5.75082 16.0724 2.63988 20.0015 2.63988ZM5.83899 13.1999H11.2015V15.2074C10.6756 15.5133 10.3215 16.0702 10.3215 16.7199C10.3215 17.6927 11.1087 18.4799 12.0815 18.4799C13.0543 18.4799 13.8415 17.6927 13.8415 16.7199C13.8415 16.0702 13.4874 15.5133 12.9615 15.2074V13.1999H27.0415V15.2074C26.5156 15.5133 26.1615 16.0702 26.1615 16.7199C26.1615 17.6927 26.9487 18.4799 27.9215 18.4799C28.8943 18.4799 29.6815 17.6927 29.6815 16.7199C29.6815 16.0702 29.3274 15.5133 28.8015 15.2074V13.1999H34.164L37.4915 42.2399H2.51149L5.83899 13.1999Z" fill="#19A364"/>
</svg>
